<svg xmlns="http://www.w3.org/2000/svg" viewBox="0 0 32 32" fill="none">
  <g clip-path="url(#clip0_3092_1065)">
    <circle cx="16" cy="16" r="16" fill="#0E1117" />
    <path
      d="M15.6894 28.3984C15.6632 28.3967 15.5112 28.3854 15.3543 28.3773C14.9686 28.3529 14.7611 28.335 14.5372 28.3058C13.2313 28.1289 11.9385 27.7279 10.8304 27.1565C10.649 27.0624 10.3107 26.8757 10.1898 26.8026C9.20917 26.2069 8.37402 25.4764 7.73499 24.6566C7.49637 24.3514 7.36562 24.1501 7.35255 24.0673C7.33784 23.9602 7.35582 23.8887 7.41302 23.8417C7.48166 23.7849 7.52416 23.7865 7.85593 23.8709C8.87086 24.129 9.61939 24.0998 10.9906 23.7491C11.6934 23.5689 12.0104 23.4943 12.4207 23.4115C13.1431 23.2654 13.7069 23.1777 14.4064 23.1014C14.5551 23.0852 14.8983 23.0625 15.3494 23.0365C16.25 22.9845 17.3466 23.0527 18.4759 23.2297C19.347 23.366 19.7834 23.4553 20.8703 23.7232C21.9015 23.978 22.3134 24.043 22.9116 24.043C23.33 24.043 23.6454 23.9975 24.1586 23.8644C24.4299 23.793 24.5116 23.7865 24.5704 23.8254C24.6178 23.8579 24.6538 23.9423 24.6538 24.017C24.6538 24.1322 24.4446 24.4488 24.0834 24.8855C23.8856 25.1209 23.3855 25.6257 23.1338 25.8384C22.7187 26.1939 22.2235 26.5478 21.7773 26.8107C21.6286 26.8984 21.4897 26.9812 21.4684 26.9942C21.4096 27.0299 21.2265 27.1257 21.0827 27.1971C19.7932 27.8334 18.3386 28.2425 16.9315 28.361C16.4493 28.4016 15.8724 28.4195 15.6894 28.3984Z"
      fill="#B8BB25"
    />
    <path
      d="M8.81074 22.8507C8.13644 22.7669 7.63275 22.5911 7.22005 22.2992C6.72449 21.9492 6.36216 21.3945 6.2338 20.7881C6.19318 20.5962 6.19318 20.1414 6.23217 20.0269C6.27767 19.8995 6.36053 19.8463 6.48402 19.8688C6.53439 19.8785 6.588 19.9237 6.81223 20.1446C7.10469 20.4317 7.21843 20.5268 7.4329 20.6671C8.15269 21.1396 9.04634 21.2912 9.85224 21.0784C9.9351 21.0558 10.0212 21.0348 10.0423 21.03C10.0635 21.0251 10.1252 21.0042 10.1804 20.9832C11.0448 20.6607 11.7695 20.0204 12.1757 19.2189C12.3398 18.8948 12.4438 18.5545 12.4925 18.1771C12.5299 17.8868 12.5169 17.2385 12.4666 16.8692C12.4276 16.5838 12.4357 16.4822 12.5007 16.3919C12.5527 16.3177 12.603 16.3016 12.9231 16.25C13.6137 16.1387 14.145 16.079 14.9525 16.0194C15.3116 15.9935 16.717 15.9935 17.0648 16.0194C17.6513 16.0645 18.1225 16.1113 18.4783 16.1613C19.0779 16.2467 19.3931 16.3 19.4288 16.3225C19.5345 16.3903 19.5735 16.5338 19.5507 16.7596C19.4955 17.2853 19.4857 17.4159 19.4857 17.6998C19.4857 18.3223 19.58 18.7545 19.8172 19.2383C19.9975 19.6011 20.2088 19.885 20.524 20.1882C21.0683 20.7091 21.6678 21.0219 22.3405 21.1364C22.607 21.1816 23.0359 21.1848 23.2796 21.1445C23.733 21.0687 24.1002 20.9381 24.4365 20.7365C24.521 20.6849 24.6022 20.6365 24.6168 20.6268C24.729 20.5607 24.9613 20.3623 25.1839 20.1414C25.4033 19.9221 25.4569 19.8769 25.5072 19.8672C25.6421 19.843 25.7315 19.9043 25.777 20.0608C25.8046 20.1543 25.7997 20.5284 25.7672 20.7236C25.6584 21.3719 25.2392 21.9863 24.6298 22.3879C24.3423 22.5782 24.0075 22.7088 23.6078 22.7878C23.3056 22.8475 23.0782 22.8652 22.7548 22.8539C22.2316 22.8346 21.8791 22.7749 20.6556 22.5056C19.2517 22.1943 18.2184 22.0395 16.9916 21.9541C16.6163 21.9283 15.3685 21.9283 15.0256 21.9541C14.2116 22.0153 13.5974 22.0879 12.9865 22.1927C12.9101 22.2056 12.7688 22.2314 12.6697 22.2476C12.3902 22.2943 11.9645 22.3814 11.4348 22.4975C10.5054 22.7007 10.1772 22.762 9.65076 22.8281C9.50128 22.8459 8.90823 22.862 8.81074 22.8507ZM14.3123 21.0526C14.6779 20.9187 14.894 20.5736 14.8404 20.2124C14.7705 19.7576 14.3091 19.4495 13.8688 19.5624C13.7063 19.6044 13.6039 19.664 13.4739 19.7947C13.3748 19.893 13.3423 19.9398 13.305 20.0301C13.188 20.3172 13.2513 20.6333 13.4707 20.8542C13.5893 20.9735 13.6835 21.03 13.8363 21.0703C13.9841 21.1106 14.1742 21.1026 14.3123 21.0526ZM18.2216 21.0542C18.493 20.9542 18.6896 20.722 18.7399 20.4397C18.8212 19.9914 18.4296 19.5399 17.9568 19.5382C17.739 19.5382 17.5408 19.6221 17.3751 19.7834C17.1509 20.0027 17.0891 20.3269 17.2159 20.6187C17.2532 20.7042 17.3767 20.8639 17.4482 20.9203C17.6676 21.0913 17.9779 21.1445 18.2216 21.0542Z"
      fill="#B8BB25"
    />
    <path
      d="M2.27405 18.5959C2.10971 18.5679 1.72573 18.4657 1.53049 18.3981C1.30595 18.3206 0.804822 18.0749 0.630728 17.9562C0.100311 17.5985 -0.0916808 17.2111 0.04011 16.7626C0.171901 16.3093 0.821093 15.6762 1.88355 14.9607C2.42211 14.598 2.98181 14.2749 3.69771 13.9155C4.64791 13.4374 5.5379 13.0665 6.56131 12.7203C6.81188 12.6362 6.94692 12.5933 7.3423 12.4713C8.80013 12.0196 10.7184 11.6371 12.4105 11.4607C12.5049 11.4508 12.64 11.4343 12.7116 11.4261C13.1948 11.3651 14.0425 11.3074 14.9162 11.2761C15.5019 11.2563 17.0118 11.2662 17.5113 11.2926C18.2923 11.3371 18.551 11.3552 18.9675 11.4014C19.088 11.4146 19.2978 11.4376 19.4313 11.4508C21.6196 11.6767 23.821 12.1647 25.7361 12.8472C27.4152 13.4456 29.0992 14.2716 30.2706 15.0728C31.2827 15.7652 31.8603 16.3488 31.9758 16.7956C32.0116 16.9325 32.0067 17.1534 31.9677 17.2836C31.8212 17.7617 31.1069 18.2283 30.09 18.5085C29.8037 18.5877 29.5678 18.6256 29.4766 18.6074C29.2895 18.5728 29.1838 18.3569 29.2342 18.1112C29.2505 18.0354 29.2668 18.0024 29.3204 17.948C29.3969 17.8722 29.4913 17.8359 29.8004 17.7634C30.1258 17.6892 30.3943 17.5837 30.6579 17.427C30.9979 17.2226 31.1086 17.0198 31.0012 16.7923C30.9231 16.6258 30.7783 16.517 30.3439 16.2977C28.8242 15.5295 26.395 14.7959 23.8568 14.3359C23.7234 14.3112 23.5721 14.2848 23.5233 14.2782C23.4745 14.2699 23.1962 14.2271 22.905 14.1809C21.8783 14.0194 21.33 13.9534 19.9926 13.8248C19.6021 13.7886 18.992 13.7424 18.5689 13.7177C17.5439 13.6583 17.1794 13.6484 16.0389 13.6484C14.7991 13.6484 14.3321 13.6633 13.1671 13.7341C12.3731 13.7836 11.5319 13.8561 10.873 13.932C10.8014 13.9402 10.6729 13.9551 10.5883 13.965C9.56484 14.082 8.14443 14.3046 7.34067 14.4744C5.9951 14.7596 4.91637 15.0497 3.75466 15.4355C3.26004 15.6004 2.60759 15.8526 2.16015 16.0537C1.79081 16.2203 1.29456 16.4807 1.17904 16.5698C0.824347 16.8418 0.899191 17.1616 1.38405 17.4501C1.6395 17.6018 1.91935 17.704 2.34726 17.7996C2.56854 17.8491 2.61084 17.8672 2.66942 17.9365C2.81097 18.1079 2.78657 18.4789 2.62549 18.5811C2.56529 18.6173 2.43838 18.6223 2.27405 18.5959Z"
      fill="#F3A42D"
    />
    <path
      d="M23.4063 9.13732C23.3885 9.13245 23.2367 9.08705 23.0671 9.03516C22.3128 8.80327 21.4019 8.5811 20.7171 8.45948C19.8934 8.31354 19.6915 8.28273 19.1586 8.21624C18.204 8.09948 18.0054 8.08327 17.0751 8.04435C16.5792 8.02327 15.0465 8.03462 14.6767 8.06219C14.5475 8.07029 14.3375 8.08651 14.2083 8.09624C14.0791 8.10435 13.9159 8.11894 13.8449 8.12705C13.7738 8.13516 13.6398 8.14975 13.5461 8.15948C12.6465 8.25192 11.3156 8.47894 10.4855 8.68002C9.97995 8.80164 9.3969 8.96543 9.07388 9.0757C8.84939 9.15191 8.80416 9.15029 8.71856 9.06759C8.67657 9.02705 8.65234 8.98813 8.65234 8.96381C8.65234 8.88435 8.70403 8.53408 8.75086 8.28921C9.04966 6.74381 9.74576 5.19517 10.4742 4.44922C11.3819 3.52166 12.5706 3.35463 14.0032 3.94976C14.1388 4.00652 14.3585 4.10057 14.4909 4.15895C14.9076 4.34057 15.2549 4.45895 15.5876 4.5303C15.7281 4.56111 15.8024 4.56598 16.1141 4.5676C16.4307 4.5676 16.5017 4.56274 16.6632 4.5303C16.9233 4.47841 17.3949 4.31625 17.8455 4.12328C18.6401 3.78436 18.8016 3.72922 19.2587 3.6449C19.8321 3.53787 20.3989 3.59949 20.9303 3.82328C21.2259 3.94976 21.6313 4.24003 21.8832 4.5076C22.4808 5.14327 23.0267 6.24273 23.4063 7.56759C23.5549 8.08651 23.6728 8.68489 23.6728 8.92002C23.6728 9.07732 23.5549 9.17299 23.4063 9.13732Z"
      fill="#F3A42D"
    />
    <path
      d="M8.92328 19.7444C8.81585 19.7311 8.62704 19.6846 8.52612 19.6448C8.26406 19.5452 8.03618 19.3891 7.82296 19.1634C7.5023 18.8214 7.34604 18.4495 7.34767 18.0213C7.34767 17.842 7.35255 17.8071 7.39813 17.6677C7.51369 17.3224 7.77738 17.0518 8.08013 16.9688C8.18919 16.9389 8.20221 16.9539 8.155 17.0601C8.04432 17.3074 8.09315 17.7075 8.26732 17.9831C8.40241 18.1972 8.59937 18.3549 8.83701 18.4396C8.93793 18.4778 8.9835 18.4827 9.14301 18.4844C9.30416 18.4844 9.3481 18.4778 9.45228 18.4412C9.62318 18.3798 9.71759 18.3217 9.84618 18.1989C9.99267 18.0578 10.1017 17.8885 10.1587 17.7142C10.2173 17.5398 10.2254 17.3058 10.1782 17.1331C10.1375 16.9754 10.0366 16.7762 9.92594 16.6351C9.87222 16.5671 9.83316 16.5057 9.83641 16.499C9.8592 16.4608 10.1457 16.5306 10.3036 16.6136C10.6682 16.8011 10.9595 17.1597 11.0669 17.5564C11.0979 17.6693 11.1028 17.7308 11.1028 17.9632C11.1028 18.2122 11.0979 18.2503 11.0588 18.3831C10.9644 18.6969 10.8212 18.9393 10.5949 19.17C10.3052 19.4638 9.93407 19.658 9.52227 19.7311C9.39531 19.7543 9.05349 19.761 8.92328 19.7444Z"
      fill="#E3A800"
    />
    <path
      d="M22.6855 19.7451C22.376 19.7019 22.0588 19.5725 21.8111 19.385C21.6007 19.2273 21.3608 18.9352 21.2525 18.7062C20.9646 18.1005 21.0064 17.4383 21.3608 16.9869C21.5403 16.7579 21.8173 16.5687 22.0541 16.5139C22.2599 16.4658 22.3048 16.484 22.212 16.5803C22.1268 16.6666 22.0201 16.8575 21.9752 17.0018C21.8173 17.5063 22.0139 18.0557 22.4534 18.3428C22.7381 18.5286 23.1235 18.5353 23.4206 18.3594C23.7007 18.1934 23.8957 17.8963 23.9468 17.5611C23.9654 17.4333 23.9468 17.2159 23.9081 17.1014C23.8586 16.9554 23.857 16.962 23.9251 16.9753C24.0226 16.9935 24.1635 17.0732 24.2672 17.1661C24.473 17.3487 24.5999 17.6076 24.6432 17.9295C24.6943 18.2979 24.5674 18.7228 24.3058 19.0613C23.9514 19.5177 23.4655 19.7617 22.9177 19.7534C22.8155 19.7534 22.7118 19.7484 22.6855 19.7451Z"
      fill="#E3A800"
    />
  </g>
  <defs>
    <clipPath id="clip0_3092_1065">
      <rect width="32" height="32" fill="white" />
    </clipPath>
  </defs>
</svg>
