<svg viewBox="0 0 32 32" fill="none" xmlns="http://www.w3.org/2000/svg">
  <g clip-path="url(#clip0_3517_86)">
    <path
      d="M21.7125 3.17724C21.7473 3.22458 21.7661 3.28183 21.7661 3.34063C21.7661 3.39942 21.7473 3.45667 21.7125 3.50401C21.6188 3.6306 21.4964 3.73687 21.3451 3.82284C19.9031 4.64595 18.3794 5.54326 16.7738 6.51475C16.2562 6.82739 15.7449 6.85624 15.2397 6.6013C14.5429 6.24891 13.635 5.62893 12.894 5.20589C11.9413 4.66244 11.1329 4.19966 10.4688 3.81754C10.3451 3.74688 10.2539 3.66475 10.195 3.57113C10.1653 3.524 10.1505 3.46896 10.1525 3.41319C10.1546 3.35743 10.1734 3.30352 10.2065 3.25849C10.3025 3.12719 10.4226 3.01886 10.5668 2.93348C12.1165 2.01263 13.6255 1.08971 15.094 0.164736C15.1647 0.120301 15.2423 0.0880586 15.3236 0.0693522C15.7251 -0.0248529 16.129 -0.023084 16.5353 0.0746538C16.6002 0.0904417 16.6623 0.116685 16.719 0.152371C17.8913 0.89247 19.4274 1.79448 21.3274 2.85841C21.497 2.95321 21.6253 3.05948 21.7125 3.17724Z"
      fill="#07AF62"
    />
    <path
      d="M13.9697 7.45052C14.0987 7.66513 13.8081 7.88062 13.6032 8.00427C12.5687 8.63132 11.0117 9.57573 8.93212 10.8375C8.68601 10.9864 8.39839 11.0483 8.06926 11.023C7.87202 11.0076 7.59706 10.899 7.24438 10.6971C5.26019 9.55718 3.77557 8.69255 2.79054 8.10318C2.39046 7.86384 2.55562 7.45228 2.89652 7.25269C4.11942 6.53673 5.62376 5.62029 7.40953 4.50337C7.99184 4.13891 8.57738 4.1395 9.16617 4.50514C10.1653 5.12689 10.838 5.53551 11.1842 5.73098C12.2099 6.30917 13.0963 6.82759 13.8434 7.28625C13.8723 7.30391 13.9144 7.35867 13.9697 7.45052Z"
      fill="#0588E0"
    />
    <path
      d="M17.8174 7.779C17.6796 7.55909 17.9658 7.30385 18.1671 7.19169C19.2752 6.5717 20.8226 5.65821 22.8091 4.45121C23.2772 4.16682 23.7647 4.1839 24.2716 4.50243C25.9479 5.55458 27.462 6.46131 28.8138 7.2226C28.9492 7.29856 29.0475 7.37215 29.1088 7.4434C29.128 7.46554 29.1427 7.49135 29.1521 7.51935C29.2262 7.74838 29.163 7.92149 28.9622 8.03865C26.7648 9.32043 25.4418 10.095 24.9932 10.3623C24.3008 10.7747 23.6031 11.226 22.7879 10.7544C21.4732 9.99429 20.0062 9.14203 18.3871 8.19763C18.191 8.08281 17.9207 7.94415 17.8174 7.779Z"
      fill="#FCBB00"
    />
    <path
      d="M21.8578 11.8751C21.8744 11.8928 21.8837 11.9162 21.8837 11.9405C21.8837 11.9648 21.8744 11.9881 21.8578 12.0058C21.7188 12.1512 21.5363 12.2893 21.3102 12.42C19.7853 13.3032 18.2924 14.1931 16.8316 15.0899C16.4519 15.323 16.0733 15.3978 15.6959 15.3142C15.5381 15.2794 15.186 15.1028 14.6396 14.7843C12.507 13.5431 11.0896 12.7112 10.3871 12.2884C10.247 12.2042 10.1387 12.1133 10.0621 12.0155C10.0398 11.9871 10.0282 11.9517 10.0294 11.9157C10.0305 11.8797 10.0443 11.8453 10.0683 11.8186C10.1973 11.6755 10.3539 11.553 10.5382 11.4512C12.1137 10.5786 13.2795 9.82438 15.1413 8.68067C15.425 8.50639 15.7177 8.43397 16.0191 8.46341C16.214 8.48225 16.4516 8.57734 16.7318 8.74868C17.7575 9.37396 18.7455 9.97158 19.6958 10.5415C20.3105 10.9107 20.8642 11.1907 21.4021 11.5183C21.5864 11.6302 21.7383 11.7491 21.8578 11.8751Z"
      fill="#07AF62"
    />
    <path
      d="M29.5205 9.44137C29.5639 9.41494 29.6144 9.40292 29.6649 9.40704C29.7154 9.41117 29.7632 9.43123 29.8014 9.46433C30.0322 9.66451 30.1467 9.91504 30.145 10.2159C30.1355 11.8574 30.1332 13.4913 30.1379 15.1175C30.1397 15.8011 30.1653 16.1782 29.593 16.4873C29.2591 16.6675 28.9812 16.8232 28.7593 16.9545C27.6582 17.6069 26.4562 18.3261 25.1533 19.1121C25.0608 19.1675 24.9557 19.2134 24.838 19.2499C24.7931 19.2637 24.7456 19.2663 24.6995 19.2574C24.6535 19.2484 24.6103 19.2283 24.5739 19.1987C24.3825 19.0426 24.2866 18.8371 24.286 18.5822C24.2836 16.7593 24.2863 15.0177 24.2939 13.3574C24.2957 13.01 24.4288 12.6897 24.6931 12.3965C24.7142 12.373 24.7383 12.3531 24.7647 12.3373L29.5205 9.44137Z"
      fill="#FCBB00"
    />
    <path
      d="M7.08589 19.3618C7.04677 19.3716 7.00613 19.3734 6.96638 19.3672C6.92663 19.3609 6.88859 19.3468 6.8545 19.3256C5.36017 18.3977 3.96476 17.5584 2.66826 16.8077C2.37387 16.6375 2.17575 16.4806 2.07389 16.3369C1.8949 16.0855 1.80481 15.8429 1.80364 15.6092C1.78421 12.6459 1.77155 10.8848 1.76566 10.3261C1.76213 9.92245 2.03149 9.38901 2.51194 9.67427C2.85549 9.87829 3.16019 10.092 3.52847 10.3084C4.981 11.161 6.04228 11.7945 6.71231 12.209C7.06911 12.4292 7.31993 12.7306 7.46477 13.1134C7.53131 13.2882 7.56074 13.6792 7.55309 14.2862C7.5419 15.1529 7.54073 16.629 7.54956 18.7144C7.55073 19.0695 7.39618 19.2853 7.08589 19.3618Z"
      fill="#FF4529"
    />
    <path
      d="M22.6312 13.3051C22.6497 13.2982 22.6694 13.2956 22.689 13.2974C22.7086 13.2993 22.7275 13.3055 22.7442 13.3157C22.9856 13.4629 23.1075 13.6887 23.1099 13.9931C23.1099 14.0667 23.1058 15.8834 23.0975 19.4432C23.0966 19.9633 22.8237 20.0994 22.3645 20.3802C20.6511 21.4306 19.0944 22.3773 17.6943 23.2205C17.4593 23.3627 17.1997 23.4916 16.9568 23.3459C16.7872 23.2446 16.7033 23.0568 16.7051 22.7824C16.7157 21.1327 16.7263 19.3804 16.7369 17.5258C16.7387 17.086 17.069 16.6965 17.4249 16.4836C19.0641 15.5027 20.7168 14.4833 22.383 13.4252C22.4572 13.3781 22.5399 13.3381 22.6312 13.3051Z"
      fill="#0588E0"
    />
    <path
      d="M8.85375 13.8127C9.0295 13.4665 9.33773 13.4674 9.64684 13.6449C10.5689 14.1766 12.0058 15.0333 14.1996 16.3404C14.8567 16.7325 15.2382 17.0266 15.2347 17.878C15.2288 19.4871 15.2308 21.1139 15.2409 22.7584C15.2426 23.0704 15.1087 23.288 14.839 23.411C14.7342 23.4587 14.6262 23.4517 14.5149 23.3898C13.0382 22.5667 11.3517 21.5755 9.45519 20.4162C8.93765 20.1 8.8458 19.6655 8.83873 19.0959C8.82637 18.0337 8.82313 16.3074 8.82902 13.9169C8.82902 13.8809 8.83749 13.8453 8.85375 13.8127Z"
      fill="#FCBB00"
    />
    <path
      d="M29.6014 18.0968C29.6209 18.0881 29.6423 18.0846 29.6634 18.0864C29.6846 18.0883 29.7049 18.0955 29.7224 18.1074C30.0607 18.3379 30.1419 18.564 30.1402 19.0003C30.1349 20.2991 30.1349 21.9062 30.1402 23.8215C30.1408 24.123 30.1113 24.3379 30.0519 24.4662C29.95 24.6853 29.8046 24.8489 29.6156 24.9573C27.9782 25.8899 26.4329 26.8243 24.9798 27.7605C24.8944 27.8152 24.8067 27.8244 24.7166 27.7879C24.3457 27.6359 24.2706 27.2403 24.2715 26.8429C24.2756 24.0803 24.2812 22.4764 24.2883 22.0313C24.2924 21.7799 24.3842 21.5117 24.5638 21.2268C24.6674 21.0613 24.8877 20.882 25.2244 20.6889C26.0352 20.2238 27.2125 19.5078 28.7562 18.541C29.0171 18.3779 29.2988 18.2299 29.6014 18.0968Z"
      fill="#9C7AEC"
    />
    <path
      d="M7.17615 27.7839C7.08254 27.8157 6.99069 27.8043 6.9006 27.7495C5.41157 26.8434 3.90635 25.9522 2.38494 25.0761C1.86387 24.7767 1.7888 24.2945 1.78792 23.6834C1.78733 22.2096 1.78056 20.6135 1.7676 18.8948C1.76643 18.6664 1.80528 18.5071 1.88418 18.417C2.11999 18.1503 2.29132 18.1812 2.59955 18.3702C3.50215 18.9237 4.72741 19.6635 6.27532 20.5896C6.8114 20.9102 7.21855 21.1301 7.45435 21.6609C7.5203 21.8093 7.55268 22.0439 7.5515 22.3648C7.54797 23.4299 7.55062 25.0411 7.55945 27.1984C7.56063 27.5028 7.43286 27.698 7.17615 27.7839Z"
      fill="#FF4529"
    />
    <path
      d="M22.4286 22.0769C22.4762 22.0579 22.5278 22.0509 22.579 22.0566C22.6301 22.0623 22.6791 22.0805 22.7218 22.1096C23.0813 22.3542 23.0495 22.6881 23.0468 23.089C23.0468 23.1008 23.045 24.7123 23.0415 27.9235C23.0406 28.6645 22.7236 28.8173 22.0886 29.1891C20.4883 30.1276 18.988 31.0243 17.5879 31.8792C17.4967 31.9352 17.3942 31.9743 17.2806 31.9967C17.2454 32.0035 17.2088 31.9966 17.1781 31.9773C16.7604 31.7132 16.7374 31.435 16.7357 30.9696C16.7309 30.0346 16.7392 28.4331 16.7604 26.1651C16.7639 25.7606 16.9506 25.4344 17.3203 25.1865C18.9736 24.0782 20.6861 23.1915 21.851 22.4381C22.2043 22.2103 22.3968 22.0898 22.4286 22.0769Z"
      fill="#9C7AEC"
    />
    <path
      d="M14.6982 31.9716C14.6075 31.9763 14.4288 31.9 14.1621 31.7428C12.7708 30.9221 11.2064 30.0062 9.46892 28.9953C8.89927 28.6641 8.8507 28.2207 8.84805 27.6131C8.83392 24.9453 8.83215 23.305 8.84275 22.6921C8.84893 22.3317 9.15539 21.967 9.52721 22.1807C11.976 23.5914 13.654 24.5694 14.5613 25.1146C15.1327 25.4582 15.2325 25.9466 15.2352 26.6407C15.2393 28.0326 15.2405 29.557 15.2387 31.2138C15.2381 31.583 15.0953 31.827 14.8103 31.946C14.7747 31.9606 14.7368 31.9692 14.6982 31.9716Z"
      fill="#FF7900"
    />
  </g>
</svg>
