<svg xmlns="http://www.w3.org/2000/svg" viewBox="0 0 32 32" fill="none">
  <path
    d="M21.6144 12.749C21.5862 12.7589 15.9354 9.9255 15.9354 9.9255L10.4306 12.7146C10.4306 12.7146 2.75 8.84637 2.75 8.83162C2.75 8.81187 15.9579 2.125 15.9579 2.125C15.9579 2.125 29.1545 8.81188 29.1208 8.8415C29.0814 8.88088 21.6875 12.7244 21.6144 12.749Z"
    fill="#F1C40F"
  />
  <path
    d="M15.4307 29.9155C15.3967 30.1986 2.125 23.183 2.125 23.183C2.125 23.183 2.14762 9.75 2.17025 9.75C2.19287 9.75 9.87288 13.6334 9.87288 13.6334V19.2647L15.5 22.1104C15.5 22.1104 15.4534 29.7516 15.4307 29.9155Z"
    fill="#2ECC71"
  />
  <path
    d="M16.5153 29.9103C16.4585 29.925 16.5477 22.633 16.528 22.1263C16.5232 22.0005 22.0388 19.3301 22.0615 19.3054C22.0842 19.2759 22.1069 13.806 22.1069 13.806C22.1069 13.806 29.7348 9.8898 29.7858 9.87505C29.8709 9.84542 29.8765 23.2118 29.8765 23.2118C29.8765 23.2118 16.5607 29.9053 16.5153 29.9103Z"
    fill="#E67E22"
  />
</svg>
