<svg xmlns="http://www.w3.org/2000/svg" fill="none" viewBox="0 0 256 256"><rect width="228" height="228" x="14" y="14" fill="#fff" rx="46"/><path fill="#000" d="M134.575 59.709a36 36 0 0 1 11.588-10.273A35.8 35.8 0 0 1 160.967 45c.444 4.86-.097 9.76-1.589 14.403a36.2 36.2 0 0 1-7.094 12.613 28.4 28.4 0 0 1-10.982 9.19 28.24 28.24 0 0 1-14.042 2.646 31.6 31.6 0 0 1 1.138-12.844 31.5 31.5 0 0 1 6.177-11.299m-5.887 33.782c5.677 0 16.203-7.847 29.939-7.847a37.3 37.3 0 0 1 18.667 4.09 37.6 37.6 0 0 1 14.241 12.811 36.6 36.6 0 0 0-13.365 13.534 36.85 36.85 0 0 0-4.805 18.455 37.8 37.8 0 0 0 6.213 20.599A37.46 37.46 0 0 0 196 168.937s-15.824 44.797-37.205 44.797c-9.818 0-17.451-6.639-27.79-6.639-10.544 0-21.004 6.905-27.815 6.905C83.682 214 59 171.503 59 137.346c0-33.606 20.871-51.237 40.446-51.237 12.728 0 22.599 7.382 29.242 7.382"/></svg>