<svg xmlns="http://www.w3.org/2000/svg" fill="none" viewBox="0 0 256 256"><rect width="228" height="228" x="14" y="14" fill="#fe5d01" rx="46"/><path fill="#fff" d="M158.52 49.15c-1.53-5.07-2.3-7.62-3.8-9.5a12.4 12.4 0 0 0-5.01-3.75c-2.22-.9-4.86-.9-10.12-.9h-24.03c-5.25 0-7.88 0-10.1.9a12.4 12.4 0 0 0-5.01 3.74c-1.5 1.87-2.27 4.4-3.8 9.43L63 160.13a138 138 0 0 1 40.2-13.7l21.54-74.3a3 3 0 0 1 1.01-1.49 2.8 2.8 0 0 1 3.4 0c.5.37.86.9 1.03 1.49l21.8 74.34A138 138 0 0 1 192 160.15zm-28.68 123.8c12.93 0 24.15-3.24 29.77-8a24 24 0 0 1 1.16 7.37 24 24 0 0 1-2.96 11.52c-3.6 6.56-8.82 9.84-13.53 12.78-5.92 3.7-11 6.9-11 15.45a18 18 0 0 0 1.84 7.93 21.6 21.6 0 0 1-13.46-19.9v-.53c.01-5.92.02-13.2-8.44-13.2a9 9 0 0 0-3.42.67 9 9 0 0 0-2.9 1.91 9 9 0 0 0-1.94 2.87 9 9 0 0 0-.68 3.37c-9.5-9.38-8.67-22.87-8.67-22.87 0-2.75.28-7.05 1.54-10.81 3.53 6.56 16.83 11.43 32.69 11.43"/></svg>