<svg xmlns="http://www.w3.org/2000/svg" fill="none" viewBox="0 0 256 256"><rect width="228" height="228" x="14" y="14" fill="#fe5d01" rx="46"/><path fill="#fff" d="M158.519 49.154c-1.527-5.078-2.294-7.62-3.798-9.503a12.36 12.36 0 0 0-5.011-3.748C147.487 35 144.854 35 139.595 35h-24.03c-5.255 0-7.888 0-10.104.897a12.4 12.4 0 0 0-5.013 3.742c-1.497 1.876-2.264 4.4-3.792 9.433L63 160.13a138.4 138.4 0 0 1 40.201-13.696l21.535-74.299a2.86 2.86 0 0 1 1.018-1.49 2.816 2.816 0 0 1 3.402-.003c.491.37.85.893 1.022 1.487l21.796 74.342A138.4 138.4 0 0 1 192 160.147zm-28.679 123.79c12.926 0 24.149-3.237 29.772-7.987a23.9 23.9 0 0 1 1.156 7.362 23.86 23.86 0 0 1-2.953 11.521c-3.599 6.564-8.828 9.838-13.536 12.783l-.003.002c-5.918 3.704-11.003 6.887-11.003 15.449a17.9 17.9 0 0 0 1.846 7.926c-7.9-3.243-13.455-10.933-13.455-19.909v-.522c.006-5.916.011-13.197-8.447-13.197a9 9 0 0 0-3.419.671 8.9 8.9 0 0 0-2.898 1.911 8.8 8.8 0 0 0-1.937 2.861 8.7 8.7 0 0 0-.68 3.374c-9.505-9.383-8.675-22.87-8.675-22.87 0-2.752.283-7.052 1.543-10.812 3.527 6.56 16.828 11.437 32.689 11.437"/></svg>