<svg xmlns="http://www.w3.org/2000/svg" fill="none" viewBox="0 0 256 256"><rect width="228" height="228" x="14" y="14" fill="#fa465b" rx="46"/><path fill="#fff" fill-rule="evenodd" d="M179.045 40.03c-.603.056-5.959 1.007-6.603 1.139L98.299 56.155l-.028.007c-1.933.41-3.45 1.096-4.622 2.082-1.413 1.187-2.196 2.867-2.494 4.824a17 17 0 0 0-.167 2.513v92.955c0 2.173-.173 4.283-1.642 6.081s-3.284 2.339-5.412 2.769l-4.843.979c-6.125 1.235-10.11 2.075-13.72 3.477-3.45 1.34-6.035 3.048-8.093 5.213-4.082 4.283-5.738 10.093-5.17 15.534.486 4.644 2.571 9.086 6.154 12.37 2.418 2.221 5.44 3.907 9 4.622 3.694.743 7.63.486 13.381-.68 3.063-.618 5.932-1.582 8.662-3.2a21.8 21.8 0 0 0 6.825-6.323c1.815-2.603 2.986-5.497 3.63-8.572.666-3.172.825-6.039.825-9.204v-80.621c0-4.318 1.22-5.456 4.698-6.303 0 0 61.629-12.452 64.505-13.015 4.012-.77 5.903.375 5.903 4.588v55.037c0 2.179-.02 4.386-1.503 6.191-1.469 1.798-3.285 2.339-5.412 2.77l-4.843.978c-6.126 1.236-10.11 2.076-13.72 3.478-3.451 1.339-6.036 3.047-8.094 5.213-4.081 4.282-5.883 10.092-5.314 15.534.485 4.643 2.716 9.086 6.298 12.369a18.7 18.7 0 0 0 9.001 4.581c3.694.743 7.629.479 13.381-.68 3.062-.618 5.931-1.541 8.661-3.158a21.8 21.8 0 0 0 6.826-6.324c1.815-2.603 2.986-5.497 3.63-8.572.666-3.172.693-6.039.693-9.204V46.597c.014-4.276-2.238-6.913-6.25-6.566" clip-rule="evenodd"/></svg>