<svg xmlns="http://www.w3.org/2000/svg" fill="none" viewBox="0 0 256 256"><rect width="228" height="228" x="14" y="14" fill="#f5da55" rx="46"/><path fill="#1b1b1d" d="M111.744 62.283a146 146 0 0 1-15.928 10v1.003a4.3 4.3 0 0 0 1.573-.613c.688 0 1.12.207 1.12.88l1.118-.612h.56v.479a61.3 61.3 0 0 1-11.198 8.67l.615.952h-.56l-1.17-.401c0 .345-.48.557-1.572.612v.558l1.226 1.353a4.4 4.4 0 0 1-1.618-.35 10.7 10.7 0 0 0-4.131 1.852 10.6 10.6 0 0 0-2.982 3.396l.616.953a14.6 14.6 0 0 1 3.548-2.786l.134 1.487a4.8 4.8 0 0 0-1.572.613l1.304 1.906a38.2 38.2 0 0 1 8.12-6.736c1.495.4 2.239.819 2.239 1.354h1.12a86.9 86.9 0 0 1 23.784-12.815v1.031c-1.494 2.179-2.456 3.265-2.994 3.343a4.13 4.13 0 0 0 .75 1.967 182 182 0 0 1-10.633 26.826A756 756 0 0 1 64 192.67c.103.532.312 1.038.616 1.488a14.4 14.4 0 0 0 5.272-1.967h.615v1.031h1.035l1.153-.791c0 .345.403.479 1.12.401v1.031a9.1 9.1 0 0 1-1.78 4.696 24.4 24.4 0 0 0-3.62 7.956V207h1.034a65.4 65.4 0 0 0 10.18-14.636 164 164 0 0 0 29.942-11.238 28.13 28.13 0 0 0 15.793-5.382v-.557l-2.602.747h-.616v-.557a23.8 23.8 0 0 0 10.477-3.399c9.912-7.616 17.349-12.992 22.453-16.201 15.671-11.433 23.041-22.459 22.157-32.933a61.7 61.7 0 0 0-10.331-12.859c-.135-1.487 2.238-3.471 7.035-6.201l13.605-11.923A35.1 35.1 0 0 0 193 73.086l-.285-2.028c-.56-6.05-4.925-10.954-13.264-14.692a51.7 51.7 0 0 0-26.421-5.248 162.5 162.5 0 0 0-41.224 11.142zm11.977 42.799c1.035-5.571 2.188-8.775 3.486-9.521l11.35-25.339c-.134-1.566 2.239-2.786 7.247-3.605l1.646-.133.134 1.487c4.925-.746 7.936-1.164 9.089-1.298 8.954-.746 13.667 1.03 14.086 5.438h1.036l-.207-2.591h1.119a6.8 6.8 0 0 1 2.832 2.087 6.8 6.8 0 0 1 1.405 3.217 7.93 7.93 0 0 1-2.323 5.304c-.688 0-1.119-.401-1.17-1.488h-1.119l-.269 3.07c-4.578 6.809-7.835 10.285-9.911 10.43q-2.77 3.771-3.487 3.9a62.6 62.6 0 0 1-11.752 8.719 153.7 153.7 0 0 0-23.595 9.121 3.93 3.93 0 0 0-2.189-.346v-.969a12.58 12.58 0 0 1 2.664-7.449zM86.784 85.9v.48a4.8 4.8 0 0 0-1.573.612h-.56v-.958zm32.901-.758.135 1.488c-.482 0-1.17.746-1.976 2.178v-1.036a5.04 5.04 0 0 0 1.494-2.652zm-5.036 10.586.207 2.039h-.56l-.162-2.028zm-1.304 3.683c-.135 1.671-.56 2.59-1.495 2.652h-.559c.521-.77.827-1.664.884-2.591zm-2.239 5.304v.479l-.957 1.638h-1.035v-.452c.216.027.435.002.639-.074a1.354 1.354 0 0 0 .855-1.564h.492zm-2.323 4.769-.268 2.518h-.56l-.207-2.518zm11.977 7.616v.953l-2.127.206v-.953zm-10.169 14.58a120.6 120.6 0 0 0 29.046-8.569l3.218-.267a18.68 18.68 0 0 1 14.971 3.816l.207 2.039c-2.457 7.082-5.194 11.143-8.126 12.458l-13.667 10.82a134 134 0 0 1-16.465 10.073 122.6 122.6 0 0 1-30.221 13.817h-.616c.56-1.905 7.723-16.603 21.675-44.248zm14.758-5.783v.479l-2.188.206v-.479zm-34.044 32.871c-.688 3.471-1.494 5.249-2.188 5.304v-.479a5.78 5.78 0 0 1 2.239-4.83zm13.667 19.194a175.4 175.4 0 0 0 32.678-17.021v.953c0 .401-1.494 1.671-4.578 3.95a83 83 0 0 0-16 9.048c-9.85 3.399-14.702 5.516-14.624 6.335a165 165 0 0 0-17.232 7.554 6.3 6.3 0 0 1-2.798-.746 4.44 4.44 0 0 1 .533-2.538 4.46 4.46 0 0 1 1.863-1.813 8.7 8.7 0 0 1 4.37.685 42.3 42.3 0 0 1 8.474-2.724v-1.031l-3.219.267a46 46 0 0 1 9.369-4.351l1.645-.134v.518c-2.736.207-4.309 1.115-4.656 2.519a.9.9 0 0 0 .34.716.9.9 0 0 0 .779.164 13.2 13.2 0 0 0 2.995-2.312zm-16.79-12.369v.479a.95.95 0 0 1-.534 1.078.95.95 0 0 1-.422.087v-.479a1 1 0 0 1 .188-.753 1 1 0 0 1 .668-.401zm25.571 6.942a24.3 24.3 0 0 0-7.32 3.204h-.56v-1.031a10.4 10.4 0 0 0 6.716-3.07 1.04 1.04 0 0 1 .792.216 1.02 1.02 0 0 1 .378.726zm-26.589 7.416 1.645-.134v.557a4.3 4.3 0 0 0-1.572.613h-1.03a1.18 1.18 0 0 1 .957-1.036"/></svg>