<svg xmlns="http://www.w3.org/2000/svg" fill="none" viewBox="0 0 256 256"><rect width="228" height="228" x="14" y="14" fill="#ffd539" rx="46"/><path fill="#fff" d="M204.309 125.07c-16.758 14.076-50.006 18.767-65.674 19.93-3.268-24.532-5.036-55.399 29.489-70 4.444 25.194 26.421 36.678 36.876 38.893z"/><path fill="#1e1e1e" fill-rule="evenodd" d="M143.794 116.249c0 10.625 2.425 19.306 6.43 26.217 16.084-2.106 32.626-6.276 47.66-15.397 4.796-2.825 3.385-9.319-1.213-11.525-11.241-4.787-26.351-16.038-31.016-36.081-12.615 7.309-21.861 19.942-21.861 36.786m65.781-40.982c-12.144-4.626-26.627-3.791-38.907 1.645 3.857 18.895 18.172 29.415 28.442 33.673 2.838-2.519 7.253-4.365 11.169-2.087 8.449 7.046.613 16.932-4.816 20.056-16.813 9.674-33.535 15.823-51.86 18.884 14.044 17.749 39.952 20.463 55.972 12.587-2.626 10.596-11.958 19.559-27.077 22.525-.284 4.639 4.872 15.035 9.517 19.159-10.437 3.985-22.475-1.429-29.118-5.68-2.542 3.667-3.654 14.856-3.654 21.855-7.841 0-18.154-11.606-20.679-16.039-3.679 2.192-9.997 13.555-11.139 20.155-9.901-5.435-13.265-17.896-12.925-23.452-4.402 3.16-17.16 11.029-23.058 13.746-2.861-6.794-1.649-15.316 0-24.046-2.479 1.335-20.758 3.059-28.062 1.335 3.685-4.27 8.69-13.869 10.902-18.329-7.766-.493-21.516-5.526-28.13-12.39 5.628-2.554 11.132-6.235 17.228-12.451l-.372-.202c-7.742-4.207-19.245-10.459-22.008-21.247 7.257-.527 16.112-1.557 20.737-3.688-5.895-3.478-15.585-14.465-13.623-27.665 4.817 2.368 15.052 4.303 20.017 3.334-4.312-9.699-7.191-19.066-2.948-31.994 4.58 5.317 13.435 10.318 17.19 11.695-.979-9.545 3.373-27.09 9.162-31.813 2.392 5.448 8.5 14.262 12.568 16.408 1.009-7.16 10.091-23.983 18.076-26.241 0 5.82 3.191 16.309 5.752 19.51 5.975-6.331 26.17-16.84 42.113-13.23-5.367 3.957-8.437 7.725-9.857 11.367 12.095 0 32.029 3.992 49.388 22.62m-44.673 27.755c-3.895.737-5.813-4.712-3.918-7.575-5.79 1.11-9.373 7.63-7.02 13.245 2.042 4.875 7.603 7.127 12.421 5.028 4.818-2.097 7.068-7.75 5.026-12.625a9.46 9.46 0 0 0-3.9-4.5c.987 2.366.196 5.896-2.609 6.427" clip-rule="evenodd"/></svg>