<svg xmlns="http://www.w3.org/2000/svg" fill="none" viewBox="0 0 256 256"><rect width="228" height="228" x="14" y="14" fill="#394aab" rx="46"/><path fill="#fff" d="M132.832 48c29.532 0 55.317 16.073 69.127 39.963l-.135-.23-34.746 20.049c-6.846-11.615-19.396-19.454-33.793-19.616l-.453-.002c-21.954 0-39.753 17.835-39.753 39.835 0 7.195 1.914 13.94 5.243 19.764 6.852 11.988 19.733 20.074 34.51 20.074 14.867 0 27.822-8.189 34.64-20.304l-.166.29L202 167.965c-13.659 23.688-39.09 39.711-68.279 40.03l-.889.005c-29.626 0-55.483-16.172-69.259-40.189C56.848 156.087 53 142.494 53 127.999 53 83.818 88.741 48 132.832 48"/></svg>