<svg xmlns="http://www.w3.org/2000/svg" fill="none" viewBox="0 0 256 256"><rect width="228" height="228" x="14" y="14" fill="#9f58fa" rx="46"/><path fill="#fff" d="M162.23 73a34.2 34.2 0 0 1 34.1 34.25v11.42l9.94 19.83a7 7 0 0 1-.01 6.22l-9.92 19.61v11.42a34.2 34.2 0 0 1-34.1 34.25H94.01a34.2 34.2 0 0 1-34.1-34.25v-11.42l-10.14-19.55a7 7 0 0 1-.02-6.34l10.15-19.77v-11.42A34.2 34.2 0 0 1 94.01 73zm-60.06 38.4c-8.6 0-15.57 6.97-15.57 15.57v27.68a15.57 15.57 0 0 0 31.14 0v-27.68c0-8.6-6.97-15.57-15.57-15.57m50.18 0c-8.6 0-15.57 6.97-15.57 15.57v27.68a15.57 15.57 0 0 0 31.14 0v-27.68c0-8.6-6.97-15.57-15.57-15.57"/><path fill="#fff" d="M128 83a19 19 0 1 0 0-38 19 19 0 0 0 0 38"/></svg>