<svg xmlns="http://www.w3.org/2000/svg" fill="none" viewBox="0 0 256 256"><rect width="228" height="228" x="14" y="14" fill="#9f58fa" rx="46"/><path fill="#fff" d="M162.232 73c18.837 0 34.107 15.334 34.107 34.25v11.417l9.929 19.831a6.92 6.92 0 0 1-.012 6.219l-9.917 19.616v11.417c0 18.916-15.27 34.25-34.107 34.25H94.018c-18.837 0-34.107-15.334-34.107-34.25v-11.417l-10.135-19.554a6.92 6.92 0 0 1-.013-6.343l10.148-19.769V107.25C59.91 88.334 75.18 73 94.018 73zm-60.058 38.402c-8.6 0-15.571 6.97-15.571 15.568v27.676c0 8.599 6.971 15.569 15.571 15.569s15.57-6.97 15.57-15.569V126.97c0-8.598-6.971-15.568-15.57-15.568m50.172 0c-8.6 0-15.571 6.97-15.571 15.568v27.676c0 8.599 6.971 15.569 15.571 15.569s15.57-6.97 15.57-15.569V126.97c0-8.598-6.971-15.568-15.57-15.568"/><path fill="#fff" d="M128 83c10.493 0 19-8.507 19-19s-8.507-19-19-19-19 8.507-19 19 8.507 19 19 19"/></svg>