<svg xmlns="http://www.w3.org/2000/svg" fill="none" viewBox="0 0 256 256"><rect width="228" height="228" x="14" y="14" fill="#f07" rx="46"/><path fill="#fff" d="M128.2 42C78.49 42 38 82.093 38 131.007v.401l15.234 8.82h.4c9.622-6.414 21.248-8.82 32.874-6.815 8.018 1.603 15.635 5.212 21.648 10.825l2.806 2.405 1.604-3.207c1.603-3.208 3.207-6.014 4.81-8.821.802-1.202 1.604-2.004 2.406-3.207l1.603-2.005-2.004-1.603c-8.419-6.816-18.441-11.628-29.265-13.632-10.423-2.005-20.847-1.604-30.468 1.604 7.216-31.674 35.279-54.126 68.552-54.126 18.842 0 36.482 7.216 49.711 20.447 9.621 9.222 16.036 20.849 18.842 33.679-6.014-2.005-12.428-2.807-18.842-2.807h-1.203c-2.405 0-4.81.401-7.617.401h-.401c-.801 0-2.004.401-2.806.401-1.603.401-2.806.401-4.41.802l-1.202.401-3.608 1.202h-.401c-2.806.802-5.212 2.005-8.018 3.208-1.203.401-2.405 1.203-3.608 2.005h-.401c-6.013 3.608-11.626 8.018-16.036 13.631l-.4.802c-1.203 1.604-2.005 2.807-2.807 3.609-.801.801-1.202 2.004-2.004 3.207l-.401.802c-.802 1.203-1.203 2.405-1.604 3.207v.401c-1.202 2.406-2.405 5.212-3.207 8.019v.401c-2.004 6.415-3.207 13.231-3.207 20.447v7.618c0 .802.401 2.005.401 2.807 2.004 9.622 6.414 18.843 13.229 27.263l.401.401.401-.401c2.806-3.207 9.221-13.231 10.022-19.245-3.207-6.014-4.81-12.83-4.81-19.244 0-22.453 17.639-41.296 40.49-42.499h1.603c9.221-.401 18.441 2.405 26.058 7.617h.401l15.234-8.82v-.401c0-23.655-9.22-46.107-26.459-62.946C174.704 51.22 152.254 42 128.2 42"/></svg>