<svg xmlns="http://www.w3.org/2000/svg" fill="none" viewBox="0 0 256 256"><rect width="228" height="228" x="14" y="14" fill="#d75d2c" rx="46"/><path fill="#fff" d="M211.958 117.994S193.785 94.863 170.94 93.54c-14.742-.867-18.314 1.094-18.954 2.555-.915-7.573-7.416-42.66-52.328-50.095 5.733 41.035 29.412 30.343 43.356 58.627 0 0-23.531-31.846-62.217-20.121 0 0 14.1 29.474 55.807 35.496 0 0 3.342 11.406 4.349 13.413 0 0-64.231-33.351-83.734 30.66-14.515-3.274-19.383 12.414-2.7 23.131 0 0 2.838-11.224 9.75-14.554 0 0-14.833 16.471 2.61 36.197h62.605c1.512-2.495 8.208-15.622-8.351-25.558 11.688-.166 21.203 21.786 31.439 25.709h14.887c.504-1.219 1.557-4.868-.916-8.152-3.813-4.355-12.16-3.765-12.086-11.818 2.883-37.458 59.295-25.955 57.501-71.036"/></svg>