<svg xmlns="http://www.w3.org/2000/svg" fill="none" viewBox="0 0 256 256"><rect width="228" height="228" x="14" y="14" fill="#2f2625" rx="46"/><path fill="#fff" d="M112.12 74.454c.138.842-.28 1.54-1.683 2.245a19 19 0 0 0-8.965-1.26c-3.504.28-6.447 1.403-6.05 3.787.55 2.383 3.921 3.787 9.944 3.225 14.708-1.26 14.57-11.217 36.143-13.177 16.809-1.541 26.198 3.644 27.458 9.952.979 4.904-3.08 9.67-15.269 10.656-10.786.98-17.09-1.965-17.651-4.904-.28-1.541.55-3.787 5.743-4.349.55 2.384 3.503 4.905 10.505 4.206 5.077-.43 9.252-2.28 8.702-5.031-.55-2.945-5.886-4.624-14.301-3.925-17.09 1.541-21.292 10.937-35.863 12.198-10.34.952-18.745-2.83-19.867-8.438-.418-2.103-.418-7.007 10.506-7.993 5.605-.418 10.087.556 10.648 2.808m-54.635 58.598a29.07 29.07 0 0 0-6.44 19.904 23.16 23.16 0 0 0 9.102 16.821 22 22 0 0 0 18.493 4.348 63 63 0 0 0 8.25-2.664 23.3 23.3 0 0 1-15.132-5.609 22.72 22.72 0 0 1-9.526-15.56 20.87 20.87 0 0 1 3.377-16.546 21.87 21.87 0 0 1 15.132-8.257 26.42 26.42 0 0 1 17.65 5.185 38 38 0 0 0-4.763-4.766 22.54 22.54 0 0 0-19.053-3.787 28.6 28.6 0 0 0-17.09 10.931m75.091-32.387a224.5 224.5 0 0 1-45.834-4.348C74.294 93.234 67.71 89.87 67.71 85.528c0-1.822.842-3.363 3.361-5.185-7.844 3.082-12.046 5.609-12.046 9.534.418 4.348 7.426 8.69 21.716 12.054a216.8 216.8 0 0 0 51.412 5.185 214.3 214.3 0 0 0 51.395-5.185c14.301-3.363 21.155-7.85 21.155-12.054 0-3.083-3.08-6.055-8.685-8.257a4.74 4.74 0 0 1 2.244 3.787c0 4.349-6.446 7.85-19.471 10.794a216 216 0 0 1-46.215 4.464m51.556 12.054a232.6 232.6 0 0 1-51.413 5.185 242.6 242.6 0 0 1-51.835-5.185c-12.046-3.082-18.493-6.451-20.731-9.951a127.7 127.7 0 0 0 14.3 42.058c5.182 7.849 10.369 14.719 15.55 22.149a54.4 54.4 0 0 1 4.764 13.04 25.08 25.08 0 0 0 14.301 9.534 58.3 58.3 0 0 0 22.975 3.363h.841a65.1 65.1 0 0 0 23.652-3.363 26.8 26.8 0 0 0 13.867-9.534h.418a52.8 52.8 0 0 1 4.345-13.04c5.181-7.43 10.368-14.311 15.549-22.149A135.6 135.6 0 0 0 205 102.768c-2.8 3.924-9.246 7.309-20.874 9.957z"/></svg>