<svg xmlns="http://www.w3.org/2000/svg" fill="none" viewBox="0 0 256 256"><rect width="228" height="228" x="14" y="14" fill="#262626" rx="46"/><path fill="#a7b2b5" fill-rule="evenodd" d="M18.69 39.763C14 49.338 14 61.785 14 86.68v82.64c0 24.895 0 37.342 4.69 46.917a46 46 0 0 0 21.073 21.072C49.338 242 61.785 242 86.68 242h82.64c24.895 0 37.342 0 46.917-4.691a46 46 0 0 0 21.072-21.072C242 206.662 242 194.215 242 169.32V86.68c0-24.895 0-37.342-4.691-46.917a46 46 0 0 0-21.072-21.072C206.662 14 194.215 14 169.32 14H86.68c-24.895 0-37.342 0-46.917 4.69A46 46 0 0 0 18.69 39.764m10 10C24 59.338 24 71.785 24 96.68v62.64c0 24.895 0 37.342 4.69 46.917a46 46 0 0 0 21.073 21.072C59.338 232 71.785 232 96.68 232h62.64c24.895 0 37.342 0 46.917-4.691a46 46 0 0 0 21.072-21.072C232 196.662 232 184.215 232 159.32V96.68c0-24.895 0-37.342-4.691-46.917a46 46 0 0 0-21.072-21.072C196.662 24 184.215 24 159.32 24H96.68c-24.895 0-37.342 0-46.917 4.69A46 46 0 0 0 28.69 49.764" clip-rule="evenodd"/><path fill="#000" fill-rule="evenodd" d="M26.758 48.134C22 57.847 22 70.474 22 95.728v63.544c0 25.254 0 37.881 4.758 47.594a46.66 46.66 0 0 0 21.376 21.376C57.847 233 70.474 233 95.728 233h63.544c25.254 0 37.881 0 47.594-4.758a46.66 46.66 0 0 0 21.376-21.376C233 197.153 233 184.526 233 159.272V95.728c0-25.254 0-37.88-4.758-47.594a46.66 46.66 0 0 0-21.376-21.376C197.153 22 184.526 22 159.272 22H95.728c-25.254 0-37.88 0-47.594 4.758a46.66 46.66 0 0 0-21.376 21.376M36.903 58.28c-4.759 9.713-4.759 22.34-4.759 47.594v43.255c0 25.253 0 37.88 4.759 47.593a46.66 46.66 0 0 0 21.376 21.376c9.713 4.759 22.34 4.759 47.594 4.759h43.255c25.253 0 37.88 0 47.593-4.759a46.66 46.66 0 0 0 21.376-21.376c4.759-9.713 4.759-22.34 4.759-47.593v-43.256c0-25.253 0-37.88-4.759-47.593a46.66 46.66 0 0 0-21.376-21.376c-9.713-4.759-22.34-4.759-47.593-4.759h-43.256c-25.253 0-37.88 0-47.593 4.759A46.66 46.66 0 0 0 36.903 58.28" clip-rule="evenodd"/><path fill="#fff" d="M117.258 129.95c-.255-.662-.339-2.567-.17-4.306l.255-3.23 22.329-.248L162 122l-.255 4.306-.254 4.39-21.904.248c-18.169.166-21.904 0-22.329-.994m-52.086-21.238.259-5.373 13.786-6.993c7.582-3.752 13.872-7.249 13.958-7.675.172-.342-6.117-3.838-13.958-7.761L65 73.916V63l19.3 10.575 19.301 10.575.345 4.435c.172 3.582 0 4.52-1.465 5.373C98.861 96.176 65.948 114 65.431 114c-.259 0-.431-2.388-.259-5.288"/></svg>