<svg xmlns="http://www.w3.org/2000/svg" fill="none" viewBox="0 0 256 256"><rect width="228" height="228" x="14" y="14" fill="#00599c" rx="46"/><path fill="#fff" d="M112.491 202C71.416 202 38 168.58 38 127.5S71.416 53 112.491 53c26.503 0 51.222 14.264 64.507 37.227l-32.237 18.657c-6.649-11.494-19.016-18.634-32.27-18.634-20.538 0-37.246 16.71-37.246 37.25s16.708 37.25 37.246 37.25c13.255 0 25.622-7.14 32.271-18.636L177 164.771C163.715 187.735 138.995 202 112.491 202"/><path fill="#fff" d="M187 123.334h-8.334V115h-8.332v8.334H162v8.332h8.334V140h8.332v-8.334H187zm31 0h-8.334V115h-8.332v8.334H193v8.332h8.334V140h8.332v-8.334H218z"/></svg>