<svg xmlns="http://www.w3.org/2000/svg" fill="none" viewBox="0 0 256 256"><rect width="228" height="228" x="14" y="14" fill="#953cad" rx="46"/><path fill="#fff" d="M180.125 106v10.5h10.75V106h5.375v10.5H207v5.25h-10.75v10.5H207v5.25h-10.75V148h-5.375v-10.5h-10.75V148h-5.375v-10.5H164v-5.25h10.75v-10.5H164v-5.25h10.75V106zm10.75 15.75h-10.75v10.5h10.75z"/><path fill="#fff" d="M122.474 53c27.55 0 51.604 14.968 64.488 37.216l-.126-.215-32.415 18.671c-6.386-10.817-18.094-18.117-31.524-18.267l-.423-.002c-20.481 0-37.085 16.609-37.085 37.096a36.93 36.93 0 0 0 4.891 18.406c6.392 11.163 18.409 18.693 32.194 18.693 13.87 0 25.955-7.626 32.315-18.908l-.154.27L187 164.717c-12.742 22.06-36.466 36.981-63.696 37.278l-.83.005c-27.637 0-51.76-15.06-64.61-37.426C51.59 153.656 48 140.998 48 127.499 48 86.355 81.343 53 122.474 53"/></svg>