<svg xmlns="http://www.w3.org/2000/svg" fill="none" viewBox="0 0 256 256"><path fill="#000" d="M82.97 205.805V169.61H14V150.8l34.656-.114 34.599-.171.171-68.229L83.54 14h20.52l.114 68.229.171 68.286 68.856.171L242 150.8v18.81H104.06V242H82.97z"/><path fill="#b51a00" d="M49.51 168.014c19.49.114 35.39.342 35.34.627-.113.228-.17 16.815-.17 36.879v36.477c-23.569-.003-35.602-.124-44.917-4.687a46 46 0 0 1-21.073-21.073C14 206.662 14 194.215 14 169.32v-1.421zM242 169.32c0 24.895 0 37.342-4.69 46.917a46 46 0 0 1-21.073 21.073C206.662 242 194.215 242 169.32 242h-66.97v-74.101H242z"/><path fill="#fff" d="m85.136 83.14-.171 69.085-35.454.171L14 152.51V86.68c0-24.895 0-37.342 4.69-46.917A46 46 0 0 1 39.763 18.69c9.39-4.6 21.542-4.687 45.486-4.689z"/><path fill="#f5ec00" d="M169.32 14c24.895 0 37.342 0 46.917 4.69a46 46 0 0 1 21.073 21.073C242 49.338 242 61.785 242 86.68v65.83h-69.426c-38.18 0-69.639-.171-69.825-.399-.228-.171-.398-31.35-.398-69.255V14z"/></svg>