<svg xmlns="http://www.w3.org/2000/svg" fill="none" viewBox="0 0 256 256"><rect width="228" height="228" x="14" y="14" fill="#1c63ed" rx="46"/><path fill="#fff" d="M218.229 112.16c-.502-.421-5.037-3.865-14.772-3.865a47 47 0 0 0-7.639.671c-1.845-12.858-12.507-19.076-12.927-19.429l-2.602-1.512-1.679 2.438a35.9 35.9 0 0 0-4.617 10.756c-1.767 7.313-.671 14.201 3.023 20.083-4.451 2.522-11.665 3.109-13.178 3.18H44.645a5.62 5.62 0 0 0-3.997 1.659 5.62 5.62 0 0 0-1.638 4.003 85.2 85.2 0 0 0 5.214 30.674c4.115 10.757 10.24 18.758 18.116 23.612 8.915 5.461 23.437 8.57 39.803 8.57 7.405.001 14.794-.674 22.076-2.017a91 91 0 0 0 28.876-10.503 79 79 0 0 0 19.643-16.133c9.485-10.672 15.109-22.609 19.223-33.207h1.679c10.326 0 16.706-4.119 20.231-7.648a22.4 22.4 0 0 0 5.373-7.899l.756-2.183z"/><path fill="#fff" d="M55.726 121.065h15.946a1.414 1.414 0 0 0 1.414-1.413v-14.3a1.414 1.414 0 0 0-1.414-1.413H55.726a1.415 1.415 0 0 0-1.413 1.413v14.286a1.47 1.47 0 0 0 1.413 1.413m21.991.014h15.95a1.414 1.414 0 0 0 1.413-1.413v-14.3a1.414 1.414 0 0 0-1.413-1.413h-15.95a1.415 1.415 0 0 0-1.414 1.413v14.286a1.47 1.47 0 0 0 1.414 1.413m22.411.014h15.943a1.41 1.41 0 0 0 1.414-1.413v-14.3a1.41 1.41 0 0 0-1.414-1.413h-15.943a1.414 1.414 0 0 0-1.414 1.413v14.286a1.37 1.37 0 0 0 .866 1.319c.174.069.36.101.548.094m22.079.014h15.95a1.41 1.41 0 0 0 1.414-1.413v-14.3a1.41 1.41 0 0 0-1.414-1.413h-15.95a1.416 1.416 0 0 0-1.414 1.413v14.286a1.41 1.41 0 0 0 1.414 1.413m-44.49-20.404h15.95a1.47 1.47 0 0 0 1.413-1.413v-14.3a1.413 1.413 0 0 0-1.413-1.413h-15.95a1.414 1.414 0 0 0-1.414 1.413V99.22a1.53 1.53 0 0 0 1.414 1.413m22.411.014h15.943a1.47 1.47 0 0 0 1.414-1.413v-14.3a1.41 1.41 0 0 0-1.414-1.413h-15.943a1.414 1.414 0 0 0-1.414 1.413V99.22a1.413 1.413 0 0 0 1.414 1.413m22.079.014h15.95a1.47 1.47 0 0 0 1.414-1.413v-14.3a1.47 1.47 0 0 0-1.414-1.413h-15.95a1.416 1.416 0 0 0-1.414 1.413V99.22a1.473 1.473 0 0 0 1.414 1.413m0-20.49h15.95a1.41 1.41 0 0 0 1.414-1.412V64.413A1.47 1.47 0 0 0 138.157 63h-15.95a1.416 1.416 0 0 0-1.414 1.413v14.286a1.474 1.474 0 0 0 1.414 1.413m22.242 40.953h15.949a1.414 1.414 0 0 0 1.414-1.413v-14.3a1.414 1.414 0 0 0-1.414-1.413h-15.949a1.415 1.415 0 0 0-1.414 1.413v14.286a1.47 1.47 0 0 0 1.414 1.413"/></svg>