<svg xmlns="http://www.w3.org/2000/svg" fill="none" viewBox="0 0 256 256"><rect width="228" height="228" x="14" y="14" fill="#6caaaa" rx="46"/><path fill="#fff" d="M98.806 68.2a17.14 17.14 0 0 0 6.779 13.687c-17.443 2.708-37.064 16.085-41.616 27.73-6.269-3.437-13.967.235-13.967 6.274-.164 5.73 8.531 10.833 15.469 5.191 1.689 2.177 4.145 4.04 7.114 5.545-.073 2.51-.104 9.751.924 11.1 1.345 1.766 15.973 1.627 16.58.029.338-.888.547-4.721.676-6.796 4.74.195 9.603-.23 14.162-1.352-.802 1.814-1.45 4.872-.907 8.407-15.311 10.33-23.83 32.354-8.354 51.521-9.616 3.44-18.952 8.368-18.598 14.464 13.795-.291 63.827 0 63.827 0 3.06 0 5.966-.404 8.701-1.162C274.83 186.432 148.366 88.408 218 58.561c-80.855 14.717 30.238 117.165-53.264 132.253 20.79-18.356 13.658-74.422-20.46-99.614 8.818-1.56 15.531-9.35 15.531-18.716.263-13.685-16.2-26.231-30.697-14.687C119.815 45.34 99.406 50.7 98.806 68.2"/></svg>