<svg xmlns="http://www.w3.org/2000/svg" fill="none" viewBox="0 0 256 256"><rect width="228" height="228" x="14" y="14" fill="#6d4b7b" rx="46"/><path fill="#fff" d="M138.922 82.78c12.486 27.668 45.886 39.232 42.889 75.289-3.496 42.352-33.34 53.017-49.946 53.771a52.76 52.76 0 0 1-37.075-11.423 53.26 53.26 0 0 1-19.382-33.753C65.756 121.741 108.02 52.85 132.369 43a91.4 91.4 0 0 0 6.553 39.78m-.997 113.814a2.56 2.56 0 0 0-.343-1.973c-3.561-6.639-34.895-9.929-41.483-10.575a49.7 49.7 0 0 0 9.82 7.847 46.5 46.5 0 0 0 16.9 6.283c4.823.73 14.103 1.346 15.112-1.588z"/><path fill="#6d4b7b" d="M137.925 196.594a2.56 2.56 0 0 0-.343-1.973c-3.561-6.639-34.895-9.929-41.483-10.575a49.7 49.7 0 0 0 9.82 7.847 46.5 46.5 0 0 0 16.9 6.283c4.823.73 14.103 1.346 15.112-1.588z"/></svg>