<svg xmlns="http://www.w3.org/2000/svg" fill="none" viewBox="0 0 256 256"><rect width="228" height="228" x="14" y="14" fill="#fff" rx="46"/><path fill="#8cd636" d="m30.87 24.4 36.97 36.97h111.67L132.14 14H86.68c-24.9 0-37.34 0-46.92 4.69a46 46 0 0 0-8.89 5.7"/><path fill="#596277" d="M24.4 225.13a46 46 0 0 1-5.7-8.9c-4.7-9.57-4.7-22.01-4.7-46.91V86.68c0-24.9 0-37.34 4.69-46.92a46 46 0 0 1 5.7-8.89L121.54 128z"/><path fill="#5fb4cb" d="M225.13 231.6a46 46 0 0 1-8.9 5.7c-9.57 4.7-22.01 4.7-46.91 4.7H86.68c-24.9 0-37.34 0-46.92-4.7a46 46 0 0 1-8.89-5.7L128 134.47z"/><path fill="#eea400" d="M242 144.58v24.74c0 24.9 0 37.34-4.7 46.92a46 46 0 0 1-5.7 8.89l-35.07-35.08z"/><path fill="#8cd636" d="M242 123.86v7.77l-51.95 51.95L134.47 128l55.83-55.83z"/><path fill="#5fb4cb" d="M145.08 14h24.24c24.9 0 37.34 0 46.92 4.69a46 46 0 0 1 21.07 21.07C242 49.34 242 61.8 242 86.68v24.24z"/><path fill="#eea400" d="m128 121.53 51-51H77z"/></svg>