<svg xmlns="http://www.w3.org/2000/svg" fill="none" viewBox="0 0 256 256"><rect width="228" height="228" x="14" y="14" fill="#fff" rx="46"/><path fill="#8cd636" d="m30.87 24.398 36.974 36.974H179.51L132.138 14H86.68c-24.895 0-37.342 0-46.917 4.69a46 46 0 0 0-8.892 5.708"/><path fill="#596277" d="M24.398 225.129a46 46 0 0 1-5.707-8.892C14 206.662 14 194.215 14 169.32V86.68c0-24.895 0-37.342 4.69-46.917a46 46 0 0 1 5.708-8.892L121.527 128z"/><path fill="#5fb4cb" d="M225.129 231.602a46 46 0 0 1-8.892 5.707C206.662 242 194.215 242 169.32 242H86.68c-24.895 0-37.342 0-46.917-4.691a46 46 0 0 1-8.891-5.707L128 134.473z"/><path fill="#eea400" d="M242 144.578v24.742c0 24.895 0 37.342-4.691 46.917a46 46 0 0 1-5.707 8.893l-35.077-35.078z"/><path fill="#8cd636" d="M242 123.862v7.765l-51.95 51.95-55.578-55.579 55.832-55.832z"/><path fill="#5fb4cb" d="M145.084 14h24.236c24.895 0 37.342 0 46.917 4.69a46 46 0 0 1 21.072 21.073C242 49.338 242 61.785 242 86.68v24.235z"/><path fill="#eea400" d="m128 121.527 51-51H77z"/></svg>