<svg xmlns="http://www.w3.org/2000/svg" fill="none" viewBox="0 0 256 256"><rect width="228" height="228" x="14" y="14" fill="#59727e" rx="46"/><path fill="#fff" d="M108.859 212.275c-1.523-.652-1.668-1.159-1.668-6.305 0-8.914-.58-11.088-3.119-12.175-2.103-.87-2.176-.798-7.18 4.783-4.643 5.29-5.223 5.725-7.834 5.725-1.596 0-3.99-.652-5.367-1.522-2.322-1.377-2.612-1.884-2.612-4.493 0-1.667.87-5.58 1.886-8.769l1.886-5.653-1.813-1.812-1.813-1.812-6.093 3.334c-7.544 4.059-9.937 4.276-12.984 1.015-1.668-1.885-2.103-3.044-2.103-5.508 0-2.827.508-3.841 4.28-8.625l4.351-5.363-1.233-2.174c-1.088-1.956-1.523-2.174-3.771-1.739-1.378.217-5.368.58-8.777.87l-6.238.434-1.16-3.043c-.725-1.667-1.233-4.276-1.233-5.798 0-2.754.072-2.899 6.963-7.03 6.383-3.841 6.89-4.276 6.455-6.015-.29-1.015-.725-2.175-1.088-2.537-.29-.29-3.989-1.304-8.123-2.174L43 134.367v-12.32l7.47-1.522c4.135-.87 7.834-1.885 8.124-2.174.363-.363.798-1.522 1.088-2.537.436-1.739-.072-2.174-6.455-6.015-6.89-4.131-6.963-4.276-6.963-7.03 0-1.522.508-4.131 1.233-5.798l1.16-3.044 6.6.507c3.628.218 7.617.653 8.85.87 1.813.362 2.32.145 3.046-1.522.508-1.014.87-2.174.87-2.464 0-.362-1.813-2.971-3.989-5.725-3.409-4.349-3.989-5.58-3.989-8.19 0-2.174.508-3.768 1.886-5.508 2.611-3.478 5.44-3.26 13.2.943l6.166 3.333 1.74-1.739 1.669-1.74-1.813-5.362c-1.016-2.9-1.814-6.885-1.814-8.77 0-3.116.218-3.55 2.467-4.928 1.523-.942 3.626-1.522 5.584-1.522 3.047.073 3.337.218 7.834 5.508 4.134 4.856 4.787 5.436 6.528 5 1.015-.289 2.103-.651 2.393-.941.291-.29.726-4.349 1.016-8.987.363-5.87.798-8.552 1.451-8.841 1.958-.725 9.429-1.16 10.299-.58.435.29 2.104 3.84 3.699 7.754 4.28 11.161 6.165 11.161 10.372 0 1.523-3.913 3.119-7.392 3.627-7.754.87-.58 8.341-.145 10.372.58.653.29 1.088 2.898 1.451 9.059.507 8.406.58 8.769 2.321 9.421.943.362 2.031.652 2.393.652.29 0 2.611-2.391 5.15-5.363 4.425-5.145 4.787-5.435 7.834-5.435 2.03-.073 4.061.507 5.585 1.45 2.248 1.376 2.466 1.811 2.466 4.927 0 1.885-.798 5.87-1.814 8.77l-1.813 5.363 1.668 1.739 1.741 1.74 6.165-3.334c7.761-4.204 10.59-4.421 13.201-.943 3.119 4.059 2.611 7.683-1.596 13.118-4.787 6.015-4.787 6.015-3.699 8.552.798 1.884 1.161 2.102 3.119 1.74 1.233-.218 5.222-.653 8.849-.87l6.6-.508 1.161 3.044c.725 1.667 1.233 4.276 1.233 5.798 0 2.826-.072 2.899-6.89 7.102-6.383 3.841-6.891 4.349-6.528 6.015.29 1.015.725 2.102 1.088 2.465.29.289 3.989 1.304 8.123 2.174l7.471 1.522v12.32l-7.471 1.522c-4.134.87-7.833 1.884-8.123 2.174-.363.362-.798 1.522-1.088 2.537-.436 1.739.072 2.174 6.455 6.015 6.891 4.131 6.963 4.276 6.963 7.03 0 1.522-.508 4.131-1.233 5.798l-1.161 3.043-6.237-.434c-3.409-.29-7.399-.653-8.777-.87-2.248-.435-2.683-.217-3.771 1.739l-1.233 2.174 4.352 5.363c3.699 4.639 4.279 5.871 4.279 8.48 0 2.101-.58 3.696-1.886 5.508-2.756 3.551-5.44 3.333-13.201-.87l-6.092-3.334-1.814 1.812-1.813 1.812 1.886 5.653c1.015 3.189 1.886 7.102 1.886 8.769 0 2.609-.291 3.116-2.612 4.493-1.378.87-3.771 1.522-5.222 1.522-2.393.073-3.191-.507-7.833-5.58-4.933-5.363-5.295-5.581-7.254-4.928-2.538.942-2.973 2.609-3.118 11.45-.073 6.088-.146 6.378-1.959 7.03-1.015.435-3.699.725-6.02.725h-4.134l-2.902-7.392c-2.973-7.682-4.424-9.494-6.6-8.117-.725.435-2.611 4.131-4.134 8.117L119.231 213l-4.352-.072c-2.466 0-5.149-.29-6.02-.653m26.257-32.975c18.568-3.261 33.8-15.509 40.618-32.758 2.829-7.247 2.829-7.247.435-9.638l-2.103-2.175h-18.641c-20.382 0-22.122.29-24.951 4.276-3.627 5.001-20.454 35.077-20.237 36.092.871 4.421 12.403 6.377 24.879 4.203m-38.225-13.915c1.886-1.594 21.18-35.511 21.18-37.178 0-1.884-20.454-37.034-22.268-38.193-1.378-.942-1.74-.798-4.206 1.304-8.85 7.827-16.32 24.641-16.32 36.889 0 10.943 6.02 26.09 13.563 33.99 4.497 4.71 5.73 5.145 8.051 3.188m77.755-44.425c.798-.435 1.886-1.667 2.466-2.682.87-1.739.798-2.392-.363-5.798-5.947-17.32-20.309-30.873-37.644-35.439-9.429-2.464-24.733-1.015-27.707 2.682-.725.87-1.306 1.739-1.306 2.029 0 .58 15.812 28.554 19.004 33.555 3.771 6.015 5.222 6.377 26.184 6.377 10.952 0 18.568-.29 19.366-.724"/></svg>