<svg xmlns="http://www.w3.org/2000/svg" fill="none" viewBox="0 0 256 256"><rect width="228" height="228" x="14" y="14" fill="#fff" rx="46"/><path fill="#8080f2" d="m93.385 105.993 34.23-19.624a2.79 2.79 0 0 1 2.769 0l34.231 19.624a2.75 2.75 0 0 1 1.385 2.382v39.25c0 .981-.529 1.89-1.385 2.382l-34.231 19.625a2.79 2.79 0 0 1-2.769 0l-34.23-19.625A2.75 2.75 0 0 1 92 147.625v-39.25c0-.983.529-1.89 1.385-2.382"/><path fill="#4b32c3" d="m216.887 123.949-40.847-71.46c-1.484-2.583-4.225-4.489-7.192-4.489H87.153c-2.968 0-5.71 1.906-7.193 4.49l-40.847 71.3a8.54 8.54 0 0 0 0 8.431l40.847 70.873c1.484 2.584 4.225 3.905 7.193 3.905h81.695c2.966 0 5.708-1.281 7.191-3.866l40.847-70.989c1.485-2.583 1.485-5.612.001-8.196m-33.824 34.362c0 1.051-.629 2.023-1.534 2.548l-52.031 30.187a2.95 2.95 0 0 1-2.943 0l-52.07-30.187c-.906-.525-1.539-1.497-1.539-2.548V97.937c0-1.05.624-2.022 1.53-2.548l52.028-30.186a2.94 2.94 0 0 1 2.942 0l52.074 30.186c.906.526 1.543 1.497 1.543 2.548z"/></svg>