<svg xmlns="http://www.w3.org/2000/svg" fill="none" viewBox="0 0 256 256"><rect width="228" height="228" x="14" y="14" fill="#e84d32" rx="46"/><path fill="#fff" d="m68.828 14 42.162 39.254a21.33 21.33 0 0 1 11.897-.59 21.53 21.53 0 0 1 10.398 5.89 22 22 0 0 1 5.741 10.582c.899 4.003.67 8.18-.66 12.058l31.292 31.727a21.35 21.35 0 0 1 14.413.128 21.7 21.7 0 0 1 11.135 9.28 22.18 22.18 0 0 1 2.912 14.313 22.03 22.03 0 0 1-6.602 12.99 21.5 21.5 0 0 1-13.186 5.902 21.4 21.4 0 0 1-13.915-3.808 21.92 21.92 0 0 1-8.468-11.826 22.22 22.22 0 0 1 .74-14.595l-29.223-29.629v77.957a21.77 21.77 0 0 1 10.035 10.468 22.2 22.2 0 0 1 1.323 14.536 21.92 21.92 0 0 1-7.976 12.153 21.4 21.4 0 0 1-13.736 4.377 21.44 21.44 0 0 1-13.398-5.344 21.98 21.98 0 0 1-7.116-12.69 22.18 22.18 0 0 1 2.327-14.407 21.7 21.7 0 0 1 10.735-9.727V94.325a21.6 21.6 0 0 1-7.071-4.764 22 22 0 0 1-4.721-7.154 22.23 22.23 0 0 1 .032-16.882l-50.27-50.326L54.275 14z"/></svg>