<svg xmlns="http://www.w3.org/2000/svg" fill="none" viewBox="0 0 256 256"><rect width="228" height="228" x="14" y="14" fill="#2dbcaf" rx="46"/><path fill="#fff" d="M126.149 107.572c-7.516 1.909-12.646 3.341-20.043 5.25-1.79.477-1.909.596-3.46-1.193-1.79-2.028-3.102-3.341-5.608-4.534-7.516-3.698-14.793-2.625-21.594 1.79-8.113 5.249-12.288 13.004-12.169 22.668.12 9.544 6.681 17.419 16.106 18.731 8.113 1.074 14.914-1.79 20.282-7.874 1.074-1.313 2.028-2.744 3.222-4.415H79.859c-2.506 0-3.102-1.551-2.267-3.579 1.55-3.698 4.414-9.902 6.084-13.004.358-.716 1.193-1.909 2.983-1.909h43.427c-.238 3.221-.238 6.442-.716 9.664-1.312 8.59-4.533 16.464-9.783 23.384-8.59 11.334-19.804 18.373-34.002 20.282-11.692 1.551-22.549-.716-32.093-7.875-8.829-6.681-13.84-15.509-15.152-26.485-1.55-13.005 2.267-24.697 10.141-34.957 8.47-11.095 19.686-18.135 33.406-20.64 11.215-2.028 21.952-.716 31.616 5.846 6.323 4.176 10.857 9.903 13.839 16.822.716 1.074.239 1.67-1.193 2.028"/><path fill="#fff" d="M165.639 173.549c-10.856-.239-20.759-3.341-29.11-10.499-7.039-6.085-11.454-13.84-12.885-23.026-2.148-13.482 1.551-25.413 9.664-36.031 8.709-11.453 19.208-17.418 33.405-19.924 12.169-2.147 23.623-.954 34.002 6.085 9.425 6.442 15.271 15.152 16.822 26.605 2.029 16.106-2.624 29.23-13.72 40.445-7.874 7.993-17.538 13.004-28.633 15.271-3.221.596-6.443.716-9.545 1.074m28.395-48.2c-.119-1.551-.119-2.744-.358-3.937-2.147-11.811-13.004-18.493-24.338-15.868-11.096 2.506-18.254 9.545-20.879 20.759-2.147 9.306 2.386 18.731 10.976 22.549 6.562 2.864 13.124 2.506 19.447-.716 9.425-4.891 14.556-12.527 15.152-22.787"/></svg>