<svg xmlns="http://www.w3.org/2000/svg" fill="none" viewBox="0 0 256 256"><rect width="228" height="228" x="14" y="14" fill="#f6009b" rx="46"/><path fill="#fff" d="M56.858 170.9 128.97 44.866l6.474 3.768-72.106 126.041z"/><path fill="#fff" d="M55.372 160.834h144.223v7.543H55.372z"/><path fill="#fff" d="m58.23 165.066 3.735-6.533 72.137 42.033-3.741 6.533zm62.666-109.55 3.741-6.526 72.137 42.033-3.741 6.533z"/><path fill="#fff" d="m58.25 91.004 72.13-42.033 3.741 6.533-72.137 42.033z"/><path fill="#fff" d="m119.593 48.64 6.474-3.774 72.105 126.04-6.467 3.769zM61.096 85.997h7.475v84.065h-7.475z"/><path fill="#fff" d="M186.453 85.996h7.475v84.065h-7.475z"/><path fill="#fff" d="m125.834 198.202 62.735-36.555 3.268 5.707-62.741 36.554z"/><path fill="#fff" d="M203.834 172.514a15.8 15.8 0 0 1-6.667 6.317 15.6 15.6 0 0 1-9.021 1.512 15.7 15.7 0 0 1-8.332-3.803 15.9 15.9 0 0 1-4.832-7.834 16.03 16.03 0 0 1 .298-9.223 15.9 15.9 0 0 1 5.328-7.501 15.63 15.63 0 0 1 17.463-1.145 15.87 15.87 0 0 1 7.323 9.636 16.02 16.02 0 0 1-1.56 12.041M78.389 99.431a15.8 15.8 0 0 1-6.666 6.316 15.62 15.62 0 0 1-17.353-2.29 15.9 15.9 0 0 1-4.832-7.835 16.03 16.03 0 0 1 .298-9.223 15.9 15.9 0 0 1 5.327-7.5 15.63 15.63 0 0 1 17.464-1.145 15.87 15.87 0 0 1 7.323 9.636 16.02 16.02 0 0 1-1.561 12.04m-27.205 73.083a16 16 0 0 1 1.135-17.623 15.75 15.75 0 0 1 7.432-5.377 15.6 15.6 0 0 1 9.14-.3 15.7 15.7 0 0 1 7.763 4.876 15.96 15.96 0 0 1 3.768 8.408 16 16 0 0 1-1.498 9.104 15.83 15.83 0 0 1-6.26 6.727 15.62 15.62 0 0 1-11.931 1.575 15.76 15.76 0 0 1-9.549-7.39M176.629 99.43a16 16 0 0 1 1.135-17.624 15.74 15.74 0 0 1 7.432-5.376 15.6 15.6 0 0 1 9.139-.3 15.73 15.73 0 0 1 7.764 4.876 15.95 15.95 0 0 1 3.768 8.408 16 16 0 0 1-1.498 9.103 15.84 15.84 0 0 1-6.26 6.728 15.62 15.62 0 0 1-11.932 1.575 15.76 15.76 0 0 1-9.548-7.39M127.509 217c-3.114 0-6.158-.932-8.747-2.678a15.85 15.85 0 0 1-5.798-7.13 16 16 0 0 1-.896-9.179 15.94 15.94 0 0 1 4.308-8.135 15.7 15.7 0 0 1 8.061-4.348 15.6 15.6 0 0 1 9.097.904 15.8 15.8 0 0 1 7.065 5.851 16 16 0 0 1 2.653 8.827 16 16 0 0 1-1.186 6.087 15.9 15.9 0 0 1-3.412 5.161 15.7 15.7 0 0 1-5.114 3.443 15.6 15.6 0 0 1-6.031 1.197m0-146.224c-3.114 0-6.158-.932-8.747-2.678a15.85 15.85 0 0 1-5.798-7.13 16 16 0 0 1-.896-9.18 15.94 15.94 0 0 1 4.308-8.135 15.7 15.7 0 0 1 8.061-4.348 15.6 15.6 0 0 1 9.097.904 15.8 15.8 0 0 1 7.065 5.852 16 16 0 0 1 2.653 8.827 16 16 0 0 1-1.186 6.087 15.9 15.9 0 0 1-3.412 5.16 15.7 15.7 0 0 1-5.114 3.443 15.6 15.6 0 0 1-6.031 1.197"/></svg>