<svg xmlns="http://www.w3.org/2000/svg" fill="none" viewBox="0 0 256 256"><rect width="228" height="228" x="14" y="14" fill="#cf4647" rx="46"/><path fill="#fff" d="M91 85.928c10.545 7.778 66.916 7.37 73-.409-1.556-2.58-25.51-1.78-24.333-4.911 1.62-5.731 1.704-11.788 6.082-16.374l15.007-16.783L156.538 44s-7.876 8.032-10.384 10.41c-6.699 6.353-11.759 13.508-12.976 22.923-.405 4.093-2.433 4.503-5.678 4.91-17.576 1.274-34.664.946-36.5 3.685m60.021 85.961c3.245-.819 4.462-2.866 4.462-6.141L164 89.203c-26.281 7.194-52.724 6.212-73 0l7.3 76.135c.406 4.094 2.84 6.141 6.49 6.96 19.735 3.241 30.907 3.695 46.231-.41m-45.826 10.232c.802 6.549 1.217 13.508 1.623 20.467.405 2.456 1.217 3.684 3.245 4.5L124.661 212h7.977s9.46-4.094 13.111-5.728c.811-.41 1.622-1.638 2.027-2.866 1.734-14.739-.594-24.064 4.462-29.471v-.818c-17.032 4.093-34.066 4.093-51.504-.819 3.936 5.989 4.268 8.242 4.461 9.822"/></svg>