<svg xmlns="http://www.w3.org/2000/svg" fill="none" viewBox="0 0 256 256"><rect width="228" height="228" x="14" y="14" fill="#7986cb" rx="46"/><path fill="#fff" d="M133.89 154.955c1.044-2.685.373-5.742-1.716-7.831l-15.588-15.364.224-.224a130.5 130.5 0 0 0 27.67-48.703h14.47c4.027 0 7.383-3.356 7.383-7.383v-.15c0-4.027-3.356-7.383-7.383-7.383h-44.825v-7.459c0-4.102-3.356-7.458-7.458-7.458s-7.459 3.356-7.459 7.458v7.459H54.384C50.356 67.917 47 71.273 47 75.3c0 4.103 3.356 7.384 7.384 7.384h75.926a117.1 117.1 0 0 1-23.643 40.051c-6.042-6.637-11.113-13.872-15.365-21.48a6.64 6.64 0 0 0-5.817-3.505c-5.146 0-8.428 5.594-5.892 10.069 4.699 8.428 10.442 16.483 17.154 23.941l-32.593 32.145a7.4 7.4 0 0 0-2.238 5.296 7.38 7.38 0 0 0 2.238 5.295c2.909 2.909 7.608 2.909 10.591 0l31.922-31.996 15.066 15.066c3.803 3.804 10.292 2.387 12.157-2.611m36.173-42.288a10.71 10.71 0 0 0-10.069 7.01l-27.372 73.092c-1.79 4.55 1.641 9.398 6.488 9.398 2.909 0 5.52-1.79 6.564-4.55l6.638-17.825h35.427l6.712 17.825c1.044 2.685 3.655 4.55 6.564 4.55 4.848 0 8.278-4.848 6.563-9.398l-27.372-73.092c-1.641-4.251-5.668-7.01-10.143-7.01m-12.083 52.208 12.083-32.295 12.082 32.295z"/></svg>