<svg xmlns="http://www.w3.org/2000/svg" fill="none" viewBox="0 0 256 256"><rect width="228" height="228" x="14" y="14" fill="#2dcc9f" rx="46"/><path fill="#fff" fill-rule="evenodd" d="M241.028 202.421c-.671 5.519-1.804 9.907-3.719 13.816a46 46 0 0 1-21.072 21.072C206.662 242 194.215 242 169.32 242H86.68c-24.895 0-37.343 0-46.918-4.691a46 46 0 0 1-21.071-21.072c-1.849-3.773-2.969-7.992-3.647-13.242l51.484-61.482a7.06 7.06 0 0 1 8.898-.876L113 179.792l52.404-66.529a7.06 7.06 0 0 1 8.15-1.313l67.475 55.751zM103.532 79.671a35.314 35.314 0 0 0-24.97-60.283 35.312 35.312 0 1 0 24.97 60.283" clip-rule="evenodd"/></svg>