<svg xmlns="http://www.w3.org/2000/svg" fill="none" viewBox="0 0 256 256"><rect width="228" height="228" x="14" y="14" fill="#f0db4f" rx="46"/><path fill="#323330" d="M158.869 186.829a25.63 25.63 0 0 0 9.617 10.475 25.95 25.95 0 0 0 13.768 3.789c9.804 0 16.073-4.859 16.073-11.589 0-8.024-6.44-10.894-17.233-15.574l-5.919-2.514c-17.089-7.212-28.422-16.243-28.422-35.338 0-17.589 13.492-30.988 34.655-30.988a35.23 35.23 0 0 1 19.682 4.37 34.8 34.8 0 0 1 13.975 14.413l-18.501 11.723a15.97 15.97 0 0 0-6.016-7.371 16.2 16.2 0 0 0-9.176-2.685 10.4 10.4 0 0 0-4.22.453 10.3 10.3 0 0 0-3.678 2.102 10.2 10.2 0 0 0-2.51 3.393 10.1 10.1 0 0 0-.915 4.108c0 7.034 4.398 9.887 14.552 14.264l5.919 2.514c20.111 8.549 31.48 17.259 31.48 36.844 0 21.119-16.738 32.691-39.215 32.691a45.8 45.8 0 0 1-25.143-5.675 45.24 45.24 0 0 1-17.985-18.315zm-83.603 2.033c3.715 6.534 7.096 12.061 15.227 12.061 7.772 0 12.682-3.013 12.682-14.736v-79.76h23.665v80.072c0 24.284-14.391 35.338-35.34 35.338a37 37 0 0 1-21.094-5.246A36.5 36.5 0 0 1 56 200.442z"/></svg>