<svg xmlns="http://www.w3.org/2000/svg" fill="none" viewBox="0 0 256 256"><rect width="228" height="228" x="14" y="14" fill="#f0db4f" rx="46"/><path fill="#323330" d="M158.87 186.83a25.6 25.6 0 0 0 9.62 10.47 26 26 0 0 0 13.76 3.8c9.8 0 16.08-4.87 16.08-11.6 0-8.02-6.44-10.89-17.24-15.57l-5.92-2.51c-17.08-7.22-28.42-16.25-28.42-35.34 0-17.6 13.5-30.99 34.66-30.99a35 35 0 0 1 19.68 4.37 35 35 0 0 1 13.97 14.41l-18.5 11.73a16 16 0 0 0-6.01-7.38 16 16 0 0 0-9.18-2.68 10 10 0 0 0-4.22.45 10 10 0 0 0-3.68 2.1 10 10 0 0 0-2.5 3.4 10 10 0 0 0-.92 4.1c0 7.04 4.4 9.9 14.55 14.27l5.92 2.51c20.11 8.55 31.48 17.26 31.48 36.85 0 21.12-16.74 32.69-39.22 32.69a46 46 0 0 1-25.14-5.68 45 45 0 0 1-17.98-18.31zm-83.6 2.03c3.71 6.54 7.1 12.06 15.22 12.06 7.78 0 12.69-3.01 12.69-14.73v-79.76h23.66v80.07c0 24.28-14.4 35.34-35.34 35.34a37 37 0 0 1-21.1-5.25A36.5 36.5 0 0 1 56 200.44z"/></svg>