<svg xmlns="http://www.w3.org/2000/svg" fill="none" viewBox="0 0 256 256"><rect width="228" height="228" x="14" y="14" fill="#ec2024" rx="46"/><path fill="#fff" d="M106.252 168.47s-6.477 3.777 4.607 5.058a96.7 96.7 0 0 0 35.11-1.494 61 61 0 0 0 9.328 4.566c-33.179 14.262-75.092-.826-49.032-8.13m-4.062-18.615s-7.264 5.392 3.831 6.545a136.5 136.5 0 0 0 45.286-2.179 20.1 20.1 0 0 0 6.973 4.25c-40.115 11.766-84.802.929-56.09-8.628m34.165-31.559a12.5 12.5 0 0 1 2.35 4.43 12.48 12.48 0 0 1-1.169 9.76 12.4 12.4 0 0 1-3.33 3.745s20.757-10.746 11.223-24.207c-8.904-12.55-15.739-18.79 21.235-40.29 0 0-58.027 14.535-30.309 46.562"/><path fill="#fff" d="M180.267 182.234s4.795 3.959-5.278 7.025c-19.153 5.816-79.711 7.577-96.54.23-6.053-2.641 5.29-6.302 8.862-7.067a23 23 0 0 1 5.848-.655c-6.725-4.754-43.47 9.331-18.663 13.357 67.653 11.001 123.32-4.948 105.771-12.89m-70.897-51.661s-30.806 7.34-10.896 10.005a230.7 230.7 0 0 0 40.745-.437 320 320 0 0 0 25.552-3.37 54 54 0 0 0-7.749 4.159c-31.284 8.251-91.715 4.414-74.317-4.025a58.14 58.14 0 0 1 26.677-6.326m55.249 30.976c31.799-16.575 17.095-32.5 6.835-30.357a24 24 0 0 0-3.632.977 5.8 5.8 0 0 1 2.718-2.1c20.303-7.159 35.914 21.116-6.556 32.312.265-.236.483-.52.641-.838M145.448 37s17.61 17.668-16.701 44.843c-27.519 21.797-6.278 34.225 0 48.42-16.06-14.535-27.846-27.321-19.94-39.24 11.604-17.48 43.76-25.955 36.641-54.023"/><path fill="#fff" d="M112.493 206.465c30.522 1.961 77.399-1.087 78.507-15.573 0 0-2.137 5.464-25.225 9.854a250.3 250.3 0 0 1-77.24 1.214s3.904 3.236 23.965 4.529"/></svg>