<svg xmlns="http://www.w3.org/2000/svg" fill="none" viewBox="0 0 256 256"><rect width="228" height="228" x="14" y="14" fill="#893f5b" rx="46"/><path fill="#fff" d="M185.298 130.857c0-3.672-1.452-7.193-4.036-9.789a13.75 13.75 0 0 0-11.194-3.981L189 61h-80.45l18.906 56.039c-.275 0-.556-.026-.836-.026a13.74 13.74 0 0 0-8.975 3.325 13.89 13.89 0 0 0-2.755 17.81 13.8 13.8 0 0 0 7.547 5.904 60.4 60.4 0 0 1-10.835 13.701 55.2 55.2 0 0 1-19.318 12.043 17.62 17.62 0 0 1-8.826-9.487 17.73 17.73 0 0 1 .02-12.984c.408-.957.82-1.923 1.212-2.89a13.78 13.78 0 0 0 7.737-4.998 13.9 13.9 0 0 0 2.886-8.775 13.9 13.9 0 0 0-3.252-8.644 13.77 13.77 0 0 0-7.94-4.666c-3.1-.596-6.31-.105-9.094 1.391a13.83 13.83 0 0 0-6.2 6.827 13.9 13.9 0 0 0-.543 9.225 13.85 13.85 0 0 0 5.353 7.515 107.2 107.2 0 0 0-9.99 25.43c-1.871 11.342 0 23.374 9.758 30.179 22.74 15.836 47.43-9.817 73.458-16.261 9.435-2.337 19.789-1.96 28.097-6.794a23.6 23.6 0 0 0 7.581-6.913 23.7 23.7 0 0 0 3.942-9.492 24.8 24.8 0 0 0-.306-9.803 24.7 24.7 0 0 0-4.089-8.907 13.85 13.85 0 0 0 3.205-8.876zm-44.892.074v-.048a13.86 13.86 0 0 0-1.769-6.801 13.8 13.8 0 0 0-4.873-5.045l15.04-30.604 15.072 30.885a13.8 13.8 0 0 0-4.513 4.986 13.86 13.86 0 0 0-1.627 6.537v.302z"/></svg>