<svg xmlns="http://www.w3.org/2000/svg" fill="none" viewBox="0 0 256 256"><rect width="228" height="228" x="14" y="14" fill="#fbc02d" rx="46"/><path fill="#91cffc" fill-rule="evenodd" d="M97.613 24.75H97.6c-12.287 0-21.518 0-28.863.57-7.35.571-12.831 1.715-17.617 4.012a46.5 46.5 0 0 0-21.789 21.79c-2.297 4.785-3.44 10.267-4.012 17.616-.57 7.345-.57 16.576-.57 28.863V158.4c0 12.287 0 21.518.57 28.863.571 7.35 1.715 12.831 4.012 17.617a46.5 46.5 0 0 0 21.79 21.789c4.785 2.297 10.267 3.441 17.616 4.012 7.345.57 16.575.57 28.863.57h60.798c12.288 0 21.518 0 28.863-.57 7.35-.571 12.831-1.715 17.617-4.012a46.5 46.5 0 0 0 21.789-21.789c2.297-4.786 3.441-10.267 4.012-17.617.57-7.345.57-16.575.57-28.863V97.601c0-12.288 0-21.518-.57-28.863-.571-7.35-1.715-12.831-4.012-17.617a46.5 46.5 0 0 0-21.789-21.789c-4.786-2.297-10.267-3.44-17.617-4.012-7.345-.57-16.576-.57-28.863-.57H97.612m-46.275 5.033c4.706-2.26 10.118-3.396 17.439-3.964 5.56-.432 12.21-.536 20.473-.561V38.25H39.203a46 46 0 0 1 12.135-8.467M39.104 38.75 64.65 64.296a90 90 0 0 1 24.6-17.368V38.75zm50.646 0v7.94a89.2 89.2 0 0 1 28.064-7.94zm38.5 0h3.109a88.8 88.8 0 0 1 34.891 8.555V88.83c-9.826-9.551-23.225-15.445-38-15.487zm-3.738 0h3.238v34.594c-14.795.09-28.199 6.05-38 15.667V47.244a88.8 88.8 0 0 1 34.762-8.494m13.546 0h28.192v8.002a89.2 89.2 0 0 0-28.192-8.002m28.192-.5h-34.881a92 92 0 0 0-3.119-.064V25.25h30.138c2.773 0 5.389 0 7.862.006zm.5.5v8.24a90 90 0 0 1 24.536 17.37l25.61-25.61zm50.047-.5H166.75V25.258c8.264.025 14.913.13 20.473.561 7.321.569 12.733 1.704 17.439 3.964a46 46 0 0 1 12.135 8.467m-92.294 0H89.75V25.256c2.473-.006 5.09-.006 7.862-.006h30.138v12.936q-1.631.003-3.247.064m-85.753 51V39.103L64.296 64.65a90 90 0 0 0-17.368 24.6zm-.5-50.047V89.25H25.258c.025-8.264.13-14.913.561-20.473.569-7.32 1.704-12.733 3.964-17.44a46 46 0 0 1 8.467-12.134m0 85.299V89.75H25.256c-.006 2.473-.006 5.09-.006 7.862v30.138h12.936a92 92 0 0 1 .064-3.248m.5-34.752v28.063a89.2 89.2 0 0 1 7.94-28.063zm0 34.762v3.238h34.594c.09-14.795 6.05-28.199 15.667-38H47.244a88.8 88.8 0 0 0-8.494 34.762m0 3.738v3.109a88.8 88.8 0 0 0 8.555 34.891H88.83c-9.551-9.826-15.445-23.225-15.487-38zm-.564 0q.006 1.566.064 3.119v34.881H25.256c-.006-2.473-.006-5.089-.006-7.862V128.25zm.564 9.808v28.192h8.001a89.2 89.2 0 0 1-8.001-28.192M25.258 166.75H38.25v50.047a46 46 0 0 1-8.467-12.135c-2.26-4.706-3.396-10.118-3.964-17.439-.432-5.56-.536-12.209-.561-20.473m13.945 51a46 46 0 0 0 12.135 8.467c4.706 2.26 10.118 3.395 17.439 3.964 7.323.569 16.534.569 28.835.569h30.138v-13h-38v12.979h-.5V217.75zm50.547-.5h29.287a89.2 89.2 0 0 1-29.287-8.07zm38.5.5v13h30.138c12.301 0 21.512 0 28.835-.569 7.321-.569 12.733-1.704 17.439-3.964a46 46 0 0 0 12.135-8.467H166.75v12.979h-.5V217.75zm38-.5h-29.416a89.2 89.2 0 0 0 29.416-8.13zm.5 0h50.147l-25.676-25.675a90 90 0 0 1-24.471 17.306zm24.825-26.029 25.675 25.675V166.75h-8.369a90 90 0 0 1-17.306 24.471m34.642 13.441a46 46 0 0 1-8.467 12.135V166.75h12.992c-.025 8.264-.129 14.913-.561 20.473-.569 7.321-1.704 12.733-3.964 17.439m-8.967-67.828v29.416h-8.13a89.2 89.2 0 0 0 8.13-29.416m.5 29.416v-38h13v30.138c0 2.773 0 5.389-.007 7.862zm0-76.5v38h13V97.612c0-2.773 0-5.389-.007-7.862zm-8.807-.5h8.307V39.103l-25.611 25.611a90 90 0 0 1 17.304 24.536m.237.5h8.07v29.287a89.2 89.2 0 0 0-8.07-29.287m21.562-.5H217.75V39.203a46 46 0 0 1 8.467 12.135c2.26 4.706 3.395 10.118 3.964 17.439.432 5.56.536 12.21.561 20.473m-141.492 128H39.103l25.611-25.611a90 90 0 0 0 24.536 17.304zm-50.5-50.5v50.146l25.61-25.61a90 90 0 0 1-17.37-24.536zm51.354-77 10.722 10.722c5.668-5.595 13.052-9.456 21.291-10.722zm37.646-.5H90.22c9.701-9.46 22.932-15.316 37.53-15.406zm6.231.5c8.215 1.262 15.58 5.104 21.242 10.674l10.673-10.674zm31.984-.5H128.25V73.843c14.672.042 27.973 5.907 37.715 15.407m1.21.5c9.617 9.801 15.576 23.205 15.667 38h34.343c-.027-13.595-3.094-26.476-8.558-38zm41.213-.5h-41.285l24.182-24.182a89.5 89.5 0 0 1 17.103 24.182m-119.491 0H47.483A89.5 89.5 0 0 1 64.65 65.003zm-23.894-24.6A89.5 89.5 0 0 1 89.25 47.483v41.413zm8.84 63.1c.091-14.598 5.947-27.829 15.407-37.53v37.53zM89.75 90.103v32.014c1.266-8.24 5.127-15.624 10.722-21.291zM73.843 128.25H89.25v37.715c-9.5-9.742-15.365-23.043-15.407-37.715m15.907 5.731v31.915l10.674-10.673c-5.57-5.662-9.412-13.027-10.674-21.242m-24.682 57.304 24.182-24.182v41.285a89.5 89.5 0 0 1-24.182-17.103m24.682-24.11v41.452c11.524 5.464 24.405 8.531 38 8.558v-34.343c-14.795-.091-28.199-6.05-38-15.667m-42.205-.425a89.5 89.5 0 0 0 17.169 24.182l24.182-24.182zm42.486 0c9.718 9.568 23.026 15.501 37.719 15.592v-15.544a42 42 0 0 1-1.664-.048zm37.719-.5h-1.651c-9.722-.488-18.488-4.606-24.969-11.027l26.62-26.62zm2.249 0h-1.749v-37.647l26.668 26.669c-6.476 6.392-15.222 10.491-24.919 10.978m.012.5q-.876.043-1.761.048v15.545c14.767-.042 28.146-5.984 37.904-15.593zm35.886-.5h-31.312c7.996-1.358 15.158-5.166 20.687-10.625zm.353-31.666v31.312l-10.624-10.624c5.458-5.529 9.266-12.691 10.624-20.688m-10.978 20.334c6.393-6.476 10.491-15.222 10.978-24.92v-1.748h-37.646zm-26.669-27.168h37.647v-1.651c-.488-9.722-4.606-18.488-11.027-24.969zm38.195.5q-.005.885-.048 1.761v36.143c9.609-9.758 15.551-23.137 15.593-37.904zm-.048-38.219v36.056q.041.827.048 1.663h15.544c-.091-14.693-6.024-28.001-15.592-37.719m-11.173 10.746 10.673-10.674v31.41c-1.362-8.02-5.189-15.201-10.673-20.736m35.355-36.063L166.75 88.896V47.545a89.5 89.5 0 0 1 24.182 17.169M166.25 208.566v-41.21c-9.826 9.551-23.225 15.445-38 15.487v34.342c13.598-.047 26.479-3.135 38-8.619m.5-41.463v41.223a89.5 89.5 0 0 0 24.118-17.105zm.354-.353 24.117 24.118a89.5 89.5 0 0 0 17.105-24.118zm41.462-.5h-41.21c9.551-9.826 15.445-23.225 15.487-38h34.342c-.047 13.598-3.135 26.479-8.619 38m-87.053 0h-31.41l10.674-10.673c5.535 5.484 12.716 9.311 20.736 10.673m6.237-76.45c-10.354.08-19.729 4.272-26.571 11.026l26.571 26.57zm.5 37.596V89.799c10.368.054 19.76 4.232 26.619 10.978zm-27.473 27.473c-6.746-6.859-10.924-16.251-10.978-26.619h37.597zM89.8 127.75h37.597l-26.571-26.571c-6.753 6.842-10.947 16.217-11.026 26.571" clip-rule="evenodd"/><path stroke="#323330" stroke-width="20" d="M144.705 186h16.704c4.431 0 8.679-1.746 11.812-4.854a16.5 16.5 0 0 0 4.893-11.717v-20.201c0-3.695 1.246-7.284 3.539-10.197a16.72 16.72 0 0 1 9.115-5.877l12.653-3.149c2.105-.522 2.105-3.488 0-4.018l-12.653-3.132a16.72 16.72 0 0 1-9.115-5.878 16.48 16.48 0 0 1-3.539-10.197V70h-33.409m-33.41 0H94.591c-4.43 0-8.68 1.746-11.812 4.854a16.5 16.5 0 0 0-4.893 11.717v20.201a16.5 16.5 0 0 1-3.539 10.197 16.72 16.72 0 0 1-9.115 5.877l-12.653 3.149c-2.105.522-2.105 3.488 0 4.018l12.653 3.132a16.72 16.72 0 0 1 9.115 5.878 16.5 16.5 0 0 1 3.54 10.197V186h33.408"/></svg>