<svg xmlns="http://www.w3.org/2000/svg" fill="none" viewBox="0 0 256 256"><rect width="228" height="228" x="14" y="14" fill="#fbc02d" rx="46"/><path stroke="#323330" stroke-width="20" d="M144.705 186h16.704c4.431 0 8.679-1.746 11.812-4.854a16.5 16.5 0 0 0 4.893-11.717v-20.201c0-3.695 1.246-7.284 3.539-10.197a16.72 16.72 0 0 1 9.115-5.877l12.653-3.149c2.105-.522 2.105-3.488 0-4.018l-12.653-3.132a16.72 16.72 0 0 1-9.115-5.878 16.48 16.48 0 0 1-3.539-10.197V70h-33.409m-33.41 0H94.591c-4.43 0-8.68 1.746-11.812 4.854a16.5 16.5 0 0 0-4.893 11.717v20.201a16.5 16.5 0 0 1-3.539 10.197 16.72 16.72 0 0 1-9.115 5.877l-12.653 3.149c-2.105.522-2.105 3.488 0 4.018l12.653 3.132a16.72 16.72 0 0 1 9.115 5.878 16.5 16.5 0 0 1 3.54 10.197V186h33.408"/></svg>