<svg xmlns="http://www.w3.org/2000/svg" fill="none" viewBox="0 0 256 256"><rect width="228" height="228" x="14" y="14" fill="#fbc02d" rx="46"/><path stroke="#323330" stroke-width="20" d="M144.7 186h16.7a16.8 16.8 0 0 0 11.82-4.85 16.5 16.5 0 0 0 4.9-11.72v-20.2c0-3.7 1.24-7.29 3.53-10.2a16.7 16.7 0 0 1 9.12-5.88l12.65-3.15c2.1-.52 2.1-3.48 0-4.01l-12.65-3.14a16.7 16.7 0 0 1-9.12-5.87 16.5 16.5 0 0 1-3.54-10.2V70h-33.4m-33.41 0H94.6a16.8 16.8 0 0 0-11.82 4.85 16.5 16.5 0 0 0-4.9 11.72v20.2a16.5 16.5 0 0 1-3.53 10.2 16.7 16.7 0 0 1-9.12 5.88l-12.65 3.14c-2.1.53-2.1 3.5 0 4.02l12.65 3.13a16.7 16.7 0 0 1 9.12 5.88 16.5 16.5 0 0 1 3.54 10.2V186h33.4"/></svg>