<svg xmlns="http://www.w3.org/2000/svg" fill="none" viewBox="0 0 256 256"><rect width="228" height="228" x="14" y="14" fill="#f56e0f" rx="46"/><path fill="#fff" fill-rule="evenodd" stroke="#fff" stroke-miterlimit="10" d="M146.014 65.21c8.461-12.305 18.24-17.893 29.086-17.144l-45.741 80.051a15.9 15.9 0 0 1-5.797 7.658c-2.483 1.637-3.83 1.442-6.295 2.327a8.86 8.86 0 0 0-5.102 4.407l-.849 2.717c-.763 2.424-1.966 4.85-.167 7.215 1.186 1.555 3.437 2.134 6.412 2.031a18.8 18.8 0 0 1 7.175 3.123 22 22 0 0 1 5.535 6.018c4.244 8.267 4.528 17.383-1.423 27.879-6.551 12.371-15.665 16.66-26.139 16.504-6.787-.916-11.44-4.046-14.315-8.999-4.417-7.611-4.346-15.824-1.475-23.88a91 91 0 0 1 7.898-15.549l8.073-20.307.789.749zm40.776 70.262c14.84-1.315 24.508-7.094 29.21-16.932l-75.99.361-9.692 16.612zm-80.501-9.003a9 9 0 0 1-3.169.429l-2.774-.599c-2.478-.531-5.174-.678-6.336-3.414-.77-1.814-.16-4.064 1.404-6.601a19.1 19.1 0 0 0 .785-7.861 22 22 0 0 0-2.454-7.747c-5.071-7.784-12.838-12.54-24.865-12.514-13.883-.312-22.128 5.475-27.16 14.695-2.6 6.346-2.159 11.996.697 16.917 4.386 7.558 11.57 11.601 19.962 13.059a89.3 89.3 0 0 0 17.373.778l20.941 2.891.42-.744-.048-.228.176.011zm-19.95-11.301c2.57-5.131.34-9.95-3.714-13.416-3.248-2.785-7.616-4.275-12.984-4.482a26.1 26.1 0 0 0-15.253 4.318c-8.465 6.044-5.478 15.003 2.441 19.727a20.86 20.86 0 0 0 12.075 2.793 29.6 29.6 0 0 0 9.497-2.064 14.92 14.92 0 0 0 7.945-6.865zm37.537 10.345a4.42 4.42 0 0 1-.302 4.886 4.374 4.374 0 0 1-6.783.241 4.42 4.42 0 0 1-.645-4.853 4.4 4.4 0 0 1 1.74-1.869 4.37 4.37 0 0 1 5.99 1.595Zm-9.819 37.414c5.714.29 8.784 4.602 9.788 9.852.818 4.22-.052 8.757-2.49 13.599a26.33 26.33 0 0 1-11.305 11.121c-9.42 4.396-15.712-2.632-15.899-11.875a20.97 20.97 0 0 1 3.543-11.908 29.4 29.4 0 0 1 6.475-7.273 14.87 14.87 0 0 1 9.876-3.538z" clip-rule="evenodd" opacity=".8"/></svg>