<svg xmlns="http://www.w3.org/2000/svg" fill="none" viewBox="0 0 256 256"><rect width="228" height="228" x="14" y="14" fill="#1d355d" rx="46"/><path fill="#faf9f8" fill-rule="evenodd" d="M182.222 107.337c0-11.153 1.705-17.73 1.705-29.741 0-18.59-6.821-24.596-21.883-24.596h-11.083v13.155h3.41c7.673 0 9.378 2.575 9.378 12.012 0 8.865-.853 17.731-.853 28.027 0 13.156 4.263 18.303 12.789 20.305v.858c-8.526 2.002-12.789 7.151-12.789 20.306 0 10.294.853 18.589.853 28.027 0 9.723-1.989 12.296-9.378 12.296v.286h-3.41V202h11.083c15.062 0 21.883-6.006 21.883-24.594 0-12.298-1.705-18.59-1.705-29.743 0-6.006 3.694-12.298 14.778-12.87v-14.872c-11.084-.286-14.778-6.578-14.778-12.584m-109.444 0c0-11.153-1.705-17.73-1.705-29.741C71.073 59.006 77.894 53 92.956 53h11.083v13.155h-3.41c-7.673 0-9.378 2.575-9.378 12.012 0 8.865.853 17.731.853 28.027 0 13.156-4.263 18.303-12.789 20.305v.858c8.526 2.002 12.789 7.151 12.789 20.306 0 10.294-.853 18.589-.853 28.027 0 9.723 1.989 12.296 9.378 12.296v.286h3.41V202H92.956c-15.062 0-21.883-6.006-21.883-24.594 0-12.298 1.705-18.59 1.705-29.743 0-6.006-3.694-12.298-14.778-12.87v-14.872c11.084-.286 14.778-6.578 14.778-12.584" clip-rule="evenodd"/></svg>