<svg xmlns="http://www.w3.org/2000/svg" fill="none" viewBox="0 0 256 256"><rect width="228" height="228" x="14" y="14" fill="#eb7d2e" rx="46"/><path fill="#fff" d="M146.188 65.016h36.067a9.007 9.007 0 0 1 9.016 9.017 9.007 9.007 0 0 1-9.016 9.017h-32.009c-1.466 7.27-6.453 13.27-13.074 16.145v83.037h45.083a9.006 9.006 0 0 1 9.016 9.016 9.007 9.007 0 0 1-9.016 9.017h-108.2a9.007 9.007 0 0 1-9.016-9.017 9.007 9.007 0 0 1 9.016-9.016h45.083V99.195c-6.621-2.902-11.609-8.904-13.074-16.145H74.055a9.007 9.007 0 0 1-9.016-9.017 9.007 9.007 0 0 1 9.016-9.017h36.067C114.236 59.55 120.773 56 128.155 56s13.919 3.55 18.033 9.016m15.667 81.149h40.828l-20.428-34.995zm20.4 27.05c-17.724 0-32.46-9.58-35.503-22.231-.733-3.1.282-6.284 1.888-9.045l26.824-45.984a7.84 7.84 0 0 1 6.791-3.889 7.9 7.9 0 0 1 6.79 3.889l26.825 45.984c1.606 2.761 2.62 5.945 1.888 9.045-3.043 12.651-17.78 22.231-35.503 22.231M73.717 111.17l-20.4 34.995h40.828zm-35.475 39.814c-.732-3.1.282-6.284 1.888-9.045l26.825-45.984a7.84 7.84 0 0 1 6.79-3.889 7.9 7.9 0 0 1 6.79 3.889l26.825 45.984c1.606 2.761 2.621 5.945 1.888 9.045-3.071 12.651-17.808 22.231-35.53 22.231-17.724 0-32.433-9.58-35.476-22.231"/></svg>