<svg xmlns="http://www.w3.org/2000/svg" fill="none" viewBox="0 0 256 256"><rect width="228" height="228" x="14" y="14" fill="#818181" rx="46"/><path fill="#fff" d="M75.355 144.098a3.33 3.33 0 0 1-3.64 1.413 5.56 5.56 0 0 0-5.271.485c-1.856 1.321-3.864.321-3.512-2.092a7.45 7.45 0 0 1 3.536-5.886c5.053-2.904 1.541-4.922 4.313-7.838s2.166-3.813 2.069-7.778a28.19 28.19 0 0 1-20.624-11.518 36.43 36.43 0 0 1-8.856-22.818 38.56 38.56 0 0 1 3.936-23.036 32.23 32.23 0 0 1 15.56-15.288 42.6 42.6 0 0 1 21.163-4.668 30.1 30.1 0 0 1 14.819 2.74 31.2 31.2 0 0 0 9.377 4.85 7.4 7.4 0 0 0 4.744-1.37c.285 7.207-6.205 7.832-12.01 7.983-5.805.152-9.378-2.249-14.722-1.358a25.44 25.44 0 0 0-18.38 10.755A22.92 22.92 0 0 0 63.8 84.97a11.83 11.83 0 0 0 8.74 10.91c3.033.05 3.7-.824 6.351-2.552 2.65-1.727 16.166-18.447 20.782-22.205a21.37 21.37 0 0 1 14.084-4.977 19.66 19.66 0 0 1 10.136 1.734 74.5 74.5 0 0 1 9.615 6.413 54 54 0 0 0 4.149-3.492 17.38 17.38 0 0 1 14.515-4.352 22.1 22.1 0 0 1 11.034 4.85A86.8 86.8 0 0 1 175.417 86a21.77 21.77 0 0 0 9.832 9.027c4.677 1.436 8.201-4.62 8.717-7.978a35 35 0 0 0 .679-5.668 26.7 26.7 0 0 0-.819-6.82 24.2 24.2 0 0 0-2.76-6.16 21.9 21.9 0 0 0-7.885-7.577 25 25 0 0 0-8.426-2.528c-2.85.258-5.684.663-8.492 1.213-3.542.242-9.875 1.036-12.653-1.698a7.14 7.14 0 0 1-2.293-5.17 5.4 5.4 0 0 0 2.845 1.151c2.22.188 4.294-1.624 6.066-2.673a44.5 44.5 0 0 1 5.507-3.189 35.55 35.55 0 0 1 16.378-1.406 38.3 38.3 0 0 1 13.345 4.395 36.4 36.4 0 0 1 9.912 8.972 30.2 30.2 0 0 1 6.272 12.954 54.4 54.4 0 0 1 .103 23.321 45.9 45.9 0 0 1-10.397 17.089 26.63 26.63 0 0 1-14.055 6.742q.186 1.493.522 2.958c.388 1.249 1.14 2.643 2.675 2.2a1.43 1.43 0 0 1 1.753.382c.807.704.388 3.438-1.886 4.662a8.8 8.8 0 0 1-4.216.794 40 40 0 0 1-6.733-.309c-2.002-.352-3.203-1.94-5.423-2.188a21.7 21.7 0 0 1-8.808-4.632 18 18 0 0 0-2.195-1.121c.357 1.091.837 2.231 1.073 3.279.237 1.049.14 2.025.261 2.862.121.836.358 1.497.497 2.176.546.491.722 1.212 1.65 1.473 1.111.093 2.229.005 3.312-.261.947-.127 1.577-.642 2.324-.503a5.16 5.16 0 0 1 2.062 1.17c.606.497 1.158.57 1.662 1.819a20.2 20.2 0 0 1 1.037 5.456 11.7 11.7 0 0 1-.606 4.577 7.65 7.65 0 0 1-2.311 3.279 36 36 0 0 1-5.799 4.662 10 10 0 0 0 1.213 1.819c.606.66 1.965 1.388 2.553 2.085.544.513.866 1.217.898 1.964a4.16 4.16 0 0 1-.661 2.625 11.53 11.53 0 0 1-5.684 3.474c.51 2.106.558 4.298.14 6.425-.225.964-.722 3.147-1.911 3.71-1.622.35-3.278.525-4.937.522-1.45.23-2.263.448-3.397.673a20 20 0 0 0-2.063 2.982 2.44 2.44 0 0 0 .049 2.122c.297.909 1.298 2.231 1.583 3.298.3 1.07.325 2.197.073 3.279a5.7 5.7 0 0 1-1.632 2.789c-.91.952-2.705 1.697-3.597 2.461s-1.783.861-1.541 2.134a9.4 9.4 0 0 0 4.738 5.256 5.62 5.62 0 0 0 3.943-.291c-.091 1.491-1.383 2.497-2.227 3.492a13.34 13.34 0 0 0 6.066-3.565 15.1 15.1 0 0 1-4.561 5.789 17.4 17.4 0 0 1-3.64 2.425c1.984.377 4.021.377 6.005 0a11.9 11.9 0 0 1-4.537 1.467 13.4 13.4 0 0 1-5.156-.388 34.6 34.6 0 0 1-5.768-3.279 4.7 4.7 0 0 0 1.316 2.679 17.3 17.3 0 0 0 3.876 2.025 57 57 0 0 1-5.841-.703 13.6 13.6 0 0 1-3.367-1.146 22 22 0 0 1-2.724-1.873 7.8 7.8 0 0 0 1.305 2.491 12 12 0 0 0 2.911 1.407c-1.01.098-2.028.076-3.033-.067a8.55 8.55 0 0 1-3.136-1.485 22.5 22.5 0 0 1-3.154-2.807 13 13 0 0 1-2.426-3.261c-.352-.934.212-1.589.315-2.383a7.5 7.5 0 0 0-1.929 1.273 2.43 2.43 0 0 0-.716 2.243 15 15 0 0 0 1.911 3.571c-2.086-1.704-3.251-2.358-3.748-4.419a6.94 6.94 0 0 1 1.649-5.129c.455-.721 1.135-1.394 1.559-2.091a28 28 0 0 1-2.826-2.765c-.807-1.048-1.147-2.473-1.972-3.473a20.7 20.7 0 0 0-2.899-2.468 38 38 0 0 1 2.547 5.456 3.63 3.63 0 0 1-.843 3.031c-.503.764-1.31.934-2.08 1.401-.771.466-1.96.103-2.427.794a2.38 2.38 0 0 0-.139 2.425l1.82 2.825a8.6 8.6 0 0 1-2.311-1.989c-.51-.691-1.299-1.321-1.408-2.249a3.27 3.27 0 0 1 .443-2.558c.607-.831 2.251-1.103 2.991-1.74.74-.636 1.152-1.049 1.11-1.873-.043-.824-.85-1.406-1.535-1.928a50 50 0 0 1-6.6-4.94 6.55 6.55 0 0 1-1.698-2.686 2.8 2.8 0 0 1 .017-1.171c.089-.384.259-.746.498-1.06.504-.915 2.227-2.134 2.427-3.122s-.661-1.212-1.444-1.552c-.782-.339-2.281.176-3.033-.43s.213-1.885-.606-2.589c-.819-.703-2.7-.309-3.64-1.067a5.07 5.07 0 0 1-1.704-2.782 5.9 5.9 0 0 1-.146-3.086c.231-.794.91-.933 1.316-1.345.407-.413.771-.752.219-1.364s-2.336.036-3.367-.752-.4-2.667-1.128-3.468c-.728-.8-2.038-.479-2.724-.733-.685-.255-.964.642-1.383-.776-.418-1.419-.436-5.638-1.007-7.208-.57-1.57-1.686-.109-2.201-1.673a43 43 0 0 1-.261-6.426l-1.062-6.432c-3.694 2.48-15.346 5.668-16.377 7.475"/></svg>