<svg xmlns="http://www.w3.org/2000/svg" fill="none" viewBox="0 0 256 256"><rect width="228" height="228" x="14" y="14" fill="#000" rx="46"/><path fill="#fff" d="M67.075 51a3.1 3.1 0 0 1 1.627.42l84.517 49.034a3.13 3.13 0 0 0 3.165 0l29.884-17.349a3.12 3.12 0 0 1 3.145-.029A3.15 3.15 0 0 1 191 85.804v115.012a3.15 3.15 0 0 1-1.567 2.762 3.12 3.12 0 0 1-3.165-.018l-84.517-49.033a3.12 3.12 0 0 0-3.135 0l-29.914 17.394a3.126 3.126 0 0 1-4.294-1.173 3.16 3.16 0 0 1-.408-1.586V54.165c0-.825.322-1.617.897-2.206A3.14 3.14 0 0 1 67.075 51"/></svg>