<svg xmlns="http://www.w3.org/2000/svg" fill="none" viewBox="0 0 256 256"><rect width="228" height="228" x="14" y="14" fill="#20c6b7" rx="46"/><path fill="#fff" d="m166.069 101.994-.062-.026a.3.3 0 0 1-.102-.058.49.49 0 0 1-.124-.412l3.427-20.954 16.072 16.077-16.715 7.111a.4.4 0 0 1-.146.027h-.066a.4.4 0 0 1-.089-.075 7.6 7.6 0 0 0-2.195-1.69m23.312-1.276 17.185 17.184c3.569 3.574 5.356 5.356 6.008 7.422.097.306.177.612.239.927l-41.069-17.393-.066-.027c-.164-.066-.355-.142-.355-.31 0-.169.195-.249.359-.315l.053-.022zm22.732 31.048c-.887 1.667-2.616 3.397-5.542 6.327l-19.375 19.371-25.059-5.219-.133-.026c-.222-.036-.457-.076-.457-.275a7.56 7.56 0 0 0-2.904-5.289c-.102-.102-.076-.262-.044-.408 0-.022 0-.045.008-.062l4.713-28.934.018-.098c.027-.222.067-.479.266-.479a7.66 7.66 0 0 0 5.143-2.948c.04-.044.067-.093.12-.12.142-.066.31 0 .457.062zM182.74 161.92l-31.86 31.86 5.453-33.519.009-.044a.6.6 0 0 1 .026-.128c.045-.107.16-.151.271-.196l.053-.022a8.2 8.2 0 0 0 3.081-2.292c.107-.124.235-.244.399-.266a.4.4 0 0 1 .129 0l22.434 4.611zm-38.604 38.603-3.591 3.592-39.704-57.381-.044-.062c-.062-.084-.129-.168-.115-.266.004-.071.049-.133.097-.186l.045-.058c.119-.177.221-.354.332-.545l.089-.155.013-.013c.062-.107.12-.209.226-.266.093-.045.222-.027.324-.005l43.986 9.071c.123.02.239.07.337.147.058.057.071.119.084.19a7.79 7.79 0 0 0 4.558 5.21c.124.062.071.199.013.346a1 1 0 0 0-.066.199c-.554 3.37-5.307 32.357-6.584 40.182m-7.502 7.498c-2.647 2.62-4.207 4.008-5.972 4.566a8.86 8.86 0 0 1-5.347 0c-2.066-.656-3.853-2.438-7.422-6.012l-39.872-39.871 10.415-16.152a.7.7 0 0 1 .177-.209c.111-.079.27-.044.404 0a10.78 10.78 0 0 0 7.262-.368c.12-.044.24-.075.333.009q.07.064.124.142zM74.177 162.86l-9.146-9.147 18.063-7.706a.4.4 0 0 1 .146-.031c.15 0 .24.151.319.288q.272.42.576.816l.058.071c.053.076.018.151-.035.222zm-13.194-13.195L49.41 138.093c-1.968-1.968-3.396-3.396-4.39-4.624l35.186 7.298.133.022c.217.035.457.075.457.279 0 .222-.262.324-.483.408l-.102.044zM43 127.519c.04-.745.174-1.483.399-2.195.656-2.066 2.438-3.848 6.012-7.422l14.808-14.808a9738 9738 0 0 0 20.51 29.648c.12.159.253.337.116.47-.647.714-1.295 1.494-1.751 2.341a.7.7 0 0 1-.222.275c-.058.035-.12.022-.186.008h-.01zM68.183 99.13l19.912-19.91c1.87.82 8.68 3.697 14.773 6.269 4.611 1.95 8.814 3.724 10.135 4.3.133.054.253.107.31.24.036.08.018.182 0 .266a8.88 8.88 0 0 0 2.319 8.105c.133.133 0 .323-.115.487l-.062.094-20.218 31.314a.6.6 0 0 1-.19.222c-.107.067-.257.036-.382.005a10 10 0 0 0-2.407-.329c-.727 0-1.516.133-2.314.28-.09.013-.173.031-.244-.022a1 1 0 0 1-.2-.227zm23.933-23.932 25.777-25.778c3.569-3.569 5.356-5.356 7.422-6.007a8.87 8.87 0 0 1 5.347 0c2.066.651 3.853 2.438 7.422 6.007l5.586 5.587L125.337 83.4a.7.7 0 0 1-.181.212c-.111.076-.266.045-.4 0a9.3 9.3 0 0 0-8.512 1.641c-.12.124-.297.053-.448-.013-2.394-1.042-21.015-8.912-23.68-10.042m55.447-16.299 16.928 16.928-4.079 25.263v.066a.6.6 0 0 1-.036.169c-.044.089-.133.106-.221.133a8.1 8.1 0 0 0-2.43 1.21 1 1 0 0 0-.089.076c-.048.053-.097.102-.177.111a.5.5 0 0 1-.191-.031l-25.795-10.96-.048-.023c-.164-.066-.359-.146-.359-.314a9.8 9.8 0 0 0-1.375-4.057c-.124-.204-.261-.417-.155-.625zM130.13 97.055l24.181 10.242c.133.062.28.12.337.257a.47.47 0 0 1 0 .253 6 6 0 0 0-.133 1.166v.678c0 .169-.173.24-.332.306l-.049.018c-3.831 1.636-53.78 22.935-53.856 22.935-.075 0-.155 0-.23-.075-.133-.133 0-.319.119-.488l.063-.088 19.871-30.77.036-.053c.115-.186.248-.395.461-.395l.199.031c.452.062.851.12 1.255.12a8.98 8.98 0 0 0 7.493-3.977.7.7 0 0 1 .151-.177c.119-.09.297-.045.434.017m-27.692 40.723 54.445-23.219s.08 0 .155.076c.297.297.55.496.794.683l.119.075c.111.062.222.133.231.248 0 .045 0 .071-.009.111l-4.664 28.65-.018.116c-.031.221-.062.474-.27.474a7.67 7.67 0 0 0-6.088 3.755l-.022.036c-.062.102-.12.199-.222.252-.093.045-.213.027-.31.005l-43.419-8.956c-.044-.009-.674-2.301-.722-2.306"/></svg>