<svg xmlns="http://www.w3.org/2000/svg" fill="none" viewBox="0 0 256 256"><rect width="228" height="228" x="14" y="14" fill="#019639" rx="46"/><path fill="#fff" d="M58.004 74.176v106.501a14.7 14.7 0 0 0 1.026 5.752 14.8 14.8 0 0 0 3.181 4.909 16.29 16.29 0 0 0 20.298 2.021 15.36 15.36 0 0 0 4.957-5.507 15.3 15.3 0 0 0 1.793-7.175c0-25.696-.05-51.392 0-77.088a32022 32022 0 0 0 70.756 84.032 27.94 27.94 0 0 0 11.827 7.089 28.04 28.04 0 0 0 13.792.581 15.4 15.4 0 0 0 8.389-4.702 15.28 15.28 0 0 0 3.938-8.744q.078-54.344 0-108.68a15.5 15.5 0 0 0-4.997-10.088A15.63 15.63 0 0 0 182.432 59a15.63 15.63 0 0 0-10.532 4.077 15.5 15.5 0 0 0-4.997 10.089c0 26.108-.158 52.186 0 78.285-23.116-27.128-45.946-54.492-68.973-81.718a27.75 27.75 0 0 0-11.643-8.687 27.9 27.9 0 0 0-14.459-1.63 15.6 15.6 0 0 0-9.659 4.83 15.45 15.45 0 0 0-4.165 9.93"/></svg>