<svg xmlns="http://www.w3.org/2000/svg" fill="none" viewBox="0 0 256 256"><rect width="228" height="228" x="14" y="14" fill="#f29100" rx="46"/><path fill="#fff" d="M93.472 91.154c5.85-.978 8.288 2.932 11.214 5.375 1.949 1.466 4.386 4.886 6.336 9.284 1.463 3.421 2.927 6.842 3.902 8.796.487 1.955 2.438 4.886 3.413 8.795.974 3.421 3.412 6.353 4.387 7.819 0 0 1.463 3.909 10.726 7.817 1.951.489 5.852 1.956 8.289 2.933 3.901 1.466 7.801.976 12.676.488 3.413 0 5.364-4.886 6.826-8.795.975-2.443 1.951-9.285 2.438-11.239s-.488-3.421.487-4.887c1.462-1.954 1.951-1.955 2.926-4.398 1.951-5.374 11.701-5.863 17.063-5.863 4.388 0 3.902 4.397 11.702 2.931 4.388-.977 8.776.49 13.652 1.955 3.9.977 7.313 2.443 9.751 4.886 1.462 1.955 5.363 10.262 1.462 10.751l1.464 1.466c-.976 3.421-4.389.977-6.339.489-2.925-.489-4.875.488-7.313 1.466-4.388 1.954-10.727 1.466-14.627 4.886-3.413 2.443-3.412 8.796-4.875 12.217 0 0-4.389 11.239-13.652 17.59-2.438 1.467-6.826 5.865-17.064 7.331-4.876.488-8.777.488-13.652.488-2.437-.489-4.388-.488-6.825-.488-1.463 0-5.848-.001-5.851.488l-.488 1.467c.488 0 .488.976.488 1.465.487.977.488 1.954.488 2.932v5.864c.487 3.909 1.95 7.818 1.95 11.727 0 4.887 2.438 9.284 4.388 13.193.488 1.466 1.95 1.466 2.438 3.421.975 1.954 0 4.399.487 6.353.855 7.281 2.833 14.563 5.279 21.843h-7.375c-.747-1.917-1.484-3.611-1.804-4.252-.488-1.955-1.95-5.375-2.438-6.841-.975-1.466-2.926-5.375-3.901-6.353-2.437-2.932-2.925-2.932-3.413-6.351-.975-5.375-4.388-16.127-7.801-23.456-1.949-3.909-4.875-6.841-7.801-9.773-2.437-2.443-7.8-6.352-8.775-6.352-8.776 1.954-11.702 11.239-16.089 18.08-2.438 3.909-4.876 6.841-6.826 11.239-1.463 3.909-1.463 7.817-4.388 11.238s-4.875 6.842-6.339 11.239c-.468.942-.94 9.11-1.842 11.473a224 224 0 0 1-7.478-.264c.83-3.561 1.664-10.665 2.494-13.163.488-2.444 1.464-3.91 1.951-6.353.487-1.955 0-3.909 0-5.863-.488-4.886 3.413-6.842 5.364-10.75 1.462-3.421 2.437-7.819 3.9-11.728 1.462-3.909 3.9-8.796 7.313-10.751-.001-.488-7.314-.977-9.264-.977-2.437-.488-4.388-.489-6.338-.977-3.9-.978-7.8-1.466-11.7-2.443-2.439-.489-10.24-2.933-11.702-3.91-3.9-1.954-6.338-6.841-9.751-6.352-1.95.488-3.901.978-4.875 2.932-.975 1.466-1.463 4.397-1.95 5.863-.976 2.444-2.438 4.398-3.414 6.353-1.95 3.909-5.85 7.33-7.8 10.751-.305.305-.424.799-.585 1.365-.392-6.923-.391-15.425-.391-26.304v-39.563c4.388-1.466 10.726-10.751 12.189-12.706 3.413-3.909 3.9-8.795 5.851-12.216 3.9-7.33 4.875-12.215 13.651-12.215 4.388 0 5.851.977 8.777 4.886 1.95 2.442 5.361 7.329 6.824 10.75 1.95 3.42 4.876 8.796 6.339 9.774l2.926 1.466c1.462.487 2.438-.489 3.413-1.466 1.462-.978 1.95-2.933 2.924-5.865 1.463-3.908 3.413-8.795 4.388-10.261 1.95-2.932 2.438-6.353 4.388-7.82 2.927-2.442 6.826-2.93 7.802-2.93"/></svg>