<svg xmlns="http://www.w3.org/2000/svg" fill="none" viewBox="0 0 256 256"><rect width="228" height="228" x="14" y="14" fill="#32f3ef" rx="46"/><path fill="#fff" d="M151.089 74.1c0 4.253 3.443 7.699 7.691 7.699h29.183c3.428 0 5.142 4.149 2.718 6.568l-37.344 37.375a7.7 7.7 0 0 0-2.256 5.447v12.778c0 5.315 5.268 9.003 9.926 6.466a69.4 69.4 0 0 0 13.156-9.281c1.582-1.415 4.014-1.43 5.515.081l27.198 27.22c1.502 1.504 1.509 3.944-.043 5.396C186.206 193.167 158.48 205 128 205s-58.205-11.833-78.832-31.151c-1.554-1.452-1.546-3.892-.044-5.396l27.198-27.22c1.501-1.503 3.934-1.496 5.516-.081a69.3 69.3 0 0 0 13.156 9.281c4.666 2.537 9.925-1.151 9.925-6.466v-12.778a7.7 7.7 0 0 0-2.257-5.447L65.319 88.367c-2.425-2.426-.71-6.568 2.719-6.568H97.22a7.694 7.694 0 0 0 7.692-7.698V54.849A3.846 3.846 0 0 1 108.757 51h38.464a3.846 3.846 0 0 1 3.845 3.849V74.1z"/></svg>