<svg xmlns="http://www.w3.org/2000/svg" fill="none" viewBox="0 0 256 256"><rect width="228" height="228" x="14" y="14" fill="#0073a1" rx="46"/><path fill="#fff" d="M145.822 52.73c-3.099-.365-5.435 1.687-8.025 2.844-2.082 1.158-4.61.855-6.703 1.737-1.595 3.254-5.322 5.103-7.352 8.11a32.05 32.05 0 0 1-10.984 15.14 30.7 30.7 0 0 0-13.393 19.075c-.82 1.686-.69 4.192-1.567 5.62-2.89.803-1.352-2.9-1.697-4.637-.418-2.641 1.93-4.327 2.11-6.89a10.25 10.25 0 0 0 1.182-5.918c-.317-4.575 1.069-10.155-2.223-13.92-1.974-1.125-1.351-3.502-2.07-5.323a23.8 23.8 0 0 0-7.352-6.401c-2.37-.23-4.559-3.046-6.968-1.816-1.505 1.737-4.316 1.715-5.215 4.008-.566 2.9-3.891 2.101-6.04 2.81-2.76 1.04-6.324.033-8.586 2.146-2.325 2.305-5.848 5.401-4.723 9.026 2.585 4.957 9.304 2.462 13.105 5.474a101 101 0 0 1-4.112 9.998 56 56 0 0 0-.249 13.106c.696 4.345-.47 9.959 3.428 13.033 2.149.77 2.019 3.215 2.828 4.985.757 1.63 2.415-.635 3.07 1.085 1.912 1.034.21 3.153 1.245 4.496 1.487.77 3.614.719 4.65 2.394a38.7 38.7 0 0 1 5.514 4.53c1.3 2.624 3.003-2.552 4.428-.613.962 1.602 2.862 2.934 4.632 1.602a17 17 0 0 0 7.489-3.125 101 101 0 0 1 .967 15.275 65.5 65.5 0 0 1 1.64 11.241 52.5 52.5 0 0 1 1.697 11.408 39.75 39.75 0 0 1-4.01 23.38 5.7 5.7 0 0 1-1.587 2.944 5.74 5.74 0 0 1-2.977 1.552c-1.646.73-5.09 2.057-3.914 4.361a14.5 14.5 0 0 0 14.252 1.203c2.885-1.366.413-4.822 1.89-6.891 1.939-7.306.984-15.123 3.252-22.395a21 21 0 0 0 1.696-11.803c.447-2.472-.593-5.445 1.058-7.469a10.16 10.16 0 0 1 2.732-6.744 82.5 82.5 0 0 0 .814-11.386 18.3 18.3 0 0 1 7.166-.714c.102 2.108-1.538 4.564-1.074 6.935a10.9 10.9 0 0 1-1.454 7.689 15.9 15.9 0 0 0-.91 6.585c.164 2.235.798 4.41 1.86 6.386 4.423 4.715 10.181 8.048 14.344 13.078 1.776 1.152 1.131 2.905.215 4.406a8.6 8.6 0 0 1-2.066 3.594 8.65 8.65 0 0 1-3.517 2.217c-1.742.68-4.558 3.181-2.5 4.957 4.1.899 8.373.618 12.319-.809 2.692-.962 1.697-4.148 2.76-6.115 1.697 1.309 2.392 4.299 4.021 6.008 1.697 2.433 4.565.41 6.538-.349a19.83 19.83 0 0 0-2.104-10.352c-.944-2.124-4.524-2.164-4.355-4.788a66 66 0 0 1 9.683-16.86c2.885-2.692.736-6.694.894-10.116a37.84 37.84 0 0 1 6.131-24.819 89 89 0 0 0 3.914 12.027 34.9 34.9 0 0 0 6.221 12.623c1.341 4.558.996 9.61 1.872 14.337a58.3 58.3 0 0 1-1.368 24.43c.226 2.911-2.585 5.058-2.348 7.913.792 2.636 3.96.523 5.6 1.63a6.32 6.32 0 0 0 4.341-.234 6.26 6.26 0 0 0 3.147-2.981 34.7 34.7 0 0 1-1.397-6.873 41.64 41.64 0 0 1-1.442-20.901c.26-3.76 2.585-8.43-.413-11.645-.837-3.479.566-7.222-.277-10.762a71.9 71.9 0 0 1-.69-27.724c.526-1.276.073-3.647 1.397-4.355a10.35 10.35 0 0 1 1.781 6.923 20.67 20.67 0 0 1 .447 11.696c-2.398 2.984-.922 7.014-.616 10.397.384 2.372 2.918.663 3.331-.809a66.4 66.4 0 0 0 5.339-12.595c1.522-2.001.079-4.327 0-6.418 2.336-.275 1.448-2.844.198-3.934a33.2 33.2 0 0 0-3.772-12.364 58.8 58.8 0 0 1-10.978-15.304c-2.987-9.21-11.55-15.32-14.457-24.61a19.9 19.9 0 0 0-3.304-7.48 20.1 20.1 0 0 0-6.039-5.542 45 45 0 0 0-6.539-2.36 37 37 0 0 1-5.831.73m2.263 82.391a218 218 0 0 1 2.828 24.115 23.36 23.36 0 0 1-4.299 14.146c-.679 2.389-2.749.067-4.247-.09-3.637-.101-4.989-3.838-6.969-6.221-2.036-1.934-.565-4.496.753-6.357 1.425-1.006 1.979-3.254 4.004-3.079 2.262-.04 1.787-2.737 1.471-4.176 1.346-2.035.52-5.013 1.855-7.211 2.37-1.022 1.663-4.608 2.5-6.631.65-1.439.096-4.21 1.889-4.8.209-.034.277.068.237.292z"/></svg>