<svg xmlns="http://www.w3.org/2000/svg" fill="none" viewBox="0 0 256 256"><rect width="228" height="228" x="14" y="14" fill="#4f5b93" rx="46"/><path fill="#fff" d="M102.548 159.577c-.825-5.355-3.093-9.704-8.6-11.808-2.156-.82-4.022-2.318-6.147-3.262-2.413-1.077-4.867-2.103-7.414-2.77-1.929-.513-3.723.349-4.868 2.032-1.083 1.579-.299 3.067.609 4.39 1.02 1.488 2.155 2.903 3.3 4.298 1.897 2.319 3.908 4.545 5.754 6.894 1.763 2.247 3.27 4.74 3.011 7.714-.567 6.525-3.537 11.931-8.322 16.332-.526.472-1.454.81-2.135.749-3.052-.329-5.826-1.478-8.064-3.601-2.568-2.431-2.176-5.293.897-7.068.732-.421 1.495-.81 2.166-1.323 1.877-1.406 2.506-3.806 1.485-5.889-.485-1.005-1.031-2.092-1.836-2.821-3.929-3.559-7.786-7.232-11.994-10.473-10.199-7.879-15.437-18.301-16.242-30.919-.908-14.013 2.361-27.093 9.797-39.065 2.815-4.544 6.094-8.873 11.127-11.12 3.424-1.528 7.177-2.39 10.839-3.344 10.075-2.636 20.243-4.616 30.731-2.852 9.034 1.508 15.645 6.135 18.677 14.967 1.99 5.776 2.464 11.746 1.846 17.86-1.217 12.013-10.138 22.754-21.77 25.934-5.043 1.374-7.797.605-10.829-3.57-2.175-3.006-3.98-6.278-5.93-9.449-.288-.471-.494-1.015-.742-1.518-.237-.502-.495-.985-.742-1.487.732 5.211 1.949 10.228 4.805 14.7 1.547 2.431 3.61 4.226 6.631 4.493 11.117.995 20.502-2.636 27.164-11.531 7.456-9.95 9.096-21.399 6.94-33.452-.423-2.38-1.134-4.709-1.64-7.078-.34-1.529.269-2.657 1.784-3.19a18 18 0 0 1 2.125-.575c9.096-1.95 18.295-2.596 27.566-1.662 10.519 1.046 20.47 3.918 29.37 9.735 13.932 9.12 22.564 22.097 27.256 37.793.681 2.277.784 4.77.846 7.171.041 1.6-.99 2.02-2.217 1.015-1.351-1.098-2.589-2.349-3.754-3.642-1.083-1.22-1.949-2.615-3.001-3.898-.815-1.005-1.526-.851-1.918.4a63 63 0 0 0-.681 2.267c-2.434 8.638-6.27 16.516-12.488 23.154-.867.933-1.64 2.318-1.743 3.549-.268 3.406-.464 6.883-.134 10.279.68 7.294 1.743 14.556 2.568 21.84.464 4.114-.867 6.535-4.754 7.961-2.733.995-5.662 1.723-8.549 1.929-4.6.318-9.24.092-13.86.092-.124-5.129.319-10.166-4.528-12.916.939-3.806 2.022-7.416 2.671-11.109.537-3.068.083-6.084-2.083-8.597-2.031-2.37-4.579-3.016-6.91-1.662-7.022 4.073-14.324 4.093-21.759 1.426-3.414-1.231-5.796-.533-7.683 2.565-2.032 3.334-2.888 7.078-2.661 10.864.289 4.77 1.124 9.489 1.763 14.238.351 2.657.052 3.344-2.598 4.021-5.889 1.488-11.88 1.652-17.903 1.17-.32-.031-.64-.164-.846-.216-.299-4.975.227-10.145-5.734-12.792 2.64-5.57 2.279-11.346 1.372-17.121zm-35.33-49.056c-.011-2.113-1.785-3.877-3.878-3.888-2.156-.01-4.012 1.909-3.94 4.022.093 2.123 1.867 3.826 3.991 3.785a3.88 3.88 0 0 0 3.837-3.908z"/></svg>