<svg xmlns="http://www.w3.org/2000/svg" fill="none" viewBox="0 0 256 256"><rect width="228" height="228" x="14" y="14" fill="#4e4e4e" rx="46"/><path fill="#fff" fill-rule="evenodd" d="M85.24 242c-23.94 0-36.09-.1-45.48-4.7a46 46 0 0 1-21.07-21.06c-4.63-9.45-4.69-21.69-4.69-45.92h71.24zm7.13 0h71.25v-71.68H92.37zM242 170.32h-71.24V242c23.94 0 36.09-.1 45.48-4.7a46 46 0 0 0 21.07-21.06c4.63-9.45 4.69-21.69 4.69-45.92m-149.63-7.17h71.25V91.48H92.37z" clip-rule="evenodd"/><path fill="#f9ad00" fill-rule="evenodd" d="M170.76 85.68H242c0-24.23-.06-36.47-4.7-45.92a46 46 0 0 0-21.06-21.07c-9.4-4.6-21.54-4.69-45.48-4.69zM163.62 14H92.37v71.68h71.25zM14 85.68c0-24.23.06-36.47 4.69-45.92A46 46 0 0 1 39.76 18.7c9.4-4.61 21.54-4.7 45.48-4.7v71.68zm228 78.84V92.85h-71.24v71.67z" clip-rule="evenodd"/></svg>