<svg xmlns="http://www.w3.org/2000/svg" fill="none" viewBox="0 0 256 256"><rect width="228" height="228" x="14" y="14" fill="#4e4e4e" rx="46"/><path fill="#fff" fill-rule="evenodd" d="M85.242 242c-23.94-.002-36.09-.091-45.48-4.691a46 46 0 0 1-21.071-21.072C14.063 206.792 14 194.55 14 170.322h71.242zm7.125 0h71.25v-71.678h-71.25zM242 170.322h-71.242V242c23.94-.002 36.09-.091 45.479-4.691a46 46 0 0 0 21.072-21.072c4.628-9.445 4.69-21.687 4.691-45.915m-149.633-7.168h71.25V91.476h-71.25z" clip-rule="evenodd"/><path fill="#f9ad00" fill-rule="evenodd" d="M170.758 85.678H242c-.001-24.228-.063-36.47-4.691-45.915a46 46 0 0 0-21.072-21.072c-9.389-4.6-21.539-4.69-45.479-4.691zM163.617 14h-71.25v71.678h71.25zM14 85.678c0-24.228.063-36.47 4.69-45.915A46 46 0 0 1 39.764 18.69C49.152 14.09 61.303 14 85.242 14v71.678zm228 78.846V92.846h-71.242v71.678z" clip-rule="evenodd"/></svg>