<svg xmlns="http://www.w3.org/2000/svg" fill="none" viewBox="0 0 256 256"><rect width="228" height="228" x="14" y="14" fill="#292826" rx="46"/><path fill="#fb4934" d="M215.927 124.385c-.056-2.261-.176-4.585-.295-6.846s-.176-4.642-.415-6.966c-.415-3.149-.83-6.367-1.546-9.447a54 54 0 0 0-2.319-7.438 90 90 0 0 0-3.684-8.515 132 132 0 0 0-8.171-12.445c-1.842-2.62-4.218-4.761-6.003-7.438a18.3 18.3 0 0 0-3.978-4.05c-2.376-1.889-4.872-3.634-7.367-5.296-1.886-1.31-3.772-2.557-5.821-3.69-1.602-.895-3.325-1.607-4.99-2.382a25.4 25.4 0 0 0-5.884-2.38 16 16 0 0 1-1.546-.479c-1.364-.479-2.671-1.014-4.041-1.43-2.081-.63-4.099-1.43-6.236-1.965a57 57 0 0 0-6.354-1.19c-2.376-.359-4.815-.479-7.191-.712-1.546-.176-3.093-.359-4.576-.415-2.257-.12-4.576-.12-6.832-.177a34 34 0 0 0-3.445-.12q-2.595.108-5.167.48c-1.665.176-3.325.478-4.934.711-1.961.24-3.922.359-5.883.598-1.842.24-3.771.599-5.582.895-.628.12-1.307.359-1.961.478a38 38 0 0 0-4.337.895 116 116 0 0 0-7.605 2.62q-3.468 1.394-6.77 3.149c-2.256 1.26-4.4 2.74-6.537 4.169-2.018 1.367-4.041 2.796-6.003 4.346a69 69 0 0 0-5.405 4.824c-.95.951-1.723 2.085-2.615 3.15-1.483 1.725-2.973 3.394-4.4 5.176-1.188 1.486-2.256 3.036-3.388 4.585a76 76 0 0 0-5.349 8.572c-.628 1.19-1.257 2.38-1.841 3.57-.893 1.79-1.842 3.515-2.672 5.36a22.7 22.7 0 0 0-1.427 3.987 496 496 0 0 0-2.438 8.817 33.4 33.4 0 0 0-.918 8.012c-.01 2.368.128 4.734.415 7.085.056.592-.296 1.31.415 1.789.056 0 0 .239-.063.296a.57.57 0 0 0-.02.502.58.58 0 0 0 .378.329.2.2 0 0 1 .056.12H40.9c-.176.535.415.951.176 1.549-.057.12.176.359.295.535q-.045.297 0 .592.2.825.295 1.669c0 .416.359.895.478 1.31a.7.7 0 0 1-.12.592c-.358.416-.295.775.24 1.014a.7.7 0 0 1 .295.416q-.045.542-.176 1.071c.12.119.176.239.12.359-.057.119-.176.359-.12.478.444.972.686 2.024.71 3.093.033.27.114.533.24.774a.9.9 0 0 1 .357.057l-.358 1.071q.398-.218.83-.359.234 1.088.597 2.141c.087.148.21.272.358.359-.063.12-.063.359-.176.416.166 1.053.425 2.09.773 3.098.063 0 .12-.063.176-.063-.176-1.07-.295-2.204-.477-3.275v-.359a.7.7 0 0 1 .176-.063q.12.349.176.712c.477 0 1.188.296 1.665.296q.075-.272.176-.535c-.358-.359-.628-.895-1.012-1.26a1.84 1.84 0 0 1 0 .832 12 12 0 0 0-.83-.359q.387-.501.83-.951c0-.536-.295-1.014-1.131-.951.358-.12.716-.297 1.131-.416q.074.245.176.478c.478-.831-.239-1.486-.239-2.324a15.5 15.5 0 0 0-.71-3.098c-.295-1.669-.239-4.169-.415-5.832 0-.12-.176-.24-.295-.359-.063.063-.358.831-.415.894.176 1.43.358 2.859.478 4.289-.057 0-.12 0-.12.057-.238-1.26-.477-2.557-.773-3.987a7 7 0 0 0-.12.831c-.175-.056-.238-.119-.533-.239.238.535.477.894.628 1.31a1.95 1.95 0 0 0-.892-.12v1.669a8 8 0 0 1-1.069-1.486c-.12-.479-.176-.951-.295-1.43l.176-.063a3.2 3.2 0 0 1-.176-.592 50 50 0 0 1-.176-1.429c.056-.057.295-.12.415-.24l-.478-.711q.53.089 1.068.119c0-.119.057-.176 0-.239-.597-.535-.176-1.014.057-1.486.12-.24.534-.296.628-.536.478-.894 1.258-1.606 1.258-2.739q.075-.84.238-1.669c.12-1.014.24-2.022.296-3.036a27.5 27.5 0 0 1 .352-3.842 70.4 70.4 0 0 1 3.325-10.656 69 69 0 0 1 2.854-6.846c1.602-3.212 3.444-6.298 5.23-9.447 1.13-1.965 2.319-3.779 3.563-5.713 1.245-1.933 2.376-3.778 3.771-5.479a48.3 48.3 0 0 1 6.286-6.726c2.376-2.142 4.632-4.346 7.19-6.298A72.7 72.7 0 0 1 88.4 55.572a80 80 0 0 1 9.359-4.056c2.017-.774 4.217-1.127 6.285-1.788a25 25 0 0 1 7.248-1.19c1.602-.057 3.142-.24 4.752-.416 1.426-.12 2.853-.24 4.399-.416a2.6 2.6 0 0 0-.295.478c-.629.952-1.364 1.89-2.018 2.86-.534.775-1.131 1.606-1.665 2.38-.949 1.26-1.961 2.52-2.854 3.78-1.364 1.964-2.615 3.986-4.042 5.951s-2.973 3.69-4.456 5.536c-1.961 2.557-3.771 5.177-5.764 7.74-1.785 2.444-3.683 4.762-5.406 7.205-1.546 2.142-2.91 4.41-4.4 6.607-2.2 3.275-4.4 6.487-6.593 9.762a443 443 0 0 1-5.23 7.444 1.4 1.4 0 0 1-.477.359c-.12.12-.358.24-.358.359a7 7 0 0 1-.296 1.191c-.478.894-.949 1.788-1.483 2.62-.296.478-.71.894-1.069 1.366-.12-.056-.176-.119-.295-.119.239-.599 1.257-.951.773-1.846-.296.479-.597.895-.893 1.367l-.71 1.43c.239.176.629.296.239.63-.176.296-.358.629-.534.951.063 0 .063.056.119.056.176-.239.358-.415.534-.63.057 0 .12.063.176.063a8.7 8.7 0 0 1-.83 1.669c-.343.47-.769.874-1.257 1.191.063.056.478.239.535.296.176-.24.239-.12.415-.359.119.176.295-.12.358.057a2.8 2.8 0 0 0 .415-.593 2.16 2.16 0 0 1 1.188-1.31c.228-.112.436-.261.616-.44 1.785-1.846 3.627-3.634 5.23-5.593 2.513-3.036 4.751-6.191 7.127-9.29 1.012-1.31 2.2-2.62 3.269-3.867.119.063.239.063.295.12-.12 1.26-.239 2.557-.295 3.779-.176 2.204-.296 4.408-.478 6.669-.057.895 0 1.789-.057 2.677 0 .239-.176.416-.176.63 0 .592.176 1.26.176 1.845-.176 2.205-.415 4.346-.597 6.55.007.471.107.936.296 1.367a1.6 1.6 0 0 0-.296-.239 65.6 65.6 0 0 1 .12 10.24c.239-.063.358-.119.358-.239q.132-.623.176-1.26a7 7 0 0 0 0-1.133v-.592c.148-1.085.206-2.181.176-3.275a11.2 11.2 0 0 1 .12-3.452c.119-.478-.057-1.07.238-1.669v.895a84 84 0 0 1-.415 10.177c-.056.296.176.832-.477.775-.063 0-.12.296-.24.479-.295.592.36 1.366-.238 1.965-.12.119.12.629.176 1.014 0 .119.063.239 0 .296-.239.415-.239.415.12.478.062 1.31.175 2.52.238 3.779h.176c.417-2.287.655-4.603.71-6.928q.122 1.457.063 2.916c0 1.55-.062 3.036-.12 4.585q-.015.453-.119.895a16 16 0 0 1-.534 2.443 6.7 6.7 0 0 0-.12 2.205v2.261c0 .063.177.239.177.478.056.536-.24 1.071-.063 1.669.063.12-.057.296-.12.416a.84.84 0 0 0-.056.535l.176.895c0 .056.063.119.12.239a2 2 0 0 0 .062-.479c1.012.12.478 1.014.95 1.487-.24.119-.416.176-.416.239q.128.304.177.63-.015.778-.12 1.549c0 1.367-.063 2.74-.063 4.05 0 .176.063.359.063.535s-.063.239-.063.416v1.259h.239q-.18.29-.415.536c-.056 0-.239 0-.239-.057v-7.444h-.873a63 63 0 0 1-.478 10.121q-.856.137-1.722.176c-1.842 0-3.684 0-5.525.057-2.2 0-4.337.063-6.537.063-1.069 0-2.2.119-3.269.119-1.427 0-2.91-.176-4.337-.176-2.2 0-4.337.176-6.537.239-1.603.057-3.205.057-4.815.12a56 56 0 0 0-3.205.239q-.758.149-1.484.416a5 5 0 0 0-.949 0c-.597.12-1.131.479-1.722.598-.892.177-1.131.416-1.012 1.31v.592a1.8 1.8 0 0 0-.415-.296.2.2 0 0 0-.12.057c.057.176.177.296.24.479.239-.12.534-.416.773-.416h.83c-.12 0-.176.359-.359.63.478-.177.773-.296 1.069-.416q.062.235.056.479a7.8 7.8 0 0 1 2.32-.12 47 47 0 0 0 7.07 1.071c1.547.119 3.03.176 4.577.239 2.2.12 4.4.239 6.593.239 1.842 0 3.627-.176 5.469-.176 2.552 0 5.11.12 7.662.176.534 0 1.131-.063 1.722-.063h4.337c3.86-.119 7.725-.176 11.584-.296 2.2-.056 4.457-.176 6.657-.239l6.769-.176c2.615-.057 5.23-.057 7.782-.12 1.961 0 3.859-.057 5.82-.12 2.2-.062 4.457-.239 6.657-.359 1.188-.056 2.376-.176 3.564-.296 1.427-.119 2.91-.296 4.337-.358 2.137-.12 4.337-.177 6.474-.297 2.671-.176 5.349-.415 8.077-.478 2.514-.12 5.028-.057 7.543-.12 2.199-.057 4.399-.176 6.656-.239l3.771-.176s2.515-.057 3.772-.177c2.137-.12 4.28-.359 6.417-.416 1.364-.056 2.734 0 4.098-.056 2.2-.063 4.457-.177 6.657-.177.829 0 1.722.12 2.791.177-.478.415-.774.63-1.132.951q.371.11.71.296c0 .063-.056.119-.056.239-.296 0-.591.063-.893.063a3.8 3.8 0 0 0-.358 1.014h1.069c-.415 0-.774.535-1.188.894.062.057.119.057.176.12-.629-.239-1.069-.12-1.308.535q.235.074.478.057c-.057.176-.119.359-.176.592a.9.9 0 0 0-.12.416l-.175-.177a.8.8 0 0 0-.057-.359c-.358.359-.893.599-.597 1.367-.239.12-.534.239-.83.416q.138.197.239.416c-.534.056-1.069.176-.949.831.239.057.478.176.628.239-.295.12-.59.296-.892.416-.063.12-.12.416-.239.479-.83.176-.358.478-.119.774a2.4 2.4 0 0 1-.535.296.96.96 0 0 1 .415.24 3.5 3.5 0 0 1-.415.239q.17.107.359.176-.359.265-.893.712a.54.54 0 0 0 .057.296 5 5 0 0 0-.711.831q-.28.613-.628 1.191a22 22 0 0 1-3.772 4.049 13 13 0 0 0-1.665 1.487c-1.069 1.014-2.018 2.141-3.143 3.098-1.483 1.26-3.03 2.381-4.632 3.515-1.962 1.366-3.923 2.739-5.884 4.049-1.068.712-2.256 1.26-3.388 1.89-1.131.629-2.2 1.259-3.325 1.889a17 17 0 0 1-2.137 1.486c-1.961.832-4.041 1.55-6.059 2.324-.176.057-.296.12-.478.177-1.483.63-2.91 1.366-4.4 1.889a34 34 0 0 1-4.217 1.134 13 13 0 0 1-1.547.057c-1.012.176-2.017.415-3.029.535-2.615.359-5.23.592-7.845.951-1.546.176-3.029.479-4.576.63-1.068.063-2.199-.057-3.268-.057-.789.078-1.584.097-2.376.057-1.257-.177-2.514-.479-3.771-.712a1.77 1.77 0 0 0-.949-.057c-.478.24-.893-.119-1.364 0-.296.057-.591-.176-.893-.176s-.534.057-.83 0a5.5 5.5 0 0 0-1.961-.359 7.7 7.7 0 0 1-2.2-.479l-3.142-.711a5.2 5.2 0 0 1-1.188-.536 1.14 1.14 0 0 1-.535.177 16.5 16.5 0 0 1-2.973-.592 5.3 5.3 0 0 0-2.514-.592c-.239.056-.415-.063-.629-.063-.176-.24-.358-.712-.534-.712-1.188.063-1.885-.951-2.91-1.26-.534-.176-.95-.774-1.483-.951-1.308-.535-2.376-1.669-3.86-1.845a8.5 8.5 0 0 1-1.483-.479q.217.317.478.599l-.12.119a251 251 0 0 0-4.815-2.796c-.239-.063-.415-.296-.597-.416l-1.603-1.07c-.175-.12-.534-.296-.534-.24-.358.416-.71.063-.949-.056-1.603-1.134-3.444-1.846-4.99-3.099a9.8 9.8 0 0 1-1.886-1.549 9.35 9.35 0 0 0-2.973-2.324c-.893-.479-1.723-1.014-2.552-1.55a1.58 1.58 0 0 1-.83-1.31c0-.415-.176-.831-.71-.592-.24-.359-.478-.774-.773-.894a6.3 6.3 0 0 1-1.723-1.31c-.534-.479-.949-1.134-1.603-1.367a7.1 7.1 0 0 1-2.614-2.324c-1.666-1.965-3.143-4.106-4.696-6.191a4.3 4.3 0 0 0-.534-.478l-.063.063c.296.592.597 1.133.893 1.725-.063.057-.176.12-.24.177-.357-.416-.772-.832-1.13-1.26-.063.063-.12.12-.176.12l4.23 6.89c.358.535.628 1.07 1.012 1.606a.8.8 0 0 1-.24.176 2.33 2.33 0 0 1-1.545-1.134 2.204 2.204 0 0 0-2.32-1.429q-.19-.646-.295-1.31a5 5 0 0 1-.83-.057c.83 1.31 1.546 2.444 2.32 3.779l-.591-.359c1.068 1.134 1.841 2.557 3.205 3.275.296 1.367 1.842 2.022 2.2 3.332l-.83-.177c-.477-.592-1.011-1.19-1.546-1.845.105.389.287.753.535 1.071q1.005 1.36 2.2 2.557c.295.296.71.415.71.951q.213-.19.478-.296a4 4 0 0 0-.24.535c.24 0 .415.057.598.057.12.359-.063.894.628.774.063 0 .12.057.176.12.296.775.773.775 1.427.479a.46.46 0 0 1 .478.119c.295.63.71.712 1.257.24 0 .296.056.592.056.831h.27c0-.12-.056-.296-.056-.592.296.239.478.359.597.479a10.1 10.1 0 0 0 1.962 2.261c1.13.951 2.136 1.965 3.205 2.859a45.4 45.4 0 0 0 6.713 4.465c2.854 1.606 5.582 3.332 8.498 4.881a45.8 45.8 0 0 0 11.113 3.987c1.427.296 2.791.592 4.218.951 1.257.359 2.514.894 3.771 1.19 1.886.416 3.859.775 5.764 1.134l1.307.176v.12c.535 0 1.188-.239 1.308-.063.295.479.534.239.892.176a5 5 0 0 1 1.364-.119q2.459.28 4.934.296c.359 0 .893-.296 1.188.296.12-.063.176-.12.296-.177.239-.063.534-.063.773-.119v.113a3 3 0 0 1-.478.12q.32.066.629.176a.8.8 0 0 1-.296.176 2.7 2.7 0 0 0-.534.296c1.955.448 3.985.448 5.94 0v-.359h.239q.019.194.119.359a19 19 0 0 0 7.964-1.014c.239.296.415.712.773.12.119-.176.415-.239.629-.296a3.26 3.26 0 0 1 1.653-.208c.534.177.71-.296 1.131-.296q1.017.004 2.018-.176c.358-.057.71-.239 1.131-.359a.2.2 0 0 0-.009-.094.2.2 0 0 0-.047-.082 10 10 0 0 0-1.257-.12c.71-.359 1.363-.63 2.017-.951 0 .057.063.057.063.12-.176.056-.295.296-.534.296h.829c-.176 0-.414.535-.71.894l6.003-1.486v-.12c-.239.057-.415.057-.597.12-.057-1.26 1.307-.832 1.785-1.55-.597.177-1.188.359-1.785.479v-.12c2.017-.894 4.098-1.788 6.122-2.676 0 .063.063.063.063.119-.359.24-.71.416-1.257.712q.389.039.773.12c0 .176 0 .296-.057.359 1.012-.063.773-.951 1.069-1.487.176.057.415.177.597.12a15 15 0 0 0 1.546-.479 20 20 0 0 0 1.785-.598c.949-.416 1.842-.951 2.791-1.43q.355-.044.71 0a.63.63 0 0 0 .415-.239c.239-.176.478-.535.629-.479a1.33 1.33 0 0 0 1.031-.126 1.35 1.35 0 0 0 .634-.825c.063 0 .063-.063.12-.063q.426-.343.892-.63c1.308-.711 2.552-1.429 3.86-2.141.056-.057.176 0 .295 0 .18.014.361-.005.534-.057.774-.359 1.484-.774 2.2-1.19-.176-.063 0-.12-.591-.176v-.126a7 7 0 0 0 1.132-.296l-.12-.12c1.547-1.549 3.508-2.677 4.991-3.987q.293.087.597.12a1.4 1.4 0 0 0 .063-.479q.338-.488.773-.894c1.308-1.19 2.735-2.204 3.922-3.451a84 84 0 0 0 4.935-5.36 48.5 48.5 0 0 0 4.041-5.177c1.666-2.557 3.093-5.177 4.576-7.86 1.069-1.889 2.018-3.779 3.093-5.712.119-.177.358-.416.534-.416 1.603-.176 3.206-.296 4.752-.479a4.6 4.6 0 0 0 1.131-.478c-.176-.296-.295-.63-.477-.951-.183-.321-.591-.63-.83-1.014a5.7 5.7 0 0 1-.597-1.014c-.176-.296-.359-.536-.535-.832a22 22 0 0 1-1.012-2.021 1.3 1.3 0 0 1-.119-.63c1.069-2.324 1.483-4.824 2.514-7.142a36.5 36.5 0 0 0 1.785-7.621c.415-2.443.629-4.881.949-7.324.176-1.726.415-3.395.478-5.121.264-2.611.323-5.239.176-7.86zM66.564 190.823c-.415-.478-.773-1.014-1.188-1.486l.176-.176c.628.718 1.307 1.429 1.96 2.204a2.9 2.9 0 0 1-.948-.542m.949.542c.176-.057.358-.063.534-.126.176.296.295.63.478 1.014-.83-.057-1.257-.409-1.012-.888M129.3 215.77l3.325-.359v.176a31 31 0 0 1-3.325.36zm14.972-1.398c-.83.176-1.722.296-2.552.416-.295.063-.628.359-.773-.177-.119.057-.239.057-.358.12.295.894 1.012.176 1.603.535-1.308.177-2.552.296-3.772.479v-.12l1.132-.176v-.183a18 18 0 0 0-1.786-.119c-.176 0-.414.239-.59.296a3 3 0 0 1-.773.119c-1.012.057-2.018.057-2.974.12-.056 0-.176-.063-.238-.063v-.176l11.879-1.606c.057.119.057.239.12.359a4 4 0 0 0-.893.176zm.893-.598c1.364-.177 2.614-.296 3.922-.479-2.734.775-3.627.894-3.922.479M93.428 93.613c1.886-2.62 3.86-5.24 5.764-7.917.59-.775 1.069-1.606 1.666-2.38q.317-.344.71-.6l-.063-.119q.33-.36.591-.774.409-.75.71-1.55a.9.9 0 0 1 .239-.24c.83.417.83-.478 1.131-.774.535-.592 1.069-1.26 1.547-1.845q.556-.679 1.012-1.43c.056-.176-.12-.478-.176-.711h-.176c.176-.12.358-.296.534-.416.063 0 .063 0 .119-.057.359-.535.711-1.07 1.069-1.55a26 26 0 0 1 2.319-2.739c-.119.296-.239.599-.358.832.057 0 .057.063.119.063.711-.952 1.484-1.846 2.2-2.797-.062-.056-.119-.12-.176-.12-.295.296-.534.593-.829.895-.063-.057-.12-.12-.176-.12a43 43 0 0 0 1.785-2.443q.263.433.477.894c.239-.599.478-1.014.629-1.43-.176.177-.415.36-.591.535l-.182-.188 1.068-1.606c1.132-1.606 2.257-3.275 3.388-4.881.415-.599.949-1.071 1.308-1.67a63 63 0 0 1 4.28-6.134 10 10 0 0 1 1.069-1.133c.295-.36.534-.24.773.063 1.603 2.021 3.206 4.106 4.815 6.134 1.188 1.486 2.376 2.916 3.507 4.465 1.364 1.89 2.671 3.78 4.042 5.713 1.546 2.204 3.092 4.408 4.576 6.67 2.256 3.331 4.399 6.669 6.656 10 1.666 2.444 3.325 4.825 4.934 7.262h-3.03c-2.79-.063-5.657-.296-8.435-.176-3.771.176-7.662.592-11.465.894-4.814.416-9.686.479-14.494.479-1.722 0-3.445.24-5.167.359-2.08.12-4.098.24-6.179.296-2.438.12-4.814.176-7.247.24-1.364.062-2.79 0-4.28 0zm68.136 27.384v.535c-.057 0-.12.057-.239.057-.239-.832-.478-1.726-.773-2.557a20 20 0 0 0-2.32-5.001c-1.188-1.669-2.256-3.395-3.444-5.12a9.6 9.6 0 0 0-1.069-1.134 20.8 20.8 0 0 0-4.098-3.779 48.7 48.7 0 0 0-7.429-3.779 17 17 0 0 1-2.081-1.07h1.427l10.157-.177c2.2-.063 4.337-.063 6.537-.176a1.17 1.17 0 0 1 1.132.63 62 62 0 0 0 1.665 2.676c.095.144.155.308.176.479 0 1.31 0 2.677.057 3.987.056 1.31.176 2.676.239 4.049s-.12 2.797-.063 4.226c.063 2.022.119 4.107.119 6.191zm-63.925-19.946c2.791-.12 5.469-.296 8.172-.416 2.137-.12 4.337-.176 6.474-.296.869-.09 1.745-.09 2.615 0q-1.428.669-2.735 1.549c-1.068.712-2.08 1.669-3.142 2.444a18 18 0 0 0-2.911 2.74c-1.131 1.366-2.376 2.557-3.564 3.867a37 37 0 0 0-2.514 2.859c-1.012 1.31-1.885 2.74-2.853 4.226.295-5.668.628-11.248.414-16.967zm38.795 57.268c-1.913.539-3.856.96-5.82 1.26a36.5 36.5 0 0 1-5.111.176c-1.546 0-3.029-.057-4.576-.176a15.5 15.5 0 0 1-5.11-1.134c-1.427-.63-2.91-1.26-4.337-1.965a11.5 11.5 0 0 1-3.922-2.859 23 23 0 0 0-2.791-2.557 2.8 2.8 0 0 0 1.257 1.725c-.295.359-.71.177-1.307-.774a4 4 0 0 1-.478.239c.176-.416.352-.831.528-1.19-.239-.479-.528-1.014-.767-1.487a46 46 0 0 1-1.364-2.38c-.119-.177-.119-.359-.238-.536a13 13 0 0 1-.83-1.07 24 24 0 0 0-1.483-2.205c0 .177.056.359.056.592a.2.2 0 0 0-.119.057l-1.258-3.036c-.062 0-.062 0-.119.063l1.069 3.93c-.063 0-.12.063-.176.063a3.4 3.4 0 0 1-.478-.774c-.12-.479-.478-.479-.773-.296a.82.82 0 0 0-.239.711c.415 1.014.892 2.022 1.364 3.036q.17.523.415 1.014c.063.12.239.239.239.416q.302.71.71 1.366c.534.712 1.131 1.43 1.666 2.142.534.711 1.012 1.486 1.483 2.204.063.12.239.12.295.176.296.895 1.308 1.55 2.018 1.191.176 1.366 1.666 1.845 2.257 3.149a24 24 0 0 1-1.723-.775c-.056.063-.056.12-.119.239a23 23 0 0 1 2.08 1.134q.896.514 1.723 1.134a5.43 5.43 0 0 0 2.558 1.259.6.6 0 0 0-.12-.239c1.666.775 3.388 1.606 4.696 2.261-6.179.12-12.772.239-19.605.359 0-1.134-.056-2.204-.056-3.332q.072-.681.056-1.366c-.176-2.74-.176-5.48-.534-8.156a58 58 0 0 1-.296-8.515c.057-1.55-.062-3.149-.119-4.705 0-2.085 0-4.106.057-6.191.024-.29.105-.573.238-.831h.176c.057.119 0 .296.12.359.176.176.478.478.597.415.358-.239.892-.478 1.012-.831.28-.701.421-1.45.415-2.204a2.14 2.14 0 0 1 .478-1.26q.165-.287.295-.592c-.239-.176-.478-.296-.773-.535.239-.63.176-1.43 1.068-1.789.12-.063.12-.359.176-.535l.176-1.487q.126.198.296.359a.8.8 0 0 1 .119-.176c0-.239-.056-.712 0-.712.71-.119.415-.894.773-1.259.057-.057-.063-.24-.063-.359 0-.12 0-.296.063-.296.83-.177.711-1.071 1.257-1.487.176-.119.239-.296.478-.592.478.832-.358 1.26-.415 1.846 1.012-.599 1.308-2.022.711-2.444q.355-.274.628-.63c.629-.712 1.364-1.367 1.961-2.085.415-.535.629-1.19 1.069-1.725a3.4 3.4 0 0 1 1.068-.712 7.3 7.3 0 0 0 2.735-2.261q.221-.201.477-.359c.176-.12.534-.12.591-.296s-.119-.416-.239-.592c.239-.12.478-.359.949-.592-.176.359-.239.592-.358.831l.295.296c.535-.415 1.364-.894 1.886-1.259 0-.057-.295-.296-.295-.296-.359.176-.893.478-1.427.711.119-.176.119-.296.176-.359a22 22 0 0 1 2.552-1.486c2.08-.951 4.161-1.889 6.235-2.796a2.9 2.9 0 0 1 1.257-.057c.162.011.324-.009.478-.057.949-.296 1.886-.592 2.854-.831a5 5 0 0 1 1.307-.176c1.785.056 3.564.056 5.349.176a9 9 0 0 1 2.2.479q1.375.475 2.671 1.133a30 30 0 0 1 2.911 1.789c1.722 1.134 3.325 2.381 5.028 3.395a13.4 13.4 0 0 1 4.042 3.93 18.3 18.3 0 0 1 3.388 5.775l.892 3.93c.319.709.461 1.485.415 2.261-.296 1.486-.534 3.036-.773 4.522a6 6 0 0 0-.176 1.782 11.1 11.1 0 0 1-1.308 5.121c-.238.535-.597 1.07-.892 1.669q.22.155.478.239l.534-1.071c.056 0 .056 0 .119.063-.295.832-.534 1.726-.829 2.557-.711 1.846-1.427 3.779-2.32 5.536a29 29 0 0 1-1.885 2.797c-.598.831-1.069 1.725-1.666 2.519-.5.682-1.1 1.285-1.779 1.789a45.5 45.5 0 0 1-4.991 3.331 12.5 12.5 0 0 1-3.507 1.31zm-31.667-3.149-.056.057a1.5 1.5 0 0 1-.415-.24l-1.44-2.141a.7.7 0 0 1-.119-.598 41 41 0 0 0 2.018 2.916zm36.953 8.156a24 24 0 0 0 6.914-4.585q.433-.463.949-.831a20.9 20.9 0 0 0 6.003-6.072 83 83 0 0 0 4.695-8.748q.162-.324.359-.63a135 135 0 0 0 1.546 20.154l-20.441.712zm60.247-1.782c-.063.119-.176.239-.239.359a4 4 0 0 1-.119-.536c-.358.951-1.131.479-1.666.479-3.205.057-6.474.057-9.686.057-3.092 0-6.235 0-9.328.063-1.012 0-2.08.239-3.092.296-2.439.119-4.871.176-7.31.239-.176 0-.358-.296-.629-.535a4 4 0 0 1-.358.535c-.057-.12-.176-.239-.295-.416a4 4 0 0 1-.176.479h-.214a17 17 0 0 1-.358-2.444c0-1.788.176-3.571.238-5.359.057-.832 0-1.606 0-2.381l.629.479q.16-.312.358-.599a1 1 0 0 1-.239-.176c.12-.057.239-.176.239-.239q.114-.23.176-.479a6.3 6.3 0 0 0-.176-1.134.2.2 0 0 0 .094-.009.2.2 0 0 0 .082-.047l.359 1.782h.176c-.239-.416.534-.775-.12-1.26-.056-.056.063-.415.063-.592a13 13 0 0 1-.478-1.19q.193-.121.415-.176a5 5 0 0 0-.591-.296c.591-.536.591-.832.063-1.43.12-.057.239-.057.239-.12a7.4 7.4 0 0 0-.119-1.606c-.12-.592.176-1.31-.711-1.669q.084.257.239.479a1.7 1.7 0 0 0-.358.176c-.773-.711-.296-1.669-.478-2.739q.516.151 1.012.359c-.119-.416-.415-.895-.591-1.43h-.239v-3.924c0 .057.415.057.629.12 0-.057.057-.12.057-.176-.176-.24-.415-.479-.629-.775l.119-.12a2.13 2.13 0 0 1-.238-1.606v-4.169c.59.592-.296 1.367.59 1.726v-.605h-.056c-.063-.894-.063-1.789-.12-2.677h-.119c-.057.12-.057.177-.119.296h-.12l.358-14.227q.92 1.067 1.666 2.261a62 62 0 0 0 4.815 6.928c1.427 1.965 2.734 4.106 4.041 6.134 1.603 2.444 3.143 4.881 4.752 7.325a184 184 0 0 0 3.684 5.479c1.131 1.606 2.319 3.149 3.507 4.705 1.012 1.367 2.081 2.74 3.086 4.106a372 372 0 0 0 3.564 4.944c.591.832 1.257 1.669 1.886 2.519.372.427.794.808 1.257 1.134a.45.45 0 0 1-.239-.063q.192.28.415.535c.628.359.71.712.358 1.26zm3.03-14.883v-.415c0 .119.056.296 0 .415m2.018-26.25a3 3 0 0 1-.478-.416c-.063.177 0 .359-.12.592-.056-.176-.477-.119-.477-.296-.063.832.358 1.669.295 2.519.176-.119.893-.176 1.069-.359a.44.44 0 0 0 .239.12c-1.188.894-.893 1.789-.359 2.796.12.24.478.712.12 1.191-.12.119.063.478.119.774h.176v.12l-.534.177c-.12-.177-.83-.536-.83-.832v3.036c.591.176.591 1.014.83 1.429.103-.146.183-.308.239-.478l.063.057q-.078.544-.239 1.07a14 14 0 0 0-.296 1.55c0 .056.12.176.12.239a18 18 0 0 0-.535 4.705c-.176 1.133 0 2.324-.119 3.514a28 28 0 0 1-.591 3.099c-.056.176-.176.239-.478.359a4.8 4.8 0 0 0-.062-1.846c-.057 0-.83-.416-.893-.416q.206 1.482.629 2.917c-.176-.057-.893-.479-.95-.479-.119.712-.119 1.669-.176 2.443-.062.593-.597 1.134-.628 1.789 0 .359.415.592.358 1.19h.478c0-1.19.534-2.261.534-3.514h.164c.056.12.238.239.176.296a8 8 0 0 0-.296 2.022c0 .359.296.712.176 1.134a5.8 5.8 0 0 0-.239 1.259 3.4 3.4 0 0 1-.119-.592l-.629-.057c-.056.359.415.712.359 1.014-.063.063-.12.063-.239.12l-1.961-2.859a554 554 0 0 1-4.633-6.846 14 14 0 0 1-1.068-1.789 84 84 0 0 0-6.122-9.107c-1.723-2.204-3.093-4.585-4.696-6.928-1.483-2.204-2.973-4.346-4.456-6.55-.535-.712-1.188-1.367-1.666-2.141-1.546-2.444-2.91-4.944-4.456-7.382-1.308-2.021-2.735-3.986-4.099-5.951-.477-.63-.949-1.367-1.426-2.085a.86.86 0 0 1-.12-.416c-.119-1.31-.239-2.62-.295-3.867-.057-1.247.119-2.38.119-3.634v-1.07c0-.296.057-.536.057-.832.056-.063.119-.176.176-.239-1.723 0-3.508-.057-5.23 0a2.89 2.89 0 0 1-2.514-1.26 99 99 0 0 1-5.883-8.187c-1.842-2.62-3.772-5.177-5.657-7.74-1.547-2.085-3.087-4.107-4.633-6.191-1.722-2.381-3.388-4.762-5.167-7.142-2.137-2.86-4.337-5.713-6.537-8.572-1.012-1.31-2.137-2.557-3.268-3.93.773.12 1.483.24 2.2.296l2.854.176c2.137.177 4.28.296 6.417.599 1.785.239 3.564.598 5.406.894a76 76 0 0 1 11.527 2.979c2.2.712 4.337 1.669 6.475 2.557a131 131 0 0 1 13.935 6.783 14 14 0 0 1 3.325 3.149c1.546 1.606 3.092 3.212 4.576 4.881 1.722 1.965 3.325 3.987 4.99 6.015 1.484 1.788 3.03 3.57 4.513 5.36q.68.857 1.257 1.788c.95 1.43 2.018 2.796 2.854 4.346a25 25 0 0 1 1.364 3.69c.591 1.846 1.188 3.634 1.785 5.48a48 48 0 0 1 1.069 4.226c.239.951.176 1.965.477 2.916.359 1.259 0 2.62.359 3.867l.176.415c.239.24.415.479.063.832a.63.63 0 0 0 0 .478q.168-.192.295-.415c0 .119.057.176.057.239q-.045.355 0 .712c.033.148.092.289.176.415q.227-.194.477-.359c.464 2.01.663 4.073.591 6.135a13.9 13.9 0 0 1-.478 5.832c.176-.63-.238-1.26-.062-1.846z"/><path fill="#fb4934" d="M169.251 143.745q.07.012.119.063l-.063-.063c0-.056 0-.056-.056 0m9.384 58.818a5.6 5.6 0 0 1-2.137 1.071c-.056-.057-.056-.12-.119-.177.628-.415 1.364-.831 2.017-1.259.057.119.176.245.239.365M67.236 121.897a67 67 0 0 1 2.018-2.519c.056.057.534.176.597.239-.629.832-1.546 1.965-2.2 2.86-.12-.12-.295-.536-.415-.592zm-16.87 29.173c-.478-1.014-.95-2.085-1.427-3.099q.25-.156.534-.239c.56.992 1.037 2.028 1.427 3.099q-.26.135-.534.239m15.148-28.574c-.358.535-.71 1.133-1.069 1.669-.056-.057-.71.239-.773.176.359-.535 1.257-1.486 1.603-2.022a.8.8 0 0 0 .239.177M172.274 205c.063 0 .063-.063.12-.063q.677.108 1.364.12c-.773.535-1.257.479-1.484-.057m-106.64-80.01q.113-.286.295-.536.151-.01.295-.056c.239-.416.239-.712.478-1.071-.057-.057-.12-.057-.176-.12-.358.24-.71.536-1.069.775a.33.33 0 0 1 .12.296c-.478-.057-.629.176-.893.831-.063.177-.358.24-.628.479-.057.12-.12.416-.24.712l.064.063a.9.9 0 0 1-.296.176c-.358.359-.773.63-1.131 1.014a1.7 1.7 0 0 0-.12.535c.415-.415 1.132-1.19 1.666-1.669l.057.057c.239-.359.415-.712.628-1.071.057.057.057.12.12.177l-.535 1.486c-.119.057-.295.176-.295.12-.239.176-.415.415-.629.598l-1.068.712c-.597.535-1.188 1.014-1.842 1.549-.415.63-.83 1.26-1.307 2.022.71-.177.892.119.83.711.83.12.892-.535 1.13-1.014.064-.119.12-.359.24-.415.534-.479 1.131-.895 1.722-1.367a.8.8 0 0 0 .12-.535c0-.057-.296-.057-.478-.12.534-.598 1.307-1.606 1.841-2.261.296-.176.591-.416.591-.598-.063-.63.359-.832.83-1.071a.63.63 0 0 1-.295-.416z"/><path fill="#fb4934" d="M66.821 124.335c-.239.415-.477.774-.71 1.19l-.34-.176a3.54 3.54 0 0 1-1.885 2.796 1 1 0 0 0 .628.176c.177-.056.296-.359.415-.535l1.603-2.324.497-.888-.24-.239zm-19.787 26.137c.296 0 .598.063.95.063 0-.24.295-.177.295-.416h.176c0 .296.063.535.063.831H47.26c-.063-.063-.296-.415-.24-.478zm-.477-2.74c-.176-.176-.478-.359-.478-.535s.12-.536.295-.832c.12.416.176.775.296 1.191-.063.056-.113.119-.113.176m1.483-3.779c.239.598.478 1.26.71 1.845q-.257.084-.477.24c-.24-.592-.535-1.26-.774-1.846.16-.115.349-.196.541-.239m132.248 56.91q.557-.182 1.132-.296-.686.495-1.308 1.07c-.063-.063-.119-.119-.176-.119.12-.24.239-.416.359-.63zM107.256 75.046c.359-.24.629-.416 1.012-.63l.12.12c-.359.478-.629.95-1.069 1.549-.056-.416-.056-.63-.119-.951-.057 0 0 0 .063-.057zm17.405 30.124 1.722-.775a4.6 4.6 0 0 0-.063.831 2 2 0 0 0-.597-.119c-.358.056-1.012.535-1.307.592-.063 0 .239-.479.239-.536zm44.558 50.479c.12.592 1.258.894.12 1.486.176.12.358.176.534.296a.45.45 0 0 1-.119.239c-.12.063-.359.177-.478.12s-.176-.239-.176-.359c0-.535.063-1.064.119-1.782"/></svg>