<svg xmlns="http://www.w3.org/2000/svg" fill="none" viewBox="0 0 256 256"><rect width="228" height="228" x="14" y="14" fill="#fff" rx="46"/><path fill="#56b3b4" d="M193.559 76.238h-9.213c-1.769 0-3.203 1.836-3.203 4.102v1.796c0 2.266 1.434 4.102 3.203 4.102h9.213c1.769 0 3.203-1.836 3.203-4.102V80.34c0-2.266-1.434-4.102-3.203-4.102"/><path fill="#ea5e5e" d="M107.654 201.191h-40.45c-1.77 0-3.204 1.836-3.204 4.101v1.797c0 2.265 1.434 4.102 3.203 4.102h40.451c1.769 0 3.203-1.837 3.203-4.102v-1.797c0-2.265-1.434-4.101-3.203-4.101"/><path fill="#bf85bf" d="M185.749 138.714h-24.832c-1.769 0-3.203 1.837-3.203 4.102v1.797c0 2.265 1.434 4.101 3.203 4.101h24.832c1.769 0 3.204-1.836 3.204-4.101v-1.797c0-2.265-1.435-4.102-3.204-4.102"/><path fill="#ea5e5e" d="M146.702 138.714h-32.641c-1.769 0-3.204 1.837-3.204 4.102v1.797c0 2.265 1.435 4.101 3.204 4.101h32.641c1.769 0 3.203-1.836 3.203-4.101v-1.797c0-2.265-1.434-4.102-3.203-4.102"/><path fill="#56b3b4" d="M99.844 138.714h-32.64c-1.77 0-3.204 1.837-3.204 4.102v1.797c0 2.265 1.434 4.101 3.203 4.101h32.641c1.769 0 3.203-1.836 3.203-4.101v-1.797c0-2.265-1.434-4.102-3.203-4.102"/><path fill="#bf85bf" d="M107.654 169.953h-40.45c-1.77 0-3.204 1.836-3.204 4.101v1.797c0 2.265 1.434 4.102 3.203 4.102h40.451c1.769 0 3.203-1.837 3.203-4.102v-1.797c0-2.265-1.434-4.101-3.203-4.101m0-62.477h-40.45c-1.77 0-3.204 1.837-3.204 4.102v1.797c0 2.265 1.434 4.101 3.203 4.101h40.451c1.769 0 3.203-1.836 3.203-4.101v-1.797c0-2.265-1.434-4.102-3.203-4.102"/><path fill="#f7ba3e" d="M185.749 60.62H106.25c-1.769 0-3.203 1.836-3.203 4.1v1.797c0 2.266 1.434 4.102 3.203 4.102h79.499c1.769 0 3.203-1.836 3.203-4.102v-1.796c0-2.266-1.434-4.102-3.203-4.102"/><path fill="#ea5e5e" d="M92.035 60.62H67.203c-1.769 0-3.203 1.836-3.203 4.1v1.797c0 2.266 1.434 4.102 3.203 4.102h24.832c1.77 0 3.203-1.836 3.203-4.102v-1.796c0-2.266-1.434-4.102-3.203-4.102"/><path fill="#f7ba3e" d="M107.654 185.572h-9.213c-1.769 0-3.203 1.836-3.203 4.101v1.797c0 2.265 1.434 4.102 3.203 4.102h9.213c1.769 0 3.203-1.837 3.203-4.102v-1.797c0-2.265-1.434-4.101-3.203-4.101"/><path fill="#56b3b4" d="M107.654 91.857h-9.213c-1.769 0-3.203 1.837-3.203 4.102v1.796c0 2.266 1.434 4.102 3.203 4.102h9.213c1.769 0 3.203-1.836 3.203-4.102V95.96c0-2.265-1.434-4.102-3.203-4.102m-23.429 93.714H67.203c-1.769 0-3.203 1.836-3.203 4.101v1.797c0 2.265 1.434 4.102 3.203 4.102h17.022c1.77 0 3.203-1.837 3.203-4.102v-1.797c0-2.265-1.434-4.101-3.203-4.101"/><path fill="#f7ba3e" d="M84.225 91.857H67.203c-1.769 0-3.203 1.837-3.203 4.102v1.796c0 2.266 1.434 4.102 3.203 4.102h17.022c1.77 0 3.203-1.836 3.203-4.102V95.96c0-2.265-1.434-4.102-3.203-4.102"/><path fill="#56b3b4" d="M193.558 123.095h-63.879c-1.769 0-3.203 1.837-3.203 4.102v1.797c0 2.265 1.434 4.101 3.203 4.101h63.879c1.77 0 3.204-1.836 3.204-4.101v-1.797c0-2.265-1.434-4.102-3.204-4.102"/><path fill="#f7ba3e" d="M115.463 123.095H90.631c-1.769 0-3.203 1.837-3.203 4.102v1.797c0 2.265 1.434 4.101 3.203 4.101h24.832c1.769 0 3.203-1.836 3.203-4.101v-1.797c0-2.265-1.434-4.102-3.203-4.102"/><path fill="#ea5e5e" d="M76.416 123.095h-9.213c-1.769 0-3.203 1.837-3.203 4.102v1.797c0 2.265 1.434 4.101 3.203 4.101h9.213c1.769 0 3.203-1.836 3.203-4.101v-1.797c0-2.265-1.434-4.102-3.203-4.102"/><path fill="#bf85bf" d="M170.13 76.238h-32.641c-1.769 0-3.203 1.836-3.203 4.102v1.796c0 2.266 1.434 4.102 3.203 4.102h32.641c1.769 0 3.203-1.836 3.203-4.102V80.34c0-2.266-1.434-4.102-3.203-4.102"/><path fill="#56b3b4" d="M123.273 76.238h-56.07c-1.769 0-3.203 1.836-3.203 4.102v1.796c0 2.266 1.434 4.102 3.203 4.102h56.07c1.769 0 3.203-1.836 3.203-4.102V80.34c0-2.266-1.434-4.102-3.203-4.102"/><path fill="#f7ba3e" d="M162.32 154.333H90.631c-1.769 0-3.203 1.837-3.203 4.102v1.797c0 2.265 1.434 4.101 3.203 4.101h71.689c1.77 0 3.204-1.836 3.204-4.101v-1.797c0-2.265-1.434-4.102-3.204-4.102"/><path fill="#bf85bf" d="M76.416 154.333h-9.213c-1.769 0-3.203 1.837-3.203 4.102v1.797c0 2.265 1.434 4.101 3.203 4.101h9.213c1.769 0 3.203-1.836 3.203-4.101v-1.797c0-2.265-1.434-4.102-3.203-4.102"/><path fill="#ea5e5e" d="M201.368 91.857h-40.451c-1.769 0-3.203 1.837-3.203 4.102v1.796c0 2.266 1.434 4.102 3.203 4.102h40.451c1.77 0 3.204-1.836 3.204-4.102V95.96c0-2.265-1.434-4.102-3.204-4.102"/><path fill="#f7ba3e" d="M201.368 107.476h-40.451c-1.769 0-3.203 1.837-3.203 4.102v1.797c0 2.265 1.434 4.101 3.203 4.101h40.451c1.77 0 3.204-1.836 3.204-4.101v-1.797c0-2.265-1.434-4.102-3.204-4.102"/><path fill="#56b3b4" d="M162.321 45H67.203C65.434 45 64 46.836 64 49.102v1.796C64 53.164 65.434 55 67.203 55h95.118c1.769 0 3.203-1.836 3.203-4.102v-1.796c0-2.266-1.434-4.102-3.203-4.102"/></svg>