<svg xmlns="http://www.w3.org/2000/svg" fill="none" viewBox="0 0 256 256"><rect width="228" height="228" x="14" y="14" fill="#fff" rx="46"/><path fill="#000" d="m162.64 164.105-13.039-12.175H92.344l13.039 12.175zm-57.257-42.686-13.04 12.174h57.258l13.039-12.174zm57.251-18.337-13.033-12.181H92.344l13.039 12.181zm-76.297 12.049-8.637-8.613-31.924 31.937a6.1 6.1 0 0 0 0 8.608L77.712 179l8.625-8.608-27.653-27.63zm122.877-7.188L177.29 76l-8.638 8.614 27.618 27.63-27.618 27.637 8.608 8.607 31.954-31.931a6.086 6.086 0 0 0 0-8.614"/></svg>