<svg xmlns="http://www.w3.org/2000/svg" fill="none" viewBox="0 0 256 256"><rect width="228" height="228" x="14" y="14" fill="#242938" rx="46"/><path fill="#387eb8" d="M127.013 43c-43.477 0-40.762 18.812-40.762 18.812l.049 19.489h41.488v5.852H69.821S42 84.004 42 127.774s24.282 42.219 24.282 42.219h14.492v-20.311s-.78-24.228 23.895-24.228h41.149s23.119.372 23.119-22.294V65.68S172.447 43 127.013 43m-22.877 13.106c4.128 0 7.464 3.328 7.464 7.447S108.264 71 104.136 71s-7.464-3.329-7.464-7.447 3.336-7.447 7.464-7.447"/><path fill="#ffe052" d="M127.988 213c43.476 0 40.761-18.811 40.761-18.811l-.049-19.49h-41.488v-5.852h57.968S213 171.996 213 128.225s-24.282-42.218-24.282-42.218h-14.492v20.311s.781 24.228-23.895 24.228h-41.149s-23.12-.373-23.12 22.294v37.479S82.553 213 127.989 213m22.876-13.106c-4.128 0-7.464-3.328-7.464-7.446 0-4.12 3.336-7.448 7.464-7.448s7.465 3.328 7.465 7.448c0 4.118-3.337 7.446-7.465 7.446"/></svg>