<svg xmlns="http://www.w3.org/2000/svg" viewBox="0 0 256 256" fill="none">
  <rect x="14" y="14" width="228" height="228" rx="46" fill="#242938" />
  <path
    d="M127.013 43C83.5362 43 86.2512 61.812 86.2512 61.812L86.2997 81.301H127.788V87.1525H69.8206C69.8206 87.1525 42 84.0044 42 127.774C42 171.545 66.2824 169.993 66.2824 169.993H80.7743V149.682C80.7743 149.682 79.9932 125.454 104.669 125.454H145.818C145.818 125.454 168.937 125.826 168.937 103.16V65.6807C168.937 65.6807 172.447 43 127.013 43ZM104.136 56.1055C108.264 56.1055 111.6 59.4343 111.6 63.5529C111.6 67.6715 108.264 71.0003 104.136 71.0003C100.008 71.0003 96.6718 67.6715 96.6718 63.5529C96.6718 59.4343 100.008 56.1055 104.136 56.1055Z"
    fill="#387eb8"
  />
  <path
    d="M127.988 213C171.464 213 168.749 194.189 168.749 194.189L168.7 174.699H127.212V168.847H185.18C185.18 168.847 213 171.996 213 128.225C213 84.4545 188.718 86.0068 188.718 86.0068H174.226V106.318C174.226 106.318 175.007 130.546 150.331 130.546H109.182C109.182 130.546 86.0629 130.173 86.0629 152.84V190.319C86.0629 190.319 82.5527 213 127.988 213ZM150.864 199.894C146.736 199.894 143.4 196.566 143.4 192.448C143.4 188.328 146.736 185 150.864 185C154.992 185 158.329 188.328 158.329 192.448C158.329 196.566 154.992 199.894 150.864 199.894Z"
    fill="#ffe052"
  />
</svg>
