<svg xmlns="http://www.w3.org/2000/svg" fill="none" viewBox="0 0 256 256"><rect width="228" height="228" x="14" y="14" fill="#0a7ea3" rx="46"/><path fill="#fff" d="M127.5 143.496c8.531 0 15.446-7.008 15.446-15.653s-6.915-15.653-15.446-15.653-15.446 7.008-15.446 15.653 6.915 15.653 15.446 15.653"/><path fill="#fff" d="M127.5 163.732a173.2 173.2 0 0 1-54.866-7.513 69.5 69.5 0 0 1-22.595-12.26 22.1 22.1 0 0 1-6.26-7.055A22.4 22.4 0 0 1 41 127.843c0-10.35 11.22-20.493 30.016-27.13a175.5 175.5 0 0 1 56.484-8.44 175 175 0 0 1 55.743 8.29 70 70 0 0 1 21.86 11.683 21.1 21.1 0 0 1 6.162 6.795 21.4 21.4 0 0 1 2.735 8.802c0 10.757-12.542 21.657-32.746 28.432a175.7 175.7 0 0 1-53.754 7.457m0-63.97a170.6 170.6 0 0 0-54.056 8.026c-17.3 6.117-25.054 14.482-25.054 20.036 0 5.81 8.334 14.946 26.635 21.288a166 166 0 0 0 52.475 7.132 168.5 168.5 0 0 0 51.437-7.075c18.999-6.381 27.649-15.528 27.649-21.326a14.7 14.7 0 0 0-2.102-5.588 14.5 14.5 0 0 0-4.139-4.261 62.7 62.7 0 0 0-19.53-10.356 167.6 167.6 0 0 0-53.315-7.877"/><path fill="#fff" d="M92.406 205.914a16.13 16.13 0 0 1-8.255-2.053c-8.848-5.172-11.912-20.086-8.199-39.903a181.5 181.5 0 0 1 21.007-53.803 179.2 179.2 0 0 1 34.928-44.793 70.2 70.2 0 0 1 20.908-13.355A20.7 20.7 0 0 1 161.686 50c3.073 0 6.108.685 8.891 2.007 9.2 5.372 12.246 21.826 7.952 42.946a181.7 181.7 0 0 1-20.488 50.922 177.5 177.5 0 0 1-33.834 44.411 69.7 69.7 0 0 1-21.767 13.706 30 30 0 0 1-10.034 1.922m10.954-92.04a176.4 176.4 0 0 0-20.142 51.461c-3.417 18.252-.136 29.228 4.634 32.02 4.943 2.899 16.942.15 31.511-12.748a170.1 170.1 0 0 0 32.295-42.514 174.1 174.1 0 0 0 19.654-48.687c4.041-19.88.55-32.051-4.405-34.944a14.2 14.2 0 0 0-11.542.557 62.9 62.9 0 0 0-18.597 12.01 171.6 171.6 0 0 0-33.364 42.883z"/><path fill="#fff" d="M162.576 205.996c-8.372 0-19.006-5.135-30.078-14.783A179.7 179.7 0 0 1 96.99 145.9a181 181 0 0 1-20.846-53.039 72.2 72.2 0 0 1-.977-25.045 21.4 21.4 0 0 1 2.724-8.783 21.1 21.1 0 0 1 6.137-6.788c9.187-5.392 24.776.15 40.685 14.463a180 180 0 0 1 33.303 43.415 179 179 0 0 1 21.069 51.887 71.7 71.7 0 0 1 .846 25.96 22.4 22.4 0 0 1-2.888 9.022 22.1 22.1 0 0 1-6.342 6.975 15.83 15.83 0 0 1-8.125 2.029m-59.191-63.865a174.7 174.7 0 0 0 33.933 43.384c13.895 12.116 24.918 14.72 29.657 11.897 4.943-2.912 8.588-14.796 4.832-34.024a171.7 171.7 0 0 0-20.211-49.533 172.6 172.6 0 0 0-31.788-41.574C104.831 58.806 92.684 55.795 87.735 58.7a14.5 14.5 0 0 0-3.718 4.642 14.7 14.7 0 0 0-1.565 5.764 64.7 64.7 0 0 0 .945 22.321 173.3 173.3 0 0 0 19.994 50.716z"/></svg>