<svg xmlns="http://www.w3.org/2000/svg" fill="none" viewBox="0 0 256 256"><rect width="228" height="228" x="14" y="14" fill="#388dd1" rx="46"/><path fill="#fff" d="M203.094 70h-43.688c-15.031 0-28.093 10.406-31.375 25.094C124.719 80.406 111.687 70 96.656 70H53c-8.281 0-15 6.719-15 15v76.812c0 8.282 6.719 15 15 15h28.031c31.938 0 41.469 7.625 46.031 23.438.219.875 1.625.875 1.876 0 4.593-15.813 14.124-23.438 46.031-23.438H203c8.281 0 15-6.718 15-15v-76.78c0-8.25-6.656-14.97-14.906-15.032m-89.469 82.937c0 .594-.469 1.094-1.094 1.094H62.437a1.087 1.087 0 0 1-1.093-1.094v-7.156c0-.593.468-1.093 1.093-1.093h50.126c.593 0 1.093.468 1.093 1.093v7.156zm0-19.031c0 .594-.469 1.094-1.094 1.094H62.437a1.087 1.087 0 0 1-1.093-1.094v-7.156c0-.594.468-1.094 1.093-1.094h50.126c.593 0 1.093.469 1.093 1.094v7.156zm0-19.031c0 .594-.469 1.094-1.094 1.094H62.437a1.087 1.087 0 0 1-1.093-1.094v-7.156c0-.594.468-1.094 1.093-1.094h50.126c.593 0 1.093.469 1.093 1.094v7.156zm81.031 38.031c0 .594-.469 1.094-1.094 1.094h-50.093a1.087 1.087 0 0 1-1.094-1.094v-7.156c0-.594.469-1.094 1.094-1.094h50.125c.593 0 1.093.469 1.093 1.094v7.156zm0-19.031c0 .594-.469 1.094-1.094 1.094h-50.093a1.087 1.087 0 0 1-1.094-1.094v-7.156c0-.594.469-1.094 1.094-1.094h50.125c.593 0 1.093.469 1.093 1.094v7.156zm0-19.031c0 .593-.469 1.094-1.094 1.094h-50.093a1.087 1.087 0 0 1-1.094-1.094v-7.125c0-.594.469-1.094 1.094-1.094h50.125c.593 0 1.093.469 1.093 1.094v7.125z"/></svg>