<svg xmlns="http://www.w3.org/2000/svg" fill="none" viewBox="0 0 256 256"><rect width="228" height="228" x="14" y="14" fill="#aa1401" rx="46"/><path fill="#fff" d="M181.03 50.078c19.654 3.353 25.27 16.841 24.958 30.953v-.312l-8.891 116.406L81.821 205h.079c-9.594-.39-30.886-1.325-31.9-31.109l10.685-19.492 21.605 50.367 18.406-59.411-.39.078.156-.156 60.133 19.18-15.52-60.659 57.325-3.587-45.158-36.956L181.03 50zM83.381 82.513c23.087-23 52.958-36.567 64.423-24.95 11.387 11.461-.624 39.686-23.71 62.608-23.398 22.923-52.802 37.269-64.267 25.729-11.465-11.617.312-40.465 23.476-63.387z"/></svg>