<svg xmlns="http://www.w3.org/2000/svg" fill="none" viewBox="0 0 256 256"><rect width="228" height="228" x="14" y="14" fill="#f74b01" rx="46"/><path fill="#fff" d="m211.836 125.917-7.135-4.42a97 97 0 0 0-.202-2.077l6.131-5.721a2.446 2.446 0 0 0-.813-4.096l-7.841-2.933a89 89 0 0 0-.611-2.024l4.888-6.794a2.46 2.46 0 0 0-.463-3.363 2.46 2.46 0 0 0-1.131-.5l-8.272-1.344a61 61 0 0 0-.993-1.859l3.474-7.623a2.44 2.44 0 0 0-.183-2.391 2.44 2.44 0 0 0-2.138-1.084l-8.389.293a66 66 0 0 0-1.328-1.605l1.929-8.176a2.46 2.46 0 0 0-.65-2.304 2.45 2.45 0 0 0-2.304-.65l-8.171 1.924a93 93 0 0 0-1.609-1.328l.292-8.383a2.446 2.446 0 0 0-2.255-2.544 2.44 2.44 0 0 0-1.219.222l-7.624 3.474a91 91 0 0 0-1.859-.998l-1.344-8.267a2.46 2.46 0 0 0-1.483-1.874 2.45 2.45 0 0 0-2.374.275l-6.8 4.888a76 76 0 0 0-2.019-.611l-2.932-7.841a2.448 2.448 0 0 0-4.096-.818l-5.722 6.14a67 67 0 0 0-2.077-.201l-4.42-7.14a2.456 2.456 0 0 0-3.283-.853 2.45 2.45 0 0 0-.892.853l-4.42 7.14a66 66 0 0 0-2.078.202l-5.721-6.136a2.467 2.467 0 0 0-4.096.813l-2.933 7.84q-1.021.297-2.018.617l-6.8-4.893a2.444 2.444 0 0 0-3.862 1.594l-1.35 8.272a109 109 0 0 0-1.86.998l-7.617-3.474a2.443 2.443 0 0 0-3.474 2.316l.292 8.394a76 76 0 0 0-1.61 1.328l-8.17-1.928a2.465 2.465 0 0 0-2.96 2.953l1.929 8.176a76 76 0 0 0-1.328 1.605l-8.389-.293a2.454 2.454 0 0 0-2.321 3.475l3.474 7.628c-.335.611-.67 1.228-.993 1.86l-8.266 1.339a2.453 2.453 0 0 0-1.6 3.862l4.888 6.794q-.317 1.006-.611 2.019l-7.841 2.938a2.45 2.45 0 0 0-1.548 1.821 2.45 2.45 0 0 0 .735 2.275l6.136 5.721q-.12 1.035-.207 2.077l-7.135 4.42A2.45 2.45 0 0 0 43 128.005a2.45 2.45 0 0 0 1.164 2.088l7.135 4.414q.087 1.045.207 2.083l-6.136 5.721a2.455 2.455 0 0 0 .813 4.096l7.841 2.933q.297 1.02.616 2.019l-4.893 6.799a2.457 2.457 0 0 0 .47 3.36c.328.259.717.43 1.13.497l8.266 1.344c.324.627.653 1.249.998 1.86l-3.48 7.623a2.457 2.457 0 0 0 1.115 3.207c.373.191.789.283 1.207.267l8.389-.292a62 62 0 0 0 1.328 1.61l-1.929 8.176a2.44 2.44 0 0 0 1.72 2.93c.405.112.832.118 1.24.018l8.17-1.923c.531.452 1.068.887 1.61 1.323l-.292 8.394a2.45 2.45 0 0 0 3.474 2.316l7.623-3.475q.918.512 1.86.999l1.344 8.261a2.447 2.447 0 0 0 3.862 1.604l6.794-4.898c.67.213 1.344.425 2.019.617l2.933 7.841a2.45 2.45 0 0 0 1.819 1.558 2.45 2.45 0 0 0 2.277-.745l5.726-6.136q1.035.117 2.078.212l4.42 7.135a2.46 2.46 0 0 0 4.175 0l4.415-7.14a71 71 0 0 0 2.082-.207l5.722 6.136a2.45 2.45 0 0 0 2.273.74 2.44 2.44 0 0 0 1.817-1.553l2.938-7.841a68 68 0 0 0 2.019-.617l6.8 4.898a2.46 2.46 0 0 0 3.857-1.604l1.349-8.266c.622-.319 1.238-.659 1.854-.994l7.624 3.475a2.44 2.44 0 0 0 2.387-.187 2.44 2.44 0 0 0 1.087-2.135l-.292-8.393a52 52 0 0 0 1.609-1.318l8.171 1.923a2.446 2.446 0 0 0 2.931-1.712c.113-.403.121-.829.023-1.236l-1.923-8.176c.446-.531.887-1.063 1.322-1.61l8.394.292a2.442 2.442 0 0 0 2.316-3.474l-3.474-7.623q.509-.918.993-1.86l8.267-1.344a2.444 2.444 0 0 0 1.599-3.857l-4.888-6.799q.317-1.006.611-2.019l7.841-2.933a2.442 2.442 0 0 0 .813-4.096l-6.136-5.721q.112-1.038.207-2.083l7.135-4.414a2.45 2.45 0 0 0 0-4.176m-47.764 59.202a5.056 5.056 0 0 1 2.119-9.886 5.06 5.06 0 0 1 3.769 5.981 5.06 5.06 0 0 1-5.888 3.905m-2.428-16.399a4.6 4.6 0 0 0-4.751 1.889 4.6 4.6 0 0 0-.71 1.649l-2.534 11.825A61.9 61.9 0 0 1 128 189.608a62 62 0 0 1-26.185-5.774l-2.534-11.821a4.6 4.6 0 0 0-5.461-3.543l-10.44 2.242a62 62 0 0 1-5.397-6.359h50.793c.573 0 .956-.106.956-.627v-17.967c0-.526-.383-.627-.956-.627h-14.854v-11.395h16.065c1.466 0 7.841.42 9.881 8.569.638 2.502 2.04 10.657 2.996 13.265.957 2.927 4.845 8.776 8.989 8.776h25.309q.463-.003.919-.09a62 62 0 0 1-5.754 6.747l-10.678-2.29zm-70.247 16.149a5.06 5.06 0 0 1-5.87-3.911 5.06 5.06 0 0 1 3.75-5.975 5.06 5.06 0 0 1 6.032 5.862 5.06 5.06 0 0 1-2.105 3.249 5.1 5.1 0 0 1-1.812.781zm-19.268-78.13a5.048 5.048 0 1 1-9.229 4.096 5.048 5.048 0 0 1 9.229-4.096m-5.924 14.041 10.875-4.834a4.61 4.61 0 0 0 2.338-6.083L77.18 104.8h8.808v39.705h-17.77a62.2 62.2 0 0 1-2.014-23.725m47.722-3.857V105.22H134.9c1.084 0 7.65 1.254 7.65 6.162 0 4.075-5.036 5.541-9.18 5.541zm76.229 10.535q0 2.325-.175 4.611h-6.375c-.638 0-.893.425-.893 1.047v2.927c0 6.895-3.889 8.393-7.294 8.776-3.241.361-6.842-1.36-7.283-3.347-1.913-10.758-5.1-13.058-10.137-17.032 6.248-3.963 12.75-9.817 12.75-17.653 0-8.463-5.801-13.791-9.753-16.405-5.547-3.655-11.688-4.388-13.345-4.388H81.7a62.07 62.07 0 0 1 34.771-19.624l7.772 8.155c1.759 1.838 4.675 1.912 6.508.148l8.702-8.319A62.22 62.22 0 0 1 182 96.656l-5.955 13.451a4.614 4.614 0 0 0 2.337 6.083l11.47 5.089c.197 2.035.303 4.091.303 6.179m-65.907-68.026a5.06 5.06 0 0 1 3.605-1.398 5.05 5.05 0 0 1 4.592 3.23 5.05 5.05 0 0 1-.092 3.869 5 5 0 0 1-1.135 1.614 5.04 5.04 0 0 1-7.134-.17 5.06 5.06 0 0 1 .164-7.145m59.091 47.552a5.048 5.048 0 1 1 9.227 4.1 5.048 5.048 0 0 1-9.227-4.1"/></svg>