<svg xmlns="http://www.w3.org/2000/svg" fill="none" viewBox="0 0 256 256"><rect width="228" height="228" x="14" y="14" fill="#cf649a" rx="46"/><path fill="#fff" d="M129.454 141.554c-2.678 1.225-5.613 2.821-11.489 6.029-2.227 1.247-4.555 2.494-6.721 3.668-.151-.149-.307-.338-.457-.493-11.623-12.357-33.119-21.084-32.206-37.68.34-6.045 2.428-21.915 41.283-41.187 31.978-15.681 57.423-11.337 61.817-1.701 6.315 13.736-13.639 39.298-46.663 43.005-3.655.737-7.43.648-11.046-.261a24.9 24.9 0 0 1-9.844-4.992c-1.748-1.89-2.01-2.001-2.656-1.624-1.064.554-.379 2.267 0 3.247a19.4 19.4 0 0 0 5.012 5.867 19.5 19.5 0 0 0 6.911 3.465 63.8 63.8 0 0 0 38.738-3.818c20.015-7.708 35.642-29.136 31.064-47.1-4.594-18.214-34.979-24.22-63.726-14.058a145 145 0 0 0-48.952 27.966c-15.838 14.74-18.344 27.551-17.32 32.915 3.687 19.045 30.073 31.44 40.655 40.622-.557.305-1.025.554-1.443.792-5.28 2.61-25.406 13.077-30.423 24.149-5.698 12.545.913 21.538 5.279 22.746a32.63 32.63 0 0 0 19.758-1.475 32.44 32.44 0 0 0 15.221-12.622 34.75 34.75 0 0 0 3.113-32.138 28 28 0 0 1 3.988-2.643c2.695-1.585 5.262-3.148 7.54-4.356a58.6 58.6 0 0 1 24.921-5.48c18.077 2.117 21.647 13.337 20.962 18.064a11.9 11.9 0 0 1-1.987 4.661 12 12 0 0 1-3.749 3.424c-1.253.792-1.671 1.058-1.559 1.623.15.831.757.793 1.821.643a14.1 14.1 0 0 0 6.864-4.738 14 14 0 0 0 2.971-7.768c.557-11.083-10.063-23.24-28.864-23.129a43.4 43.4 0 0 0-16.407 3.252q-1.252.516-2.433 1.109zm-26.87 43.437c-6.004 6.5-14.357 8.955-17.966 6.877-3.898-2.216-2.356-11.83 5.012-18.707a95.6 95.6 0 0 1 14.09-10.467c.874-.554 2.166-1.286 3.72-2.217l.418-.227.913-.554a25.7 25.7 0 0 1 .346 13.481 25.8 25.8 0 0 1-6.533 11.814"/></svg>