<svg xmlns="http://www.w3.org/2000/svg" fill="none" viewBox="0 0 256 256"><rect width="228" height="228" x="14" y="14" fill="#de3423" rx="46"/><path fill="#fff" fill-rule="evenodd" d="M160.186 53.274C135.722 60.53 96.91 64.625 76 64.625v40.992a.65.65 0 0 0 .148.383c14.27 0 58.322-4.79 84.901-12.293a98.5 98.5 0 0 0 13.601-4.638c3.25-1.501 5.35-3.082 5.35-4.726V43c-.031 3.896-9.915 7.344-19.814 10.274m0 53.001c-14.643 4.335-34.402 7.561-52.404 9.445-12.085 1.269-23.376 1.932-31.782 1.932v40.965a.65.65 0 0 0 .148.383c14.27 0 58.322-4.79 84.901-12.287a99.5 99.5 0 0 0 13.601-4.639c3.25-1.509 5.35-3.081 5.35-4.726V96c-.031 3.888-9.915 7.337-19.814 10.275m.031 54.039c-14.643 4.334-34.402 7.551-52.404 9.443-12.1 1.27-23.407 1.932-31.813 1.932V213c14.122 0 58.4-4.75 85.049-12.285 9.822-2.778 18.951-5.94 18.951-9.372V150c0 3.928-9.884 7.344-19.783 10.314" clip-rule="evenodd"/></svg>