<svg xmlns="http://www.w3.org/2000/svg" fill="none" viewBox="0 0 256 256"><rect width="228" height="228" x="14" y="14" fill="#ff4785" rx="46"/><path fill="#fff" fill-rule="evenodd" d="M196.098 14.419c-6.405-.383-14.174-.416-23.958-.419L172 31.436a1.8 1.8 0 0 0 .292 1.153c.141.192.318.354.521.476a1.74 1.74 0 0 0 1.982-.135l10.37-7.975 8.759 7.002a1.72 1.72 0 0 0 1.969.21 1.8 1.8 0 0 0 .534-.458c.27-.346.409-.779.392-1.22zm-54.281 82.67c0 5.268 35.519 2.745 40.293-.962 0-35.92-19.268-54.796-54.558-54.796s-55.055 19.164-55.055 47.92c0 28.804 22.358 41.359 41.352 52.025 14.027 7.877 26.221 14.724 26.221 26.326a10.95 10.95 0 0 1-.458 4.904 10.9 10.9 0 0 1-2.56 4.196 10.76 10.76 0 0 1-4.135 2.622 10.7 10.7 0 0 1-4.859.508c-10.761 0-15.019-5.509-14.513-24.191 0-4.054-41.057-5.326-42.298 0C68.057 200.903 96.272 214 128.535 214c31.28 0 55.809-16.69 55.809-46.88 0-31.496-23.617-44.011-43.132-54.351-13.738-7.28-25.442-13.483-25.442-24.472a11.45 11.45 0 0 1 .694-5.001 11.4 11.4 0 0 1 2.775-4.204 11.25 11.25 0 0 1 4.308-2.576 11.2 11.2 0 0 1 4.988-.44c5.023 0 14.036.887 13.282 21.014" clip-rule="evenodd"/></svg>