<svg xmlns="http://www.w3.org/2000/svg" fill="none" viewBox="0 0 256 256"><rect width="228" height="228" x="14" y="14" fill="#b3d108" rx="46"/><path fill="#fff" d="m161.725 85.402-3.204-2.253c16.018-18.451-3.203-31.831-12.257-18.028-8.496 12.957 3.064 29.013 10.029 49.858 11.003 32.958 9.332 50.704-4.875 67.887-35.797 43.098-102.794 26.619-79.672-18.029 7.94-15.351 21.729-26.337 45.268-23.661 2.228 2.817-.139 3.944-1.811 4.789-19.082 9.577-30.085 48.027-13.511 47.182 7.94-.281 19.779-8.31 25.908-21.971 7.103-15.916-1.672-35.915-7.94-54.789-14.625-44.506 18.526-82.956 56.412-62.956 14.346 7.605 4.875 34.225-14.347 31.971"/></svg>