<svg xmlns="http://www.w3.org/2000/svg" fill="none" viewBox="0 0 256 256"><rect width="228" height="228" x="14" y="14" fill="#000" rx="46"/><path fill="#fff" d="M129.169 214.57c18.813-67.207 18.267-67.512 31.864-115.431l3.268 1.89c1.78 1.018 3.233.18 3.233-1.865V76.307c3.612-12.623 6.433-22.385 7.267-25.307h14.728L214 73.643 197.927 87.52l12.156 13.134-80.105 113.915c-.387.644-.934.498-.809 0m8.752-144.862c.731 0 1.315.399 1.315.902v11.708c0 .49-.589.889-1.315.889h-19.78c-.731 0-1.32-.4-1.32-.893V70.6c0-.494.589-.902 1.315-.902h19.78zm24.423-12.968-21.766 12.555c.249.386.404.829.404 1.31v11.717c0 .601-.241 1.151-.628 1.59l21.986 12.683c1.496.868 2.726.16 2.726-1.568V58.313c0-1.732-1.221-2.436-2.722-1.573M115.07 82.322V70.6c0-.48.154-.923.404-1.305L93.707 56.732c-1.496-.86-2.726-.154-2.726 1.572v36.714c0 1.728 1.23 2.436 2.73 1.568l21.982-12.683a2.4 2.4 0 0 1-.619-1.59zm10.952 132.248h.808c-18.808-67.207-18.266-67.512-31.863-115.431l-3.268 1.89c-1.775 1.018-3.233.18-3.233-1.865V76.307C84.854 63.687 82.033 53.922 81.199 51H66.476L42 73.643 58.07 87.52l-12.157 13.138zm1.38-106.902a5.96 5.96 0 0 0 4.202-1.74 5.92 5.92 0 0 0 1.741-4.198 5.93 5.93 0 0 0-1.741-4.2 5.945 5.945 0 0 0-10.145 4.2 5.943 5.943 0 0 0 5.943 5.938m0 35.296a5.943 5.943 0 0 0 5.943-5.938 5.942 5.942 0 0 0-10.145-4.199 5.935 5.935 0 0 0 0 8.397 5.94 5.94 0 0 0 4.202 1.74m0 35.304a5.95 5.95 0 0 0 4.202-1.739 5.935 5.935 0 0 0 0-8.398 5.946 5.946 0 0 0-8.404 0 5.935 5.935 0 0 0 0 8.398 5.95 5.95 0 0 0 4.202 1.739"/></svg>