<svg xmlns="http://www.w3.org/2000/svg" fill="none" viewBox="0 0 256 256"><rect width="228" height="228" x="14" y="14" fill="#ff3e00" rx="46"/><path fill="#fff" d="M112.476 209.697a40.7 40.7 0 0 1-24.136-1.151 41.16 41.16 0 0 1-19.328-14.654 36.1 36.1 0 0 1-6.078-13.237 36.3 36.3 0 0 1-.363-14.588 33 33 0 0 1 1.207-4.683l.965-2.878 2.613 1.827a66.3 66.3 0 0 0 19.962 9.779l1.861.56-.19 1.82a11.15 11.15 0 0 0 2.058 7.43 12.4 12.4 0 0 0 5.866 4.53c2.365.873 4.938.995 7.374.352a11.4 11.4 0 0 0 3.122-1.343l50.893-31.887a10.4 10.4 0 0 0 3.135-2.974 10.55 10.55 0 0 0 1.673-4.003c.273-1.45.25-2.941-.069-4.382a10.8 10.8 0 0 0-1.785-3.993 12.4 12.4 0 0 0-5.829-4.422 12.3 12.3 0 0 0-7.281-.352 11.4 11.4 0 0 0-3.137 1.351l-19.537 12.159a37.3 37.3 0 0 1-10.361 4.467 40.7 40.7 0 0 1-24.157-1.146 41.17 41.17 0 0 1-19.344-14.667 36.1 36.1 0 0 1-6.015-13.262 36.3 36.3 0 0 1-.297-14.586 34.8 34.8 0 0 1 5.505-13.256 34.4 34.4 0 0 1 10.362-9.85l50.954-31.886a37.3 37.3 0 0 1 10.36-4.46 40.7 40.7 0 0 1 24.162 1.138 41.17 41.17 0 0 1 19.348 14.667 36.1 36.1 0 0 1 6.077 13.238 36.3 36.3 0 0 1 .364 14.588 33 33 0 0 1-1.208 4.683l-.965 2.878-2.612-1.82a65.9 65.9 0 0 0-19.962-9.778l-1.861-.568.189-1.82a11.12 11.12 0 0 0-2.066-7.43 12.4 12.4 0 0 0-5.823-4.427 12.25 12.25 0 0 0-7.28-.348 11.2 11.2 0 0 0-3.121 1.351l-51.06 31.779a10.3 10.3 0 0 0-3.133 2.968 10.4 10.4 0 0 0-1.66 4.002 10.8 10.8 0 0 0 .058 4.387c.319 1.443.93 2.803 1.795 3.995a12.4 12.4 0 0 0 5.831 4.418c2.338.85 4.873.972 7.28.349a11.6 11.6 0 0 0 3.137-1.343l19.461-12.167a37 37 0 0 1 10.36-4.459 40.73 40.73 0 0 1 24.159 1.143 41.2 41.2 0 0 1 19.351 14.662 36.1 36.1 0 0 1 6.055 13.242 36.3 36.3 0 0 1 .348 14.583 34.7 34.7 0 0 1-5.497 13.271 34.3 34.3 0 0 1-10.371 9.857l-50.945 31.887a37 37 0 0 1-10.361 4.459"/></svg>