<svg xmlns="http://www.w3.org/2000/svg" fill="none" viewBox="0 0 256 256"><g filter="url(#a)"><path fill="#FF3E00" fill-rule="evenodd" d="M231 89.845c0-2.433.001-4.867-.014-7.301-.012-2.05-.036-4.1-.091-6.15-.121-4.466-.384-8.97-1.179-13.387-.805-4.48-2.121-8.65-4.194-12.721a42.808 42.808 0 0 0-18.718-18.708c-4.075-2.074-8.249-3.39-12.734-4.195-4.418-.793-8.924-1.056-13.39-1.177a294.859 294.859 0 0 0-6.153-.091c-2.435-.015-4.87-.014-7.305-.014L138.948 26h-21.146l-27.774.101c-2.44 0-4.88-.001-7.32.014-2.055.013-4.11.036-6.164.091-4.477.121-8.993.384-13.42 1.178-4.492.806-8.673 2.12-12.753 4.192a42.89 42.89 0 0 0-10.864 7.873 42.794 42.794 0 0 0-7.891 10.835c-2.079 4.073-3.397 8.245-4.205 12.728-.795 4.415-1.058 8.918-1.18 13.383-.055 2.05-.079 4.099-.09 6.149-.016 2.434-.141 5.458-.141 7.891v48.762l.126 27.971c0 2.437 0 4.874.014 7.311.012 2.053.036 4.106.092 6.158.12 4.472.385 8.984 1.18 13.406.808 4.487 2.126 8.662 4.203 12.738a42.898 42.898 0 0 0 18.754 18.735c4.083 2.076 8.265 3.393 12.76 4.199 4.425.795 8.94 1.058 13.415 1.179 2.055.055 4.11.079 6.165.091 2.44.015 4.88.014 7.319.014l28.025.001h21.199l27.97-.001c2.435 0 4.87.001 7.305-.014 2.052-.012 4.102-.036 6.153-.091 4.468-.121 8.976-.385 13.395-1.18 4.482-.806 8.655-2.122 12.728-4.197a42.839 42.839 0 0 0 18.718-18.734c2.075-4.078 3.39-8.256 4.196-12.745.794-4.421 1.057-8.93 1.178-13.401.055-2.052.079-4.105.091-6.158.015-2.437.014-4.874.014-7.311l-.002-27.971v-21.395L231 89.845Z" clip-rule="evenodd"/></g><path fill="#fff" d="M116.228 194.933a33.152 33.152 0 0 1-19.714-.944 33.626 33.626 0 0 1-15.787-12.005 29.602 29.602 0 0 1-4.964-10.845 29.812 29.812 0 0 1-.297-11.952c.236-1.301.566-2.583.987-3.836l.787-2.358 2.135 1.496a54.037 54.037 0 0 0 16.305 8.012l1.52.459-.156 1.491a9.154 9.154 0 0 0 1.682 6.088 10.128 10.128 0 0 0 4.791 3.711 9.98 9.98 0 0 0 6.023.288 9.349 9.349 0 0 0 2.55-1.1l41.569-26.124a8.512 8.512 0 0 0 2.56-2.437 8.65 8.65 0 0 0 1.367-3.28 8.981 8.981 0 0 0-.056-3.589 8.91 8.91 0 0 0-1.458-3.272 10.158 10.158 0 0 0-4.762-3.623 10.005 10.005 0 0 0-5.947-.288 9.303 9.303 0 0 0-2.562 1.106l-15.957 9.962a30.404 30.404 0 0 1-8.463 3.66 33.17 33.17 0 0 1-19.731-.939 33.64 33.64 0 0 1-15.8-12.016 29.604 29.604 0 0 1-4.914-10.866 29.808 29.808 0 0 1-.243-11.95 28.551 28.551 0 0 1 4.497-10.86 28.121 28.121 0 0 1 8.464-8.07l41.618-26.123a30.402 30.402 0 0 1 8.463-3.654 33.156 33.156 0 0 1 19.735.932 33.63 33.63 0 0 1 15.803 12.017 29.615 29.615 0 0 1 4.964 10.845 29.813 29.813 0 0 1 .297 11.952 27.208 27.208 0 0 1-.986 3.836l-.788 2.358-2.134-1.49a53.762 53.762 0 0 0-16.305-8.012l-1.52-.465.155-1.49a9.136 9.136 0 0 0-1.688-6.088 10.117 10.117 0 0 0-4.756-3.628 9.98 9.98 0 0 0-5.946-.284c-.9.236-1.76.61-2.55 1.107L103.311 108.7a8.418 8.418 0 0 0-2.559 2.431 8.564 8.564 0 0 0-1.356 3.279 8.883 8.883 0 0 0 .047 3.594 8.815 8.815 0 0 0 1.467 3.273 10.15 10.15 0 0 0 4.762 3.62c1.91.696 3.981.795 5.946.286a9.476 9.476 0 0 0 2.563-1.101l15.895-9.968a30.188 30.188 0 0 1 8.463-3.654 33.184 33.184 0 0 1 19.733.937 33.66 33.66 0 0 1 15.805 12.012 29.623 29.623 0 0 1 4.946 10.849c.9 3.921.996 7.988.284 11.948a28.504 28.504 0 0 1-4.49 10.873 28.074 28.074 0 0 1-8.471 8.075l-41.612 26.124a30.195 30.195 0 0 1-8.462 3.654"/><defs><filter id="a" width="215" height="215" x="21" y="23.5" color-interpolation-filters="sRGB" filterUnits="userSpaceOnUse"><feFlood flood-opacity="0" result="BackgroundImageFix"/><feColorMatrix in="SourceAlpha" result="hardAlpha" values="0 0 0 0 0 0 0 0 0 0 0 0 0 0 0 0 0 0 127 0"/><feOffset dy="2.5"/><feGaussianBlur stdDeviation="2.5"/><feColorMatrix values="0 0 0 0 0 0 0 0 0 0 0 0 0 0 0 0 0 0 0.3 0"/><feBlend in2="BackgroundImageFix" result="effect1_dropShadow_212_2"/><feBlend in="SourceGraphic" in2="effect1_dropShadow_212_2" result="shape"/></filter></defs></svg>