<svg xmlns="http://www.w3.org/2000/svg" fill="none" viewBox="0 0 256 256"><rect width="228" height="228" x="14" y="14" fill="#FFB342" rx="46"/><path fill="#fff" d="M69.608 117.037h31.789L78.872 94.512c-8.585 0-15.554-6.97-15.554-15.64a15.555 15.555 0 0 1 15.554-15.554c8.67 0 15.64 6.97 15.64 15.554l22.525 22.525v-31.79a15.64 15.64 0 0 1 0-22.014A15.37 15.37 0 0 1 128.002 43a15.38 15.38 0 0 1 10.964 4.593c6.035 6.035 6.035 15.895 0 22.015v31.789l22.61-22.525a15.555 15.555 0 0 1 31.109 0c0 8.67-6.969 15.64-15.554 15.64l-22.525 22.525h31.789a15.64 15.64 0 0 1 22.015 0c6.12 6.035 6.12 15.894 0 21.929-6.035 6.035-15.895 6.035-22.015 0h-31.789l22.525 22.61a15.507 15.507 0 0 1 15.554 15.555c0 4.125-1.638 8.081-4.555 10.999a15.56 15.56 0 0 1-10.999 4.555 15.507 15.507 0 0 1-15.555-15.554l-22.61-22.525v31.789c6.035 6.12 6.035 15.98 0 22.015-6.035 6.12-15.894 6.12-21.929 0a15.64 15.64 0 0 1 0-22.015v-31.789l-22.525 22.525c0 8.585-6.97 15.554-15.64 15.554a15.554 15.554 0 1 1 0-31.109l22.525-22.61h-31.79c-6.12 6.035-15.98 6.035-22.014 0A15.37 15.37 0 0 1 43 128.002a15.38 15.38 0 0 1 4.593-10.965 15.64 15.64 0 0 1 22.015 0"/></svg>