<svg xmlns="http://www.w3.org/2000/svg" fill="none" viewBox="0 0 256 256"><rect width="228" height="228" x="14" y="14" fill="#ffb342" rx="46"/><path fill="#000" d="M125.531 209.79c-9.761-1.672-16.223-11.523-13.918-21.194.768-3.163 3.524-7.321 6.281-9.354l2.305-1.717V159.72c0-10.755-.181-17.715-.407-17.624-.226.09-7.14 4.022-15.274 8.721l-14.868 8.586-.542 3.254c-.949 6.191-4.383 10.755-9.942 13.376-2.711 1.311-3.48 1.446-7.095 1.446-3.434 0-4.473-.18-6.642-1.22-3.435-1.581-6.915-4.925-8.632-8.269-1.717-3.435-2.169-8.632-1.04-12.473 2.577-9.038 13.196-14.415 21.963-11.207 1.356.497 2.847.994 3.254 1.175.497.136 6.19-2.892 15.952-8.496 8.315-4.835 15.138-8.857 15.138-8.992 0-.272-30.006-17.625-30.503-17.625-.226 0-1.717.543-3.299 1.175-2.53.995-3.48 1.13-6.823.995-3.3-.091-4.384-.362-6.87-1.582-10.89-5.378-12.878-19.658-3.93-27.927 3.434-3.209 6.597-4.429 11.432-4.429 4.836 0 7.999 1.22 11.433 4.429 3.119 2.846 4.836 6.1 5.559 10.438l.497 3.118 14.958 8.587c8.179 4.745 15.093 8.676 15.274 8.721.226.091.407-7.818.407-17.624V78.468l-2.215-1.672c-2.711-1.988-4.79-4.925-6.01-8.36-1.31-3.75-.994-8.947.768-12.563 3.344-6.823 10.891-10.845 18.167-9.67 11.207 1.853 17.669 13.963 12.879 24.131-1.311 2.802-4.113 6.01-6.462 7.366l-1.311.768v17.76c0 9.761.181 17.76.362 17.76.18 0 7.14-3.932 15.455-8.722l15.093-8.677.542-3.163c1.311-7.818 6.734-13.376 14.461-14.732 7.23-1.265 14.867 2.938 18.212 9.987 1.039 2.17 1.174 3.073 1.174 7.005 0 4.067-.135 4.79-1.31 7.23-1.717 3.435-4.745 6.462-8.179 8.179-2.486 1.175-3.118 1.311-7.457 1.311-4.022 0-5.061-.136-6.733-.994-1.13-.588-2.26-1.04-2.531-1.04-.858 0-30.277 17.127-30.277 17.625 0 .225 6.824 4.383 15.139 9.173l15.138 8.722 2.486-1.13c2.124-.994 3.118-1.175 6.778-1.175 3.932 0 4.564.136 7.276 1.446 3.615 1.763 6.778 5.016 8.45 8.631 1.04 2.215 1.22 3.164 1.22 6.869 0 3.661-.18 4.655-1.22 6.824-2.214 4.79-6.417 8.36-11.433 9.671-3.57.903-5.874.858-9.309-.226-6.733-2.124-11.162-7.683-12.111-15.049l-.271-2.259-15.138-8.767c-8.315-4.79-15.275-8.722-15.455-8.722-.226 0-.362 7.999-.362 17.76l.045 17.714 2.26 1.582c2.53 1.762 5.513 5.875 6.372 8.722.316 1.039.587 3.525.587 5.513-.045 5.603-2.259 9.761-7.05 13.421-3.479 2.621-8.405 3.796-12.698 3.073"/></svg>