<svg xmlns="http://www.w3.org/2000/svg" fill="none" viewBox="0 0 256 256"><rect width="228" height="228" x="14" y="14" fill="#3f80c2" rx="46"/><path fill="#fff" d="M198.665 110.725a73.8 73.8 0 0 0-8.758-20.2c2.925-4.098 5.714-8.315 8.316-12.736L178.14 57.793c-4.558 2.687-8.877 5.577-13.111 8.587a72.3 72.3 0 0 0-19.59-8.077c-.868-5.101-1.888-10.202-3.231-15.303H113.86c-1.326 5.101-2.329 10.066-3.18 15.099a73 73 0 0 0-20.15 7.992c-4.065-2.874-8.214-5.662-12.602-8.213l-20.03 19.945c2.414 4.132 4.999 8.06 7.703 11.902a73.3 73.3 0 0 0-9.37 21.204c-4.421.782-8.809 1.7-13.23 2.856v28.311c4.115 1.088 8.197 1.938 12.312 2.686a73 73 0 0 0 9.08 23.091 141 141 0 0 0-6.495 10.202l20.032 20.047c3.4-1.972 6.632-4.081 9.794-6.257a72.7 72.7 0 0 0 23.672 9.862c.68 3.775 1.496 7.515 2.465 11.273h28.433c1.003-3.86 1.819-7.703 2.534-11.545A73.3 73.3 0 0 0 167.8 191.44c3.401 2.312 6.803 4.54 10.323 6.631l20.032-20.047a164 164 0 0 0-7.126-11.018 73.3 73.3 0 0 0 8.503-22.105c4.489-.799 8.979-1.7 13.468-2.89v-28.243c-4.744-1.258-9.489-2.227-14.335-3.043m-49.689 68.098a53.64 53.64 0 0 1-42.122.391.2.2 0 0 0 0-.102 53.85 53.85 0 0 1-29.232-29.994l-.272-.714a53.5 53.5 0 0 1 1.055-39.975c.306-.714.629-1.428.986-2.142a53.97 53.97 0 0 1 27.021-25.778 53.6 53.6 0 0 1 21.052-4.302 52.9 52.9 0 0 1 18.349 3.248c1.343.493 2.653 1.02 3.945 1.7a53.8 53.8 0 0 1 25.814 25.183q.765 1.546 1.428 3.162a53.4 53.4 0 0 1 1.004 37.986c-.205.595-.409 1.19-.647 1.7a53.88 53.88 0 0 1-28.024 29.399z"/><path fill="#fff" d="M165.782 145.991a10.7 10.7 0 0 0-2.555-5.059 10.64 10.64 0 0 0-10.422-3.207 10.66 10.66 0 0 0-4.942 2.751l-8.428-6.292a14.64 14.64 0 0 0 1.725-10.295 14.6 14.6 0 0 0-5.569-8.818l6.743-11.722a7.3 7.3 0 0 0 4.803-.155 7.33 7.33 0 0 0 3.671-3.111 7.36 7.36 0 0 0-1.216-9.026 7.3 7.3 0 0 0-9.034-.891 7.34 7.34 0 0 0-2.965 3.794 7.37 7.37 0 0 0 .021 4.822 7.2 7.2 0 0 0 1.821 2.807l-6.743 11.722a14.8 14.8 0 0 0-6.642-1.217 14.54 14.54 0 0 0-7.11 2.325 14.6 14.6 0 0 0-5.027 5.557l-14.463-5.7v-.153a6.78 6.78 0 0 0-1.205-4.606 6.74 6.74 0 0 0-3.932-2.669 6.72 6.72 0 0 0-4.71.592 6.76 6.76 0 0 0-3.154 3.559 6.8 6.8 0 0 0-.035 4.763 6.76 6.76 0 0 0 3.1 3.606 6.724 6.724 0 0 0 8.672-1.946l14.463 5.7a14.7 14.7 0 0 0 .291 8.195 14.67 14.67 0 0 0 4.631 6.758l-6.743 10.554a8.8 8.8 0 0 0-3.826-.642 8.97 8.97 0 0 0-5.531 2.374 9.02 9.02 0 0 0-2.8 5.343 9.04 9.04 0 0 0 1.19 5.918 9 9 0 0 0 4.643 3.838 8.96 8.96 0 0 0 6.016.039 9 9 0 0 0 4.691-3.779 9.04 9.04 0 0 0-1.466-11.281l6.742-10.521a14.57 14.57 0 0 0 8.989 1.242 14.6 14.6 0 0 0 7.986-4.32l8.429 6.309a10.74 10.74 0 0 0-.065 9.863 10.7 10.7 0 0 0 3.303 3.845 10.63 10.63 0 0 0 9.731 1.39 10.7 10.7 0 0 0 4.241-2.767 10.73 10.73 0 0 0 2.681-9.489"/></svg>