<svg xmlns="http://www.w3.org/2000/svg" fill="none" viewBox="0 0 256 256"><rect width="228" height="228" x="14" y="14" fill="#f05137" rx="46"/><path fill="#fff" d="M144.529 53.006s37.3 21.335 47.062 55.228c8.796 30.615 1.752 45.226 1.752 45.226a53.5 53.5 0 0 1 10.452 16.809 28.98 28.98 0 0 1 1.74 26.731s-.6-12.486-19.2-15.074c-17.045-2.401-23.243 14.204-55.798 13.399a110.6 110.6 0 0 1-51.499-13.845A110.64 110.64 0 0 1 40 145.134c15.906 8.68 36.743 22.157 62.692 20.086s31.367-10.049 31.367-10.049a401.5 401.5 0 0 1-76.714-80.338c20.4 17.079 70.93 51.067 69.754 50.203a455 455 0 0 1-50.548-58.625s75.813 62.365 81.915 61.969c2.508-5.169 15.474-31.924-13.943-75.38z"/></svg>