<svg xmlns="http://www.w3.org/2000/svg" fill="none" viewBox="0 0 256 256"><rect width="228" height="228" x="14" y="14" fill="#15becb" rx="46"/><path fill="#fff" fill-rule="evenodd" d="M128 74q-36 0-45 36 13.5-18 31.5-13.5c6.847 1.71 11.74 6.68 17.157 12.177C140.48 117.633 150.693 128 173 128q36 0 45-36-13.5 18-31.5 13.5c-6.847-1.71-11.74-6.68-17.157-12.177C160.52 84.367 150.307 74 128 74m-45 54q-36 0-45 36 13.5-18 31.5-13.5c6.847 1.713 11.74 6.68 17.157 12.177C95.48 171.633 105.693 182 128 182q36 0 45-36-13.5 18-31.5 13.5c-6.847-1.71-11.74-6.68-17.157-12.177C115.52 138.367 105.307 128 83 128" clip-rule="evenodd"/></svg>