<svg xmlns="http://www.w3.org/2000/svg" fill="none" viewBox="0 0 256 256"><rect width="228" height="228" x="14" y="14" fill="#00a3ab" rx="46"/><path fill="#fff" d="M55.382 203.938c-3.106-.499-5.782-2.786-6.779-5.796-.451-1.351-.598-2.277-.598-3.936 0-2.552.357-3.776 1.574-5.424a12.5 12.5 0 0 1 1.217-1.372c1.102-1.032 17.409-17.433 17.409-17.497 0-.032-.22-.16-.504-.266-.923-.382-3.431-1.637-4.585-2.297-2.267-1.308-5.016-3.286-7.147-5.148-1.867-1.627-4.764-4.701-6.075-6.435-.231-.298-.567-.745-.756-.967-1.836-2.33-4.795-7.648-5.845-10.509-.64-1.734-1.08-3.053-1.437-4.33-.22-.818-.462-1.659-.514-1.86-.158-.554-.703-3.436-.84-4.414l-.21-1.543c-.367-2.606-.388-7.69-.063-10.689.346-3.148.913-5.999 1.71-8.669.504-1.702.557-1.862 1.291-3.722 1.69-4.297 4.166-8.446 7.493-12.551 1.164-1.447 4.816-5.063 6.359-6.308C62.38 85.93 68.73 82.717 74.5 81.41c.546-.127 1.186-.266 1.417-.319a26 26 0 0 1 2.466-.415c.493-.063 1.322-.17 1.836-.244 1.28-.17 6.926-.17 8.342 0 3.064.372 4.334.595 6.296 1.106 2.676.702 6.779 2.265 8.899 3.403 3.4 1.809 7.293 4.51 9.465 6.574.105.095 6.747 6.743 11.459 11.466l4.596 4.594 1.7-1.776c.944-.979 1.784-1.851 1.878-1.936 14.838-15.082 49.341-49.873 49.803-50.224.828-.638 1.773-1.096 2.885-1.393.745-.203 1.154-.234 2.76-.245 1.773 0 1.942.021 2.781.287 1.291.415 2.109.957 3.2 2.064 1.145 1.17 1.837 2.297 2.34 3.797.368 1.074.379 1.106.379 2.946.01 1.712-.011 1.914-.231 2.478-.515 1.277-1.659 2.712-4.208 5.276-6.108 6.116-11.848 11.976-11.806 12.05.032.043.137.086.231.086.399 0 4.282 1.425 5.897 2.159.871.393 3.233 1.595 3.83 1.936 1.942 1.117 5.037 3.159 5.667 3.744.115.106.535.457.944.776 6.706 5.34 12.309 13.274 15.048 21.294.714 2.085 1.091 3.435 1.626 5.86.284 1.266.462 2.309.704 4.276.273 2.202.388 7.371.21 9.424-.692 7.871-2.697 14.231-6.465 20.581-3.221 5.414-8.016 10.54-13.326 14.221-5.331 3.691-10.661 5.86-16.842 6.871-1.973.319-3.043.382-6.243.372-3.422-.011-4.912-.128-7.504-.628-5.382-1.021-10.273-3.053-14.837-6.158-3.726-2.531-5.961-4.638-19.634-18.539l-6.307-6.403-12.844 12.945c-13.872 13.965-15.75 15.868-18.206 18.474a263 263 0 0 1-3.368 3.458c-2.424 2.414-5.94 5.977-13.285 13.454-12.35 12.572-13.012 13.21-14.596 13.976-1.25.606-2.393.861-4.009.915-.808.021-1.742 0-2.067-.054m117.202-50.32c3.851-.329 7.198-1.499 10.734-3.754 1.973-1.255 3.096-2.149 4.492-3.542 4.502-4.51 7.262-10.402 7.943-16.954.514-4.882-.388-9.976-2.571-14.508-.766-1.606-2.014-3.744-2.697-4.626-1.164-1.521-1.762-2.213-3.053-3.511-4.208-4.233-8.542-6.488-13.662-7.126-1.144-.138-3.673-.138-4.649 0-4.375.638-6.454 1.489-9.465 3.882-.462.373-5.751 5.659-11.753 11.753a4229 4229 0 0 0-10.934 11.105c-.021.01 3.096 3.212 6.926 7.094 3.82 3.893 8.814 8.988 11.091 11.328s4.502 4.541 4.932 4.902c2.76 2.256 6.108 3.639 9.602 3.957 1.374.129 1.585.129 3.064 0m-87.054-1.34c.776-.744 7.723-7.743 15.436-15.549 7.723-7.808 14.113-14.243 14.198-14.295.083-.043.157-.129.157-.171 0-.053-2.393-2.532-5.321-5.51-2.938-2.967-5.897-6.03-6.589-6.785-3.642-4-6.223-6.371-8.311-7.637-2.015-1.234-4.428-2.074-7.272-2.532-1.343-.223-5.856-.191-7.083.043-3.033.585-5.457 1.479-7.975 2.946-6.317 3.681-10.945 9.806-12.844 16.965-.63 2.361-.882 4.297-.882 6.807-.01 5.201 1.301 9.934 4.05 14.592 2.876 4.883 7.514 8.946 12.53 10.977 2.57 1.032 4.617 1.458 7.282 1.489l1.228.011z"/></svg>