<svg xmlns="http://www.w3.org/2000/svg" fill="none" viewBox="0 0 256 256"><rect width="228" height="228" x="14" y="14" fill="#89a5e8" rx="46"/><path fill="#bababa" d="M77.78 59.808c14.533-16.462 58.117-22.441 69.298-16.653 11.181 5.785 45.582 49.864 39.121 60.684-10.806 18.092-29.205 31.355-32.605 33.986-3.919-6.284-28.481 4.386-22.867 15.734.426 4.764-23.943 16.308-35.035 17.264-.938.232-1.81.242-2.597-.005-14.442-1.782-40.27-31.538-43.377-43.595-5.547-21.558 22.703-61.346 28.06-67.415"/><path stroke="#6b6b6b" stroke-opacity=".78" d="M77.78 59.808c14.532-16.462 58.116-22.441 69.297-16.653 11.181 5.785 45.583 49.864 39.122 60.684m-108.42-44.03c-5.36 6.068-33.61 45.855-28.06 67.413 3.101 12.057 28.933 41.815 43.377 43.594M77.779 59.808c26.613 49.368 55.352 66.203 52.948 69.544m55.472-25.513c-10.806 18.091-29.205 31.354-32.605 33.985-3.92-6.284-28.482 4.386-22.867 15.734.464 5.182-28.422 18.391-37.631 17.258m93.103-66.977-55.472 25.513m-37.631 41.464c10.306 3.268 35.226-38.124 37.631-41.464"/><path fill="#d1a656" stroke="#7a550f" d="M130.621 152.484c-4.666-11.739 18.349-21.699 22.801-15.668L205 192.305c-3.228-5.833-33.597 11.448-27.601 21.695z"/><path fill="#b87e44" stroke="#7a550f" d="M176.025 211.607c1.872 11.064 35.949-7.475 29.056-19.216-.894-6.091-30.056 9.198-29.056 19.216Z"/></svg>