<svg xmlns="http://www.w3.org/2000/svg" fill="none" viewBox="0 0 256 256"><rect width="228" height="228" x="14" y="14" fill="#78dc50" rx="46"/><path fill="#fff" d="M80.977 62.356c25.502-4.097 48.575 28.369 55.231 37.69a123.4 123.4 0 0 1 21.767 58.906q-.317.445-.629.893c11.603-15.142 29.647-26.982 43.091-21.496 14.037 5.728 17.495 28.002 16.364 28.583-.964.494-5.792-14.25-15.265-15.075-8.35-.723-15.427 10.114-16.675 12.017-5.17 7.837-6.424 16.281-5.816 37.129A444 444 0 0 0 182.203 242H91.742c.617-9.747.228-19.531-1.168-29.199a96 96 0 0 0-15.891-46.173c-14.936-19.758-36.82-24.009-35.637-27.654.938-2.883 15.951-1.67 29.342 1.891 10.74 2.856 27.19 8.598 45.842 23.99-5.407-64.073-18.006-84.979-31.302-88.018-12.628-2.883-27.092 10.069-28.786 7.489-1.77-2.64 10.394-19.339 26.835-21.97"/><path fill="#78dc50" d="M136.713 186.506a11.6 11.6 0 0 1-2.581 7.294 11.33 11.33 0 0 1-6.565 3.98 11.23 11.23 0 0 1-7.568-1.14 11.45 11.45 0 0 1-5.136-5.744 11.64 11.64 0 0 1-.373-7.739 11.5 11.5 0 0 1 4.561-6.221 11.24 11.24 0 0 1 7.423-1.88 11.3 11.3 0 0 1 6.916 3.315 11.5 11.5 0 0 1 2.462 3.732 11.6 11.6 0 0 1 .861 4.403m30.287 0a11.6 11.6 0 0 1-2.581 7.294 11.33 11.33 0 0 1-6.565 3.98 11.24 11.24 0 0 1-7.569-1.14 11.46 11.46 0 0 1-5.136-5.744 11.64 11.64 0 0 1-.372-7.739 11.5 11.5 0 0 1 4.561-6.221 11.24 11.24 0 0 1 7.423-1.88 11.3 11.3 0 0 1 6.916 3.315 11.5 11.5 0 0 1 2.462 3.732c.57 1.396.863 2.892.861 4.403"/></svg>