<svg xmlns="http://www.w3.org/2000/svg" fill="none" viewBox="0 0 256 256"><rect width="228" height="228" x="14" y="14" fill="#007acc" rx="46"/><path fill="#fff" fill-rule="evenodd" d="M144.725 190.453v25.237a53.9 53.9 0 0 0 14.58 4.73 96 96 0 0 0 17.739 1.579 82.7 82.7 0 0 0 17.258-1.736 42.3 42.3 0 0 0 14.341-5.758 29.2 29.2 0 0 0 9.762-10.413 36.6 36.6 0 0 0 1.537-27.919 28 28 0 0 0-5.926-9.188 43.3 43.3 0 0 0-9.283-7.214 100 100 0 0 0-12.208-6.038q-4.96-2.048-8.927-3.981a45.5 45.5 0 0 1-6.72-3.94 17.2 17.2 0 0 1-4.265-4.261 8.94 8.94 0 0 1-1.496-5.083 8.5 8.5 0 0 1 1.339-4.697 11.56 11.56 0 0 1 3.794-3.587 20.2 20.2 0 0 1 6.001-2.328 35 35 0 0 1 7.902-.822c2.234.007 4.466.167 6.678.477 2.39.321 4.754.808 7.076 1.456a49.6 49.6 0 0 1 6.91 2.468 38.5 38.5 0 0 1 6.207 3.471v-23.551a62.4 62.4 0 0 0-12.605-3.29c-5.2-.753-10.45-1.108-15.704-1.061a72.8 72.8 0 0 0-17.061 1.933 43.4 43.4 0 0 0-14.183 6.03 30.1 30.1 0 0 0-9.68 10.455 30.6 30.6 0 0 0-3.562 15.176 29.42 29.42 0 0 0 6.522 19.248 49.6 49.6 0 0 0 19.796 13.482 288 288 0 0 1 9.712 4.187 53.5 53.5 0 0 1 7.786 4.253 20.3 20.3 0 0 1 5.174 4.812 9.83 9.83 0 0 1 1.901 5.914 9 9 0 0 1-1.19 4.541 10.5 10.5 0 0 1-3.595 3.628 19.8 19.8 0 0 1-6.001 2.402 36.4 36.4 0 0 1-8.415.863 47.9 47.9 0 0 1-16.275-2.879 48.6 48.6 0 0 1-14.919-8.596m-42.601-62.828h33.062v-20.787H43v20.787h32.914v92.573h26.21z" clip-rule="evenodd"/></svg>