<svg xmlns="http://www.w3.org/2000/svg" fill="none" viewBox="0 0 256 256"><rect width="228" height="228" x="14" y="14" fill="#5d87bf" rx="46"/><path fill="#fff" d="m151.322 197.215 49.426-138.374c.838-2.347-.483-4.058-2.949-3.819l-38.869 3.77c-2.465.24-5.129 2.346-5.943 4.7l-45.749 132.241c-.815 2.355.534 4.267 3.011 4.267h37.833c1.239 0 2.585-.952 3.004-2.126z"/><path fill="#fff" d="m58.206 55.022 38.928 3.77c2.469.24 5.139 2.344 5.959 4.698l46.787 134.378c.41 1.177-.265 2.132-1.505 2.132h-38.13c-2.481 0-5.177-1.905-6.016-4.252L55.252 58.841c-.839-2.347.484-4.058 2.954-3.819"/></svg>