<svg xmlns="http://www.w3.org/2000/svg" fill="none" viewBox="0 0 256 256"><rect width="228" height="228" x="14" y="14" fill="#729b1b" rx="46"/><path fill="#fcc72b" d="m187.997 116.943-66.101 93.654a5.7 5.7 0 0 1-2.887 2.119 5.82 5.82 0 0 1-3.61-.006 5.65 5.65 0 0 1-2.873-2.127 5.44 5.44 0 0 1-.976-3.39l2.646-51.707-42.708-8.875a5.7 5.7 0 0 1-2.476-1.183 5.54 5.54 0 0 1-1.611-2.182 5.4 5.4 0 0 1-.365-2.667 5.46 5.46 0 0 1 .967-2.521l66.101-93.655a5.68 5.68 0 0 1 2.887-2.118 5.8 5.8 0 0 1 3.611.005 5.65 5.65 0 0 1 2.873 2.128 5.43 5.43 0 0 1 .975 3.39l-2.645 51.707 42.707 8.875a5.74 5.74 0 0 1 2.477 1.183 5.5 5.5 0 0 1 1.609 2.182c.346.846.471 1.762.366 2.667a5.45 5.45 0 0 1-.967 2.521"/></svg>