<svg xmlns="http://www.w3.org/2000/svg" fill="none" viewBox="0 0 256 256"><rect width="228" height="228" x="14" y="14" fill="#863bff" rx="46"/><path fill="#fff" d="M135.017 202.535c-2.234 2.848-6.803 1.265-6.803-2.354v-34.743c0-4.214-3.41-7.627-7.617-7.627H82.29c-3.097 0-4.904-3.509-3.097-6.03l25.184-35.31c3.606-5.049 0-12.066-6.201-12.066h-46.36c-3.098 0-4.903-3.508-3.097-6.029l32.649-45.778A3.82 3.82 0 0 1 84.465 51h97.296c3.098 0 4.903 3.508 3.098 6.03l-25.186 35.31c-3.605 5.048 0 12.065 6.203 12.065h38.307c3.176 0 4.961 3.669 2.996 6.175z"/></svg>