<svg xmlns="http://www.w3.org/2000/svg" fill="none" viewBox="0 0 256 256"><rect width="228" height="228" x="14" y="14" fill="#7293ff" rx="46"/><path fill="#ffdd35" d="M158.76 44.051 87.498 58.148a2.634 2.634 0 0 0-2.11 2.436l-4.383 74.744c-.103 1.76 1.498 3.126 3.2 2.73l19.841-4.623c1.856-.432 3.533 1.219 3.152 3.104l-5.895 29.14c-.397 1.961 1.427 3.638 3.325 3.056l12.254-3.758c1.9-.582 3.725 1.099 3.323 3.062l-9.367 45.773c-.586 2.863 3.186 4.425 4.759 1.97l1.051-1.64L174.717 97.15c.972-1.96-.705-4.193-2.836-3.778l-20.422 3.98c-1.919.373-3.552-1.431-3.011-3.327l13.33-46.65c.542-1.898-1.097-3.704-3.018-3.324"/></svg>