<svg xmlns="http://www.w3.org/2000/svg" fill="none" viewBox="0 0 256 256"><rect width="228" height="228" x="14" y="14" fill="#fff" rx="46"/><path fill="#62b454" fill-rule="evenodd" d="M128 128H14v41.32c0 24.895 0 37.342 4.69 46.917a46 46 0 0 0 21.073 21.072C49.338 242 61.785 242 86.68 242h82.64c24.895 0 37.342 0 46.917-4.691a46 46 0 0 0 21.072-21.072C242 206.662 242 194.215 242 169.32V86.68c0-24.895 0-37.342-4.691-46.917a46 46 0 0 0-21.072-21.072C206.662 14 194.215 14 169.32 14H128z" clip-rule="evenodd"/></svg>