<svg xmlns="http://www.w3.org/2000/svg" fill="none" viewBox="0 0 256 256"><rect width="228" height="228" x="14" y="14" fill="#f2932a" rx="46"/><path fill="#fff" d="m57.694 199.068 53.765-68.671L53 56.357c1.502-.115 2.396-.258 3.327-.258 9.012 0 18.024.095 27.037-.067 2.1-.162 4.145.89 5.564 2.861 12.137 15.623 24.363 31.074 36.59 46.553.864 1.097 1.78 2.118 2.786 3.31 12.978-16.395 25.858-32.552 38.602-48.88 2.088-2.68 4.138-3.95 7.157-3.873 9.493.239 18.994.086 28.937.086-.353.875-.77 1.705-1.247 2.48a76072 76072 0 0 1-59.225 75.08c-16.387 20.725-32.849 41.365-49.191 62.157-1.671 2.312-4.074 3.546-6.541 3.357-8.63-.21-17.274-.067-25.888-.067z"/></svg>