<svg xmlns="http://www.w3.org/2000/svg" fill="none" viewBox="0 0 256 256"><g filter="url(#a)"><path fill="#2188B6" fill-rule="evenodd" d="M231 89.845c0-2.433.001-4.867-.014-7.301-.012-2.05-.036-4.1-.091-6.15-.121-4.466-.384-8.97-1.179-13.387-.805-4.48-2.121-8.65-4.194-12.721a42.808 42.808 0 0 0-18.718-18.708c-4.075-2.074-8.249-3.39-12.734-4.195-4.418-.793-8.924-1.056-13.39-1.177a294.859 294.859 0 0 0-6.153-.091c-2.435-.015-4.87-.014-7.305-.014L138.948 26h-21.146l-27.774.101c-2.44 0-4.88-.001-7.32.014-2.055.013-4.11.036-6.164.091-4.477.121-8.993.384-13.42 1.178-4.492.806-8.673 2.12-12.753 4.192a42.89 42.89 0 0 0-10.864 7.873 42.794 42.794 0 0 0-7.891 10.835c-2.079 4.073-3.397 8.245-4.205 12.728-.795 4.415-1.058 8.918-1.18 13.383-.055 2.05-.079 4.099-.09 6.149-.016 2.434-.141 5.458-.141 7.891v48.762l.126 27.971c0 2.437 0 4.874.014 7.311.012 2.053.036 4.106.092 6.158.12 4.472.385 8.984 1.18 13.406.808 4.487 2.126 8.662 4.203 12.738a42.898 42.898 0 0 0 18.754 18.735c4.083 2.076 8.265 3.393 12.76 4.199 4.425.795 8.94 1.058 13.415 1.179 2.055.055 4.11.079 6.165.091 2.44.015 4.88.014 7.319.014l28.025.001h21.199l27.97-.001c2.435 0 4.87.001 7.305-.014 2.052-.012 4.102-.036 6.153-.091 4.468-.121 8.976-.385 13.395-1.18 4.482-.806 8.655-2.122 12.728-4.197a42.839 42.839 0 0 0 18.718-18.734c2.075-4.078 3.39-8.256 4.196-12.745.794-4.421 1.057-8.93 1.178-13.401.055-2.052.079-4.105.091-6.158.015-2.437.014-4.874.014-7.311l-.002-27.971v-21.395L231 89.845Z" clip-rule="evenodd"/></g><path fill="#fff" d="M195.986 168.842a51.225 51.225 0 0 0-19.294 8.85 115.917 115.917 0 0 1-28.437 12.833 7.955 7.955 0 0 1-4.791 2.671 304.097 304.097 0 0 1-31.419 2.803c-5.668.044-9.143-1.457-10.108-3.769a7.624 7.624 0 0 1 1.684-8.423 7.654 7.654 0 0 1 2.537-1.651 18.358 18.358 0 0 1-2.505-1.841c-.833-.831-1.716-2.497-1.979-1.885-1.096 2.672-1.671 9.2-4.615 12.143-4.045 4.076-11.696 2.716-16.219.35-4.966-2.628.351-8.806.351-8.806a3.562 3.562 0 0 1-3.992-.53 3.54 3.54 0 0 1-.842-1.136 23.48 23.48 0 0 1-3.251-14.324 26.087 26.087 0 0 1 8.524-14.062 45.2 45.2 0 0 1 3.206-21.372 50.777 50.777 0 0 1 15.425-17.783s-9.445-10.428-5.926-19.803c2.286-6.13 3.207-6.086 3.957-6.353a17.71 17.71 0 0 0 7.076-4.163 25.666 25.666 0 0 1 9.764-6.667 25.74 25.74 0 0 1 11.728-1.59s5.732-17.254 10.98-13.902a88.998 88.998 0 0 1 7.471 14.018s6.243-3.633 6.945-2.278a54.876 54.876 0 0 1 2.549 29.785 67.974 67.974 0 0 1-12.671 26.283c-.658 1.093 7.559 4.556 12.744 18.88 4.791 13.115.526 24.092 1.277 25.316.131.219.175.306.175.306s5.493.437 16.526-6.353a41.511 41.511 0 0 1 20.844-7.791 5.28 5.28 0 0 1 3.908.75 5.243 5.243 0 0 1 1.599 7.17 5.261 5.261 0 0 1-3.221 2.324Z"/><defs><filter id="a" width="215" height="215" x="21" y="23.5" color-interpolation-filters="sRGB" filterUnits="userSpaceOnUse"><feFlood flood-opacity="0" result="BackgroundImageFix"/><feColorMatrix in="SourceAlpha" result="hardAlpha" values="0 0 0 0 0 0 0 0 0 0 0 0 0 0 0 0 0 0 127 0"/><feOffset dy="2.5"/><feGaussianBlur stdDeviation="2.5"/><feColorMatrix values="0 0 0 0 0 0 0 0 0 0 0 0 0 0 0 0 0 0 0.3 0"/><feBlend in2="BackgroundImageFix" result="effect1_dropShadow_224_78"/><feBlend in="SourceGraphic" in2="effect1_dropShadow_224_78" result="shape"/></filter></defs></svg>