<svg xmlns="http://www.w3.org/2000/svg" fill="none" viewBox="0 0 256 256"><rect width="228" height="228" x="14" y="14" fill="#1c63ed" rx="46"/><path fill="#fff" d="M217.069 174.651a62.9 62.9 0 0 0-23.7 10.868 142.4 142.4 0 0 1-34.93 15.758 9.77 9.77 0 0 1-5.884 3.28 374 374 0 0 1-38.594 3.442c-6.962.054-11.231-1.789-12.416-4.629a9.35 9.35 0 0 1 2.068-10.342 9.4 9.4 0 0 1 3.116-2.028 22.5 22.5 0 0 1-3.077-2.26c-1.023-1.02-2.107-3.066-2.43-2.315-1.347 3.281-2.053 11.297-5.67 14.912-4.968 5.004-14.366 3.334-19.922.429-6.1-3.227.431-10.814.431-10.814a4.37 4.37 0 0 1-3.404.232 4.38 4.38 0 0 1-2.534-2.277 28.83 28.83 0 0 1-3.993-17.59A32.03 32.03 0 0 1 76.6 154.05a55.5 55.5 0 0 1 3.94-26.243 62.35 62.35 0 0 1 18.946-21.836s-11.602-12.806-7.28-24.318c2.808-7.527 3.94-7.473 4.861-7.801a21.8 21.8 0 0 0 8.693-5.112 31.5 31.5 0 0 1 11.993-8.187 31.6 31.6 0 0 1 14.406-1.952s7.04-21.186 13.487-17.07a109.3 109.3 0 0 1 9.177 17.213s7.669-4.462 8.531-2.797a67.37 67.37 0 0 1 3.131 36.574 83.4 83.4 0 0 1-15.565 32.273c-.808 1.342 9.285 5.595 15.655 23.184 5.884 16.104.646 29.584 1.568 31.087.162.269.215.376.215.376s6.747.537 20.3-7.802a51 51 0 0 1 25.603-9.567 6.5 6.5 0 0 1 4.801.921 6.45 6.45 0 0 1 2.784 4.003 6.43 6.43 0 0 1-.82 4.801 6.46 6.46 0 0 1-3.957 2.854"/></svg>