<svg xmlns="http://www.w3.org/2000/svg" fill="none" viewBox="0 0 256 256"><rect width="228" height="228" x="14" y="14" fill="#f7a41d" rx="46"/><path fill="#fff" d="M94.608 76.726 75.196 100.45 65.49 85.353z"/><path fill="#fff" d="m94.608 76.726-14.02 11.862-5.392 11.863h-6.47v55h9.705l-11.862 5.392-8.628 18.333H45V76.726z"/><path fill="#fff" d="m78.431 155.451-20.49 23.725-8.627-11.862zm26.961-78.725 6.471 15.097-26.961 8.628z"/><path fill="#fff" d="M105.392 76.726h59.314v23.725H84.902l20.49-12.941zm64.706 78.725-20.49 23.725-7.549-14.019z"/><path fill="#fff" d="m170.098 155.451-17.255 9.706-3.235 14.019H90.294v-23.725z"/><path fill="#fff" d="M206.765 53 101.078 179.176 48.235 203.98 153.922 76.726zm-9.706 23.726-1.079 19.411-19.411 5.392z"/><path fill="#fff" d="M210 76.726v102.45h-50.686l15.098-12.941 5.392-10.784h6.471v-53.922h-9.706l10.784-9.705 9.706-15.099z"/><path fill="#fff" d="m179.804 155.451 5.392 16.176-25.882 7.549z"/></svg>