<svg xmlns="http://www.w3.org/2000/svg" fill="none" viewBox="0 0 256 256"><g filter="url(#a)"><path fill="#fff" fill-rule="evenodd" d="M231 89.845c0-2.433.001-4.867-.014-7.301-.012-2.05-.036-4.1-.091-6.15-.121-4.466-.384-8.97-1.179-13.387-.805-4.48-2.121-8.65-4.194-12.721a42.808 42.808 0 0 0-18.718-18.708c-4.075-2.074-8.249-3.39-12.734-4.195-4.418-.793-8.924-1.056-13.39-1.177a294.859 294.859 0 0 0-6.153-.091c-2.435-.015-4.87-.014-7.305-.014L138.948 26h-21.146l-27.774.101c-2.44 0-4.88-.001-7.32.014-2.055.013-4.11.036-6.164.091-4.477.121-8.993.384-13.42 1.178-4.492.806-8.673 2.12-12.753 4.192a42.89 42.89 0 0 0-10.864 7.873 42.794 42.794 0 0 0-7.891 10.835c-2.079 4.073-3.397 8.245-4.205 12.728-.795 4.415-1.058 8.918-1.18 13.383-.055 2.05-.079 4.099-.09 6.149-.016 2.434-.141 5.458-.141 7.891v48.762l.126 27.971c0 2.437 0 4.874.014 7.311.012 2.053.036 4.106.092 6.158.12 4.472.385 8.984 1.18 13.406.808 4.487 2.126 8.662 4.203 12.738a42.898 42.898 0 0 0 18.754 18.735c4.083 2.076 8.265 3.393 12.76 4.199 4.425.795 8.94 1.058 13.415 1.179 2.055.055 4.11.079 6.165.091 2.44.015 4.88.014 7.319.014l28.025.001h21.199l27.97-.001c2.435 0 4.87.001 7.305-.014 2.052-.012 4.102-.036 6.153-.091 4.468-.121 8.976-.385 13.395-1.18 4.482-.806 8.655-2.122 12.728-4.197a42.839 42.839 0 0 0 18.718-18.734c2.075-4.078 3.39-8.256 4.196-12.745.794-4.421 1.057-8.93 1.178-13.401.055-2.052.079-4.105.091-6.158.015-2.437.014-4.874.014-7.311l-.002-27.971v-21.395L231 89.845Z" clip-rule="evenodd"/></g><path fill="#000" d="M66.75 102h122.5c4.812 0 8.75 3.9 8.75 8.667 0 4.766-3.938 8.666-8.75 8.666H66.75c-4.812 0-8.75-3.9-8.75-8.666C58 105.9 61.938 102 66.75 102Zm0 34.667h70c4.812 0 8.75 3.9 8.75 8.666 0 4.767-3.938 8.667-8.75 8.667h-70c-4.812 0-8.75-3.9-8.75-8.667 0-4.766 3.938-8.666 8.75-8.666Z"/><defs><filter id="a" width="215" height="215" x="21" y="23.5" color-interpolation-filters="sRGB" filterUnits="userSpaceOnUse"><feFlood flood-opacity="0" result="BackgroundImageFix"/><feColorMatrix in="SourceAlpha" result="hardAlpha" values="0 0 0 0 0 0 0 0 0 0 0 0 0 0 0 0 0 0 127 0"/><feOffset dy="2.5"/><feGaussianBlur stdDeviation="2.5"/><feColorMatrix values="0 0 0 0 0 0 0 0 0 0 0 0 0 0 0 0 0 0 0.3 0"/><feBlend in2="BackgroundImageFix" result="effect1_dropShadow_20_612"/><feBlend in="SourceGraphic" in2="effect1_dropShadow_20_612" result="shape"/></filter></defs></svg>