<svg xmlns="http://www.w3.org/2000/svg" viewBox="0 0 1028 425" fill="none">
  <g clip-path="url(#a)">
    <path
      fill="#2B2B2A"
      d="M88.2 112.64c1.8 0 2.34.9 2.34 2.52 0 4.14-1.44 10.08-1.44 26.28 0 1.44-.36 2.88-1.62 2.88-1.08 0-1.62-.9-1.98-2.88-.54-2.52-.9-6.12-1.62-11.7-1.26-8.82-5.94-9.18-10.44-9.18-9.18 0-25.38 1.62-28.8 2.7-3.78.9-4.14 3.24-4.14 6.12 0 7.56 1.44 38.34 2.16 54.54 2.52.36 6.12.72 9.36.72 7.74 0 10.26-2.16 11.7-5.4.72-1.8.9-3.24 1.26-5.4s1.08-2.7 1.8-2.7 1.26.72 1.26 2.16c0 5.22-1.44 15.66-1.44 22.68 0 6.3.36 12.96.36 15.12 0 1.62-.54 3.42-2.16 3.42-1.26 0-2.16-1.26-2.34-3.6-.18-2.34-.18-9-1.08-12.24-.72-1.98-1.98-4.14-5.22-5.22-2.7-.9-8.64-1.26-13.14-1.62 1.08 17.46 3.96 63.9 4.68 67.68.54 4.86 2.34 6.84 6.66 7.38 2.34.36 5.22.54 8.46.54 17.82 0 26.82-3.24 31.5-15.3 2.52-6.3 3.24-12.96 4.68-12.96.9 0 1.26 2.52 1.26 5.4 0 8.46-1.98 21.6-3.6 26.28-1.44 3.78-3.96 5.04-8.28 5.04-7.38 0-26.82-3.06-47.16-4.14-15.66-.9-28.8-.9-33.66-.9-3.24 0-3.96-.9-3.96-2.34 0-1.8 1.44-2.34 3.42-2.34 1.26 0 4.5.36 9 .36 1.44 0 3.06 0 4.86-.18 8.46-.36 8.46-5.94 8.46-9-.36-22.68-4.32-54.36-5.4-66.42-1.08-12.06-4.68-39.78-6.84-51.12-1.8-9-4.32-13.14-7.74-15.66-2.7-2.16-7.56-3.78-7.56-5.76 0-.9.72-1.44 2.34-1.44 3.42 0 11.34 1.98 27.18 1.98 18 0 53.46-6.3 56.88-6.3Zm46.965 47.88c.9 0 1.8.36 1.8 1.62 0 .9-.54 1.44-1.26 2.16-1.44 1.08-4.32 2.52-9.36 6.3-5.94 4.5-6.3 10.62-6.3 19.44.36 17.64 4.68 34.2 8.64 42.12 4.14 8.46 10.08 13.86 18.72 13.86 18.18 0 21.42-28.8 21.42-41.94 0-11.52-1.8-17.28-5.58-19.62-2.88-1.98-8.64-2.88-10.62-3.42-2.52-.54-3.42-1.44-3.42-3.06s1.26-2.7 3.06-2.7c3.42 0 9.18.9 16.92.9 8.46 0 21.42-2.34 25.56-3.78 1.62-.72 2.7-.72 3.24-.72 1.44 0 2.52.72 2.52 1.98s-.54 1.98-1.62 2.7c-2.7 1.8-5.58 3.06-6.84 5.94-2.16 5.04-1.98 13.32-3.42 32.58-1.62 21.42-5.4 49.14-14.76 77.94-9.54 28.98-25.74 46.8-46.26 46.8-14.4 0-24.3-9.36-24.3-23.04 0-14.76 9.18-25.2 21.42-25.2 10.08 0 15.3 7.02 15.3 14.4 0 6.3-4.14 11.34-10.98 11.34-11.88 0-9.9-12.96-15.12-12.96-3.78 0-6.3 6.12-6.3 12.06 0 11.34 8.46 18.9 20.16 18.9 29.52 0 36.9-44.64 37.98-49.86 3.24-20.7 3.96-36 3.96-44.82 0-2.88-.18-5.04-.18-6.48l-.18-2.34c-.36 1.26-.9 2.52-1.44 3.78-1.08 2.52-2.34 5.4-3.96 8.28-4.14 7.2-13.14 14.58-25.2 14.58-31.5 0-35.64-42.48-40.86-68.76-.72-3.6-2.16-4.5-4.14-4.5-2.16 0-4.86.72-6.12.72-1.08 0-1.8-.54-1.8-1.62 0-.9.72-1.62 1.8-1.98 10.62-2.88 16.02-5.04 22.32-8.1 14.58-7.02 21.06-13.5 25.2-13.5Zm138.632 49.86c1.62 2.7 3.24 7.74 3.24 12.42 0 17.1-11.7 27.18-30.24 27.18-26.82 0-42.12-19.08-42.12-45.72 0-36.18 25.2-52.38 44.1-52.38 12.42 0 28.44 5.94 28.44 25.56 0 25.74-24.66 31.5-36.72 31.5-5.76 0-11.7-.9-14.76-1.98.9 18.36 9.36 35.1 27.18 35.1 12.42 0 18-9.18 18-19.44 0-3.06-.36-6.48-1.44-9.36-.72-1.8-1.26-3.42-1.26-4.32 0-1.08.54-1.8 1.62-1.8s2.7 1.08 3.96 3.24Zm-48.42-9.18c3.06.9 6.48 1.62 12.42 1.62 13.68 0 23.4-10.62 23.4-26.64 0-14.4-6.84-18.9-13.86-18.9-9 0-21.96 9.54-21.96 43.92Zm113.867-21.6c-7.38 0-13.14-4.68-13.14-14.58 0-7.02-1.26-13.86-9.18-13.86-9.54 0-19.8 12.06-19.8 35.64 0 28.44 11.88 45.36 31.68 45.36 12.96 0 20.34-9.54 20.34-20.88 0-11.88-7.02-16.02-7.02-18.9 0-.9.54-1.26 1.44-1.26 3.6 0 12.24 7.74 12.24 20.7 0 21.06-14.58 32.76-34.38 32.76-22.86 0-38.88-17.82-38.88-47.16 0-14.04 5.4-28.08 12.24-36.18 10.08-12.42 20.88-16.2 33.12-16.2 13.5 0 23.94 7.74 23.94 19.44 0 11.16-6.84 15.12-12.6 15.12ZM362.55 203c0-26.28 17.1-43.02 43.02-43.02 23.04 0 40.14 16.02 40.14 41.58 0 30.24-21.96 42.66-40.5 42.66-22.14 0-42.66-15.12-42.66-41.22Zm41.76-39.6c-13.5 0-19.26 14.4-19.26 31.14 0 20.7 7.2 43.92 23.76 43.92 14.4 0 18.9-14.22 18.9-27.36 0-32.4-10.08-47.7-23.4-47.7Zm69.075-19.62c1.8 0 3.6 12.96 5.58 25.92l3.24 22.14c1.8-11.52 11.16-36.18 32.58-36.18 17.64 0 25.56 14.04 25.56 33.48 0 17.46-4.68 36-4.68 49.86 0 4.14.72 7.02 2.16 9.54 3.24 4.86 10.44 7.02 10.44 10.62 0 1.08-.54 1.98-1.98 1.98-4.14 0-9.36-7.2-24.12-11.88-5.58-1.8-10.62-2.88-18-3.24-1.98-.18-3.06-.72-3.06-1.8s.72-1.62 1.98-1.62c1.62 0 4.86 0 7.92-.18 4.68-.36 7.74-2.34 9.18-9.18 1.08-5.4 1.98-17.28 1.98-26.1 0-11.88 0-37.62-17.28-37.62-9.72 0-16.56 10.44-18.72 24.66-1.44 7.2-1.62 14.94-1.62 22.68 0 12.78 1.8 24.3 4.86 28.62 2.16 3.06 5.04 4.32 6.84 5.04 2.34.72 3.24 1.08 3.24 1.98 0 .72-1.08 1.44-3.6 1.44-4.86 0-11.88-1.98-18.54-1.98-6.48 0-14.22 1.08-17.28 1.08-2.16 0-3.42-.72-3.42-2.16 0-1.08.72-1.8 2.7-2.16 3.24-.18 4.86-.18 8.82-.72 3.78-.54 4.86-2.7 4.86-6.48 0-12.96-4.68-37.8-10.62-63.9-1.44-6.66-2.88-9.9-6.3-9.9-3.6 0-7.74 3.06-10.44 3.06-1.08 0-1.62-.36-1.62-1.44 0-1.44 1.44-1.98 2.88-2.52 3.24-1.26 7.02-3.06 11.52-6.48 8.64-6.84 13.5-16.56 14.94-16.56Zm132.359.54c9.72 0 12.78 2.34 16.2 2.34 1.98 0 2.88-2.34 3.96-5.4.72-1.98 1.62-3.06 2.7-3.06 1.8 0 2.16 1.44 2.16 2.52 0 2.7-1.44 5.4-3.06 16.02-1.44 8.64-1.26 12.06-1.98 16.2-.36 2.16-1.26 3.42-2.34 3.42-1.44 0-1.8-1.8-1.8-3.6v-6.84c0-13.86-6.66-18.18-15.48-18.18-7.74 0-14.76 5.4-14.76 14.58 0 24.12 48.78 39.96 48.78 76.14 0 24.12-16.02 37.44-34.92 37.44-13.14 0-22.86-6.12-28.08-11.88-4.86-5.4-7.74-8.28-11.7-8.28-4.32 0-10.26 7.2-13.14 7.2-1.26 0-1.8-.9-1.8-1.62 0-.72.36-1.44 1.26-2.34 1.44-1.44 8.64-7.2 17.1-18.9 7.92-10.98 9.72-19.98 13.14-19.98 1.8 0 2.16 1.26 2.16 2.52 0 3.6-6.12 11.16-6.12 24.48 0 7.74 5.76 22.32 21.78 22.32 12.6 0 20.7-9.9 20.7-24.3 0-27.72-44.1-49.5-44.1-74.16 0-18.36 14.94-26.64 29.34-26.64Z"
    ></path>
    <path
      fill="#2B2B2A"
      d="m85.5 141.44 2.46-.447-.007-.039-.008-.038-2.445.524Zm-1.62-11.7 2.48-.32-.003-.017-.002-.017-2.475.354Zm-39.24-6.48.58 2.432.087-.021.086-.027-.753-2.384Zm-1.98 60.66-2.497.111.092 2.071 2.051.293.354-2.475Zm21.06-4.68 2.284 1.015.02-.043.017-.044-2.321-.928Zm1.26-5.4 2.466.411-2.466-.411Zm-2.52 37.08-2.493.192 2.493-.192Zm-1.08-12.24 2.409-.669-.026-.094-.033-.091-2.35.854Zm-5.22-5.22.79-2.372-.79 2.372Zm-13.14-1.62.2-2.492-2.873-.23.178 2.876 2.495-.154Zm4.68 67.68 2.485-.276-.011-.096-.018-.096-2.456.468Zm6.66 7.38.38-2.471-.035-.005-.035-.005-.31 2.481Zm39.96-14.76-2.321-.928-.005.012-.005.012 2.331.904Zm2.34 18.72 2.336.89.014-.036.012-.036-2.362-.818Zm-55.44.9-.143 2.496h.01l.133-2.496Zm-20.34-5.4-.106-2.498-.072.003-.07.007.248 2.488Zm8.46-9h2.5v-.04l-2.5.04Zm-5.4-66.42-2.49.223 2.49-.223Zm-6.84-51.12 2.456-.468-.002-.011-.002-.011-2.452.49Zm-7.74-15.66-1.562 1.952.039.031.04.03 1.483-2.013Zm78.84-9.02c.123 0 .203.008.25.015.046.007.051.011.026.002a.664.664 0 0 1-.15-.079.983.983 0 0 1-.193-.175c-.118-.14-.139-.244-.13-.209.005.019.015.065.023.146.008.08.014.185.014.32h5c0-.984-.142-2.36-1.083-3.478-1.025-1.217-2.477-1.542-3.757-1.542v5Zm-.16.02c0 1.923-.332 4.167-.71 8.395-.366 4.095-.73 9.704-.73 17.885h5c0-8.019.356-13.48.71-17.44.342-3.827.73-6.623.73-8.84h-5Zm-1.44 26.28c0 .262-.017.487-.045.667-.014.088-.03.155-.043.204-.014.049-.023.07-.022.067 0-.002.017-.038.06-.094.042-.057.113-.136.219-.215a1.27 1.27 0 0 1 .711-.249v5c.826 0 1.616-.248 2.28-.744a4.152 4.152 0 0 0 1.275-1.614c.469-1.023.565-2.166.565-3.022h-5Zm.88.38c.09 0 .283.023.497.142a.946.946 0 0 1 .323.274c.009.013-.04-.058-.113-.285a7.531 7.531 0 0 1-.227-.958l-4.92.894c.192 1.056.487 2.203 1.1 3.122.332.499.79.981 1.414 1.326.63.35 1.295.485 1.926.485v-5Zm.465-.904c-.512-2.385-.848-5.782-1.586-11.496l-4.958.64c.702 5.445 1.086 9.249 1.654 11.904l4.89-1.048Zm-1.59-11.53c-.688-4.816-2.407-7.93-5.146-9.658-2.577-1.626-5.576-1.668-7.769-1.668v5c2.306 0 3.898.138 5.101.897 1.041.657 2.292 2.133 2.864 6.137l4.95-.708ZM73.44 118.06c-4.702 0-11.135.413-16.799.956-2.838.273-5.51.581-7.7.891-2.124.301-3.974.628-5.054.969l1.506 4.768c.63-.199 2.087-.48 4.25-.786 2.096-.297 4.69-.597 7.476-.864 5.586-.537 11.843-.934 16.321-.934v-5Zm-29.379 2.768c-2.39.569-4.13 1.724-5.116 3.575-.883 1.662-.945 3.54-.945 4.977h5c0-1.443.118-2.175.36-2.628.14-.264.468-.729 1.86-1.06l-1.159-4.864ZM38 129.38c0 7.634 1.445 38.51 2.163 54.651l4.995-.222C44.434 167.55 43 136.866 43 129.38h-5Zm4.306 57.015c2.594.37 6.319.745 9.714.745v-5c-3.084 0-6.56-.345-9.006-.695l-.708 4.95Zm9.714.745c4.054 0 7.09-.557 9.386-1.778 2.403-1.277 3.721-3.132 4.598-5.107l-4.569-2.03c-.562 1.265-1.224 2.11-2.376 2.723-1.26.669-3.353 1.192-7.039 1.192v5Zm14.021-6.972c.844-2.108 1.062-3.861 1.405-5.917l-4.932-.822c-.377 2.264-.519 3.391-1.115 4.883l4.642 1.856Zm1.405-5.917c.072-.43.15-.712.214-.887.065-.176.098-.201.058-.149a1.098 1.098 0 0 1-.383.294 1.302 1.302 0 0 1-.555.131v-5c-1.116 0-2.21.479-3.008 1.505-.687.883-1.05 2.035-1.258 3.284l4.932.822Zm-.666-.611c-.252 0-.526-.067-.774-.214a1.326 1.326 0 0 1-.446-.421c-.113-.181-.02-.161-.02.295h5c0-.984-.177-2.044-.74-2.945-.622-.995-1.69-1.715-3.02-1.715v5Zm-1.24-.34c0 2.472-.345 6.243-.71 10.448-.359 4.118-.73 8.594-.73 12.232h5c0-3.382.349-7.636.71-11.798.355-4.075.73-8.134.73-10.882h-5Zm-1.44 22.68c0 3.192.091 6.466.181 9.195.092 2.776.179 4.9.179 5.925h5c0-1.135-.093-3.421-.181-6.09-.09-2.716-.179-5.922-.179-9.03h-5Zm.36 15.12c0 .272-.023.528-.065.748a1.64 1.64 0 0 1-.128.421c-.03.059-.007-.015.124-.107a.773.773 0 0 1 .409-.142v5c1.974 0 3.258-1.197 3.908-2.454.591-1.143.752-2.443.752-3.466h-5Zm.34.92c.12 0 .264.035.39.109.117.068.144.125.115.082-.08-.12-.28-.549-.352-1.483l-4.986.384c.108 1.406.448 2.777 1.178 3.872.786 1.179 2.05 2.036 3.655 2.036v-5Zm.153-1.292c-.092-1.191-.12-3.165-.267-5.733-.134-2.341-.366-5.071-.897-6.984l-4.818 1.338c.369 1.327.587 3.547.723 5.931.123 2.157.185 4.683.273 5.832l4.986-.384Zm-1.224-12.902c-.873-2.403-2.562-5.332-6.778-6.738l-1.582 4.744c2.264.754 3.095 2.145 3.662 3.702l4.699-1.708Zm-6.778-6.738c-1.645-.548-4.063-.882-6.428-1.127-2.424-.252-5.093-.436-7.304-.613l-.398 4.984c2.29.183 4.84.359 7.186.602 2.405.25 4.307.546 5.362.898l1.582-4.744Zm-16.426.906c.54 8.73 1.53 24.71 2.476 38.981.472 7.135.934 13.849 1.323 19.018.38 5.061.706 8.871.92 9.995l4.912-.936c-.146-.766-.45-4.178-.846-9.434-.387-5.147-.848-11.843-1.32-18.973a9432.315 9432.315 0 0 1-2.475-38.959l-4.99.308Zm4.69 67.802c.293 2.634.967 4.967 2.543 6.71 1.618 1.79 3.824 2.566 6.292 2.875l.62-4.962c-1.852-.231-2.706-.715-3.203-1.265-.54-.597-1.035-1.684-1.282-3.91l-4.97.552Zm8.765 9.575c2.505.385 5.52.569 8.84.569v-5c-3.16 0-5.905-.176-8.08-.511l-.76 4.942Zm8.84.569c8.984 0 16.143-.802 21.718-3.354 5.744-2.63 9.576-7.003 12.113-13.542l-4.662-1.808c-2.142 5.521-5.151 8.798-9.532 10.803-4.55 2.083-10.8 2.901-19.637 2.901v5Zm33.821-16.872c1.326-3.314 2.18-6.731 2.834-9.107.344-1.25.607-2.117.839-2.658.12-.28.162-.304.093-.222-.06.072-.526.599-1.407.599v-5c-1.24 0-2.045.735-2.43 1.196-.393.471-.663 1.016-.853 1.459-.387.904-.731 2.097-1.062 3.299-.696 2.529-1.462 5.592-2.656 8.578l4.642 1.856ZM99 241.68c-1.128 0-1.595-.823-1.595-.823-.033-.057.032.047.113.444.154.75.242 1.907.242 3.279h5c0-1.508-.092-3.051-.343-4.281-.121-.593-.315-1.299-.668-1.918-.321-.563-1.171-1.701-2.749-1.701v5Zm-1.24 2.9c0 4.071-.48 9.345-1.168 14.207-.694 4.907-1.569 9.158-2.294 11.255l4.724 1.636c.895-2.583 1.82-7.242 2.521-12.19.707-4.993 1.217-10.519 1.217-14.908h-5Zm-3.436 25.39c-.572 1.501-1.246 2.238-1.984 2.668-.803.469-2.003.762-3.96.762v5c2.363 0 4.583-.337 6.48-1.443 1.962-1.145 3.268-2.928 4.136-5.207l-4.672-1.78Zm-5.944 3.43c-3.515 0-10.025-.74-18.451-1.651-8.328-.9-18.332-1.942-28.576-2.485l-.266 4.992c10.096.537 19.982 1.565 28.304 2.465 8.224.889 15.124 1.679 18.989 1.679v-5Zm-47.017-4.136c-15.734-.904-28.932-.904-33.803-.904v5c4.849 0 17.93 0 33.517.896l.286-4.992ZM7.56 268.36c-.707 0-1.18-.05-1.485-.113-.308-.062-.355-.12-.287-.072.103.071.221.206.287.366.049.119.025.148.025-.021h-5c0 1.164.323 2.714 1.842 3.765 1.246.863 2.9 1.075 4.618 1.075v-5Zm-1.46.16c0-.113.02-.056-.05.074a.643.643 0 0 1-.208.232c-.014.008.057-.036.276-.078a4.96 4.96 0 0 1 .902-.068v-5c-1.125 0-2.532.136-3.727.844-1.425.845-2.193 2.283-2.193 3.996h5Zm.92.16c.532 0 1.494.079 3.138.176 1.558.091 3.545.184 5.862.184v-5a92.9 92.9 0 0 1-5.568-.176c-1.416-.083-2.704-.184-3.432-.184v5Zm9 .36c1.433 0 3.169.002 5.109-.192l-.498-4.976c-1.66.166-3.164.168-4.611.168v5Zm4.966-.182c4.833-.206 7.861-1.977 9.459-4.731 1.445-2.491 1.395-5.331 1.395-6.767h-5c0 1.624-.05 3.104-.72 4.258-.517.891-1.719 2.09-5.346 2.244l.212 4.996ZM31.84 257.32c-.362-22.801-4.345-54.705-5.41-66.603l-4.98.446c1.095 12.222 5.032 43.678 5.39 66.237l5-.08Zm-5.41-66.603c-1.085-12.117-4.695-39.922-6.874-51.365l-4.912.936c2.14 11.237 5.731 38.872 6.806 50.875l4.98-.446Zm-6.878-51.387c-1.854-9.265-4.563-14.128-8.709-17.183l-2.966 4.026c2.694 1.984 5.025 5.402 6.772 14.137l4.903-.98Zm-8.63-17.122c-1.53-1.224-3.775-2.371-5.077-3.145-.754-.448-1.25-.79-1.539-1.06-.338-.316-.006-.165-.006.397h-5c0 1.552.94 2.648 1.597 3.26.706.658 1.595 1.227 2.393 1.702 1.803 1.071 3.338 1.814 4.508 2.75l3.124-3.904ZM4.3 118.4c0 .113-.025.32-.148.555-.126.241-.297.4-.431.486-.12.077-.175.077-.095.06.078-.018.24-.041.514-.041v-5c-1.013 0-2.165.156-3.136.784-1.144.74-1.704 1.919-1.704 3.156h5Zm-.16 1.06c.672 0 1.653.101 3.15.29 1.439.181 3.287.434 5.502.684 4.463.504 10.498 1.006 18.528 1.006v-5c-7.81 0-13.655-.488-17.967-.974-2.173-.245-3.936-.487-5.438-.677-1.446-.182-2.737-.329-3.775-.329v5Zm27.18 1.98c9.194 0 22.72-1.6 34.245-3.173 5.785-.789 11.118-1.579 15.194-2.168 2.043-.296 3.763-.539 5.074-.709 1.386-.179 2.135-.25 2.367-.25v-5c-.623 0-1.73.126-3.008.291-1.353.175-3.106.424-5.149.719-4.097.592-9.395 1.377-15.154 2.163-11.56 1.577-24.763 3.127-33.569 3.127v5Zm104.385 42.86 1.5 2 .142-.107.125-.125-1.767-1.768Zm-9.36 6.3-1.5-2-.01.007 1.51 1.993Zm-6.3 19.44h-2.5V190.091l2.5-.051Zm8.64 42.12 2.245-1.099-.005-.009-.004-.01-2.236 1.118Zm34.56-47.7-1.417 2.06.05.034.051.032 1.316-2.126Zm-10.62-3.42.657-2.412-.066-.018-.068-.015-.523 2.445Zm42.12-8.64.821 2.361.098-.034.096-.042-1.015-2.285Zm4.14 3.96-1.387-2.08 1.387 2.08Zm-6.84 5.94-2.291-1.002-.004.009-.003.008 2.298.985Zm-3.42 32.58 2.492.189.001-.003-2.493-.186Zm-14.76 77.94 2.374.782.003-.009-2.377-.773Zm-8.1-7.56 2.448.507.012-.06.009-.06-2.469-.387Zm3.78-51.3h2.5v-.096l-.008-.096-2.492.192Zm-.18-2.34 2.492-.192-4.896-.495 2.404.687Zm-1.44 3.78-2.298-.985 2.298.985Zm-3.96 8.28 2.167 1.246.006-.01.005-.01-2.178-1.226Zm-66.06-54.18 2.452-.487-.001-.003-2.451.49Zm-10.26-7.38-.655-2.413-.069.019-.067.022.79 2.372Zm22.32-8.1-1.085-2.253-.008.004 1.093 2.249Zm25.2-11c.065 0 .078.007.047-.001a.851.851 0 0 1-.288-.145 1.229 1.229 0 0 1-.38-.461c-.082-.176-.079-.29-.079-.273h5c0-1.301-.51-2.511-1.585-3.299-.939-.688-1.998-.821-2.715-.821v5Zm-.7-.88c0-.034.006-.095.029-.164.021-.065.042-.093.03-.075a1.746 1.746 0 0 1-.163.196c-.108.118-.235.246-.424.435l3.535 3.536c.577-.577 1.993-1.83 1.993-3.928h-5Zm-.26.16c-.615.461-1.505.974-3.167 2.025a91.64 91.64 0 0 0-6.193 4.275l3 4a86.94 86.94 0 0 1 5.866-4.05c1.398-.884 2.668-1.631 3.494-2.25l-3-4Zm-9.37 6.307c-7.045 5.337-7.29 12.752-7.29 21.433h5c0-8.959.474-13.784 5.309-17.447l-3.019-3.986Zm-7.29 21.484c.366 17.922 4.742 34.864 8.903 43.187l4.473-2.236c-3.759-7.517-8.023-23.695-8.377-41.053l-4.999.102Zm8.894 43.168c4.363 8.915 10.993 15.261 20.966 15.261v-5c-7.308 0-12.558-4.454-16.475-12.459l-4.491 2.198Zm20.966 15.261c10.779 0 16.719-8.631 19.888-17.72 3.213-9.217 4.032-20.018 4.032-26.72h-5c0 6.438-.802 16.607-3.754 25.075-2.996 8.596-7.766 14.365-15.166 14.365v5Zm23.92-44.44c0-5.851-.453-10.444-1.472-13.951-1.03-3.54-2.706-6.194-5.293-7.795l-2.631 4.252c1.193.739 2.307 2.135 3.122 4.94.826 2.838 1.274 6.885 1.274 12.554h5Zm-6.664-21.68c-1.827-1.256-4.36-2.062-6.426-2.607a75.127 75.127 0 0 0-2.98-.71c-.908-.201-1.553-.341-1.973-.455l-1.315 4.824c.57.156 1.388.331 2.207.513a72.1 72.1 0 0 1 2.785.662c2.029.535 3.816 1.169 4.869 1.893l2.833-4.12Zm-11.513-3.805a6.49 6.49 0 0 1-1.147-.336c-.248-.105-.334-.179-.342-.187-.003-.002.008.008.024.031a.365.365 0 0 1 .034.062c.012.033-.012-.008-.012-.185h-5c0 1.334.401 2.702 1.575 3.778 1.035.948 2.419 1.426 3.821 1.727l1.047-4.89Zm-1.443-.615c0-.077.013-.1.009-.09-.004.01-.011.017-.008.014.005-.004.15-.124.559-.124v-5c-1.392 0-2.777.42-3.852 1.361-1.103.966-1.708 2.337-1.708 3.839h5Zm.56-.2c1.579 0 3.71.209 6.642.442 2.861.227 6.311.458 10.278.458v-5c-3.774 0-7.074-.219-9.883-.442-2.738-.217-5.197-.458-7.037-.458v5Zm16.92.9c4.416 0 9.917-.606 14.792-1.381 4.841-.769 9.299-1.741 11.589-2.538l-1.643-4.722c-1.85.643-5.942 1.561-10.731 2.322-4.755.755-9.964 1.319-14.007 1.319v5Zm26.575-3.995a5.845 5.845 0 0 1 1.421-.449c.329-.055.566-.056.804-.056v-5c-.725 0-2.193.019-4.256.935l2.031 4.57Zm2.225-.505c.155 0 .257.02.311.035.054.016.04.021-.011-.018a.718.718 0 0 1-.203-.25.671.671 0 0 1-.077-.287h5a4.263 4.263 0 0 0-1.72-3.463c-.994-.745-2.197-1.017-3.3-1.017v5Zm.02-.52a.888.888 0 0 1-.019.215l-.002.006.002-.003c-.005.007-.088.135-.488.402l2.773 4.16c.68-.453 1.407-1.045 1.942-1.893.565-.894.792-1.87.792-2.887h-5Zm-.507.62c-.632.421-1.263.804-1.964 1.239-.677.421-1.403.883-2.098 1.397-1.403 1.04-2.811 2.391-3.682 4.382l4.581 2.004c.389-.889 1.051-1.608 2.078-2.368.52-.386 1.099-.757 1.761-1.169.638-.396 1.379-.846 2.097-1.325l-2.773-4.16Zm-7.751 7.035c-1.261 2.942-1.771 6.654-2.175 11.745-.395 4.987-.737 12.226-1.441 21.634l4.987.372c.736-9.852 1.024-16.383 1.439-21.611.406-5.124.886-8.072 1.785-10.17l-4.595-1.97Zm-3.615 33.376c-1.611 21.299-5.367 48.807-14.645 77.356l4.755 1.546c9.442-29.051 13.246-56.983 14.875-78.524l-4.985-.378Zm-14.642 77.347c-9.455 28.723-25.078 45.082-43.885 45.082v5c22.232 0 39.009-19.281 48.634-48.518l-4.749-1.564Zm-43.885 45.082c-6.654 0-12.084-2.155-15.831-5.705-3.736-3.539-5.969-8.623-5.969-14.835h-5c0 7.468 2.716 13.904 7.53 18.465 4.803 4.55 11.523 7.075 19.27 7.075v-5Zm-21.8-20.54c0-13.751 8.404-22.7 18.92-22.7v-5c-13.965 0-23.92 11.931-23.92 27.7h5Zm18.92-22.7c4.425 0 7.575 1.523 9.624 3.662 2.077 2.167 3.176 5.128 3.176 8.238h5c0-4.27-1.512-8.509-4.565-11.697-3.081-3.216-7.581-5.203-13.235-5.203v5Zm12.8 11.9c0 2.607-.854 4.81-2.262 6.337-1.387 1.501-3.45 2.503-6.218 2.503v5c4.071 0 7.498-1.518 9.892-4.112 2.371-2.568 3.588-6.035 3.588-9.728h-5Zm-8.48 8.84c-2.475 0-4.025-.66-5.109-1.5-1.137-.883-1.963-2.12-2.719-3.61-.381-.752-.709-1.493-1.074-2.29-.347-.758-.736-1.585-1.185-2.328-.891-1.475-2.403-3.232-5.033-3.232v5c.078 0 .094.007.153.051.111.084.314.291.601.767.285.472.57 1.063.918 1.823.33.722.72 1.601 1.16 2.469.887 1.75 2.119 3.753 4.115 5.3 2.049 1.59 4.707 2.55 8.173 2.55v-5Zm-15.12-12.96c-3.381 0-5.595 2.693-6.817 5.211-1.295 2.67-1.983 6.07-1.983 9.349h5c0-2.661.571-5.291 1.481-7.166.983-2.027 1.919-2.394 2.319-2.394v-5Zm-8.8 14.56c0 6.325 2.375 11.729 6.495 15.538 4.102 3.793 9.776 5.862 16.165 5.862v-5c-5.312 0-9.718-1.711-12.771-4.533-3.035-2.806-4.889-6.852-4.889-11.867h-5Zm22.66 21.4c16.265 0 26.126-12.344 31.908-24.391 5.829-12.142 7.996-24.931 8.52-27.462l-4.897-1.014c-.556 2.689-2.618 14.83-8.13 26.313-5.558 11.578-14.147 21.554-27.401 21.554v5Zm40.449-51.973c3.26-20.828 3.991-36.257 3.991-45.207h-5c0 8.69-.71 23.861-3.93 44.433l4.939.774Zm3.991-45.207c0-1.492-.047-2.792-.093-3.884-.046-1.123-.087-1.944-.087-2.596h-5c0 .788.048 1.767.092 2.804.044 1.068.088 2.288.088 3.676h5Zm-.188-6.672-.18-2.34-4.985.384.18 2.34 4.985-.384Zm-5.076-2.835c-.309 1.081-.782 2.193-1.334 3.482l4.595 1.97c.528-1.231 1.135-2.639 1.546-4.078l-4.807-1.374Zm-1.334 3.482c-1.078 2.515-2.293 5.287-3.841 8.039l4.357 2.452c1.692-3.008 2.997-5.996 4.079-8.521l-4.595-1.97Zm-3.83 8.019c-3.786 6.585-12.038 13.326-23.032 13.326v5c13.125 0 22.873-8.019 27.367-15.834l-4.335-2.492Zm-23.032 13.326c-7.248 0-12.821-2.42-17.271-6.409-4.508-4.043-7.961-9.791-10.697-16.554-5.508-13.615-7.783-30.406-10.44-43.784l-4.905.974c2.563 12.902 4.968 30.491 10.71 44.686 2.889 7.142 6.704 13.657 11.994 18.4 5.349 4.797 12.106 7.687 20.609 7.687v-5Zm-38.409-66.75c-.402-2.012-1.083-3.719-2.31-4.907-1.318-1.275-2.894-1.603-4.282-1.603v5c.593 0 .727.122.805.197.167.162.566.705.884 2.293l4.903-.98Zm-6.591-6.51c-1.308 0-2.709.214-3.8.393-1.262.206-1.955.327-2.32.327v5c.894 0 2.18-.239 3.125-.393 1.113-.181 2.142-.327 2.995-.327v-5Zm-6.12.72c-.157 0 .044-.041.322.197.142.122.25.275.315.43a.72.72 0 0 1 .063.253h-5c0 1.131.401 2.285 1.368 3.113.907.778 2.008 1.007 2.931 1.007v-5Zm.7.88a.877.877 0 0 1-.068.335.61.61 0 0 1-.11.178c-.02.021-.016.011.03-.017.047-.028.124-.066.238-.104l-1.581-4.744c-1.566.522-3.51 1.903-3.51 4.352h5Zm-.046.433c10.757-2.917 16.305-5.13 22.758-8.264l-2.185-4.498c-6.147 2.986-11.4 5.093-21.882 7.936l1.309 4.826Zm22.75-8.261c7.433-3.578 12.807-7.024 16.764-9.52 2.003-1.263 3.554-2.225 4.846-2.879 1.325-.67 2.074-.853 2.506-.853v-5c-1.639 0-3.252.627-4.763 1.391-1.542.781-3.299 1.878-5.256 3.112-3.962 2.499-9.119 5.803-16.266 9.244l2.169 4.505Zm162.748 34.108-2.16 1.26.008.013.008.013 2.144-1.286Zm-48.06-3.42.832-2.357-3.511-1.24.182 3.719 2.497-.122Zm43.74 6.3 2.341-.878-.01-.025-.01-.025-2.321.928Zm-44.1-12.06h-2.5v1.871l1.794.527.706-2.398Zm46.276 10.466c1.389 2.315 2.884 6.911 2.884 11.134h5c0-5.137-1.746-10.621-3.596-13.706l-4.288 2.572Zm2.884 11.134c0 7.948-2.698 14.02-7.328 18.134-4.668 4.146-11.577 6.546-20.412 6.546v5c9.704 0 17.915-2.64 23.733-7.809 5.855-5.201 9.007-12.719 9.007-21.871h-5Zm-27.74 24.68c-12.778 0-22.596-4.523-29.247-12.028-6.684-7.543-10.373-18.335-10.373-31.192h-5c0 13.783 3.96 25.851 11.631 34.508 7.705 8.695 18.947 13.712 32.989 13.712v-5Zm-39.62-43.22c0-34.775 24.056-49.88 41.6-49.88v-5c-20.256 0-46.6 17.295-46.6 54.88h5Zm41.6-49.88c5.874 0 12.425 1.415 17.432 4.962 4.883 3.46 8.508 9.082 8.508 18.098h5c0-10.604-4.385-17.762-10.617-22.177-6.108-4.328-13.777-5.883-20.323-5.883v5Zm25.94 23.06c0 11.89-5.613 19.003-12.635 23.265-7.167 4.351-15.857 5.735-21.585 5.735v5c6.332 0 16.001-1.496 24.18-6.46 8.323-5.053 15.04-13.69 15.04-27.54h-5Zm-34.22 29c-5.593 0-11.226-.884-13.928-1.837l-1.664 4.714c3.418 1.207 9.664 2.123 15.592 2.123v-5Zm-17.257.642c.464 9.477 2.883 18.749 7.682 25.729 4.863 7.075 12.165 11.749 21.995 11.749v-5c-7.99 0-13.829-3.696-17.875-9.581-4.111-5.98-6.373-14.258-6.808-23.141l-4.994.244Zm29.677 37.478c6.889 0 12.123-2.578 15.587-6.783 3.407-4.135 4.913-9.607 4.913-15.157h-5c0 4.71-1.284 8.958-3.772 11.978-2.431 2.95-6.197 4.962-11.728 4.962v5Zm20.5-21.94c0-3.212-.372-6.966-1.599-10.238l-4.682 1.756c.933 2.488 1.281 5.574 1.281 8.482h5Zm-1.619-10.288c-.348-.87-.633-1.65-.829-2.295a9.063 9.063 0 0 1-.206-.79c-.044-.218-.046-.31-.046-.307h-5c0 .84.231 1.767.467 2.548.255.84.599 1.77.972 2.7l4.642-1.856Zm-1.081-3.392c0-.156.041.045-.197.322a1.153 1.153 0 0 1-.43.315.737.737 0 0 1-.253.063v-5c-1.132 0-2.285.402-3.113 1.368-.778.907-1.007 2.008-1.007 2.932h5Zm-.88.7c-.224 0-.079-.07.382.287.41.317.927.87 1.418 1.713l4.319-2.52c-.768-1.317-1.691-2.384-2.676-3.147-.934-.723-2.139-1.333-3.443-1.333v5Zm-45.166-6.042c3.278.964 6.935 1.722 13.126 1.722v-5c-5.689 0-8.872-.682-11.715-1.518l-1.411 4.796Zm13.126 1.722c7.524 0 14.065-2.939 18.698-8.152 4.615-5.191 7.202-12.477 7.202-20.988h-5c0 7.509-2.274 13.543-5.939 17.667-3.646 4.102-8.806 6.473-14.961 6.473v5Zm25.9-29.14c0-7.562-1.794-12.967-4.925-16.506-3.166-3.579-7.382-4.894-11.435-4.894v5c2.967 0 5.681.935 7.69 3.206 2.044 2.311 3.67 6.356 3.67 13.194h5Zm-16.36-21.4c-5.445 0-11.68 2.9-16.448 10.2-4.729 7.239-8.012 18.761-8.012 36.22h5c0-16.921 3.196-27.359 7.198-33.485 3.961-6.065 8.707-7.935 12.262-7.935v-5Zm47.447 6.46 1.91 1.613.016-.019.015-.019-1.941-1.575Zm44.46 15.86c-3.161 0-5.752-.993-7.553-2.829-1.799-1.832-3.087-4.788-3.087-9.251h-5c0 5.437 1.591 9.771 4.518 12.754 2.924 2.979 6.903 4.326 11.122 4.326v-5Zm-10.64-12.08c0-3.553-.298-7.536-1.888-10.688-.823-1.632-2.016-3.092-3.715-4.128-1.696-1.034-3.731-1.544-6.077-1.544v5c1.613 0 2.706.345 3.474.813.765.466 1.372 1.154 1.854 2.11 1.02 2.023 1.352 4.97 1.352 8.437h5Zm-11.68-16.36c-5.887 0-11.535 3.705-15.593 10.145-4.072 6.461-6.707 15.867-6.707 27.995h5c0-11.452 2.494-19.866 5.937-25.33 3.457-5.485 7.71-7.81 11.363-7.81v-5Zm-22.3 38.14c0 14.521 3.026 26.427 8.866 34.778 5.913 8.454 14.598 13.082 25.314 13.082v-5c-9.084 0-16.239-3.832-21.217-10.948-5.049-7.219-7.963-17.993-7.963-31.912h-5Zm34.18 47.86c7.135 0 12.907-2.647 16.878-7.004 3.941-4.325 5.962-10.174 5.962-16.376h-5c0 5.138-1.67 9.729-4.658 13.009-2.96 3.248-7.357 5.371-13.182 5.371v5Zm22.84-23.38c0-6.496-1.938-10.946-3.875-14.126-.908-1.489-1.924-2.853-2.474-3.671-.309-.461-.496-.776-.603-1.007-.109-.233-.068-.237-.068-.096h-5c0 .861.26 1.616.535 2.207.276.593.638 1.167.987 1.685.766 1.14 1.505 2.093 2.353 3.484 1.572 2.58 3.145 6.14 3.145 11.524h5Zm-7.02-18.9c0 .019-.003.159-.083.359-.088.217-.24.435-.452.608-.392.321-.71.273-.525.273v-5c-.716 0-1.754.132-2.641.858-.986.806-1.299 1.933-1.299 2.902h5Zm-1.06 1.24c.139 0 .837.142 1.99.955 1.072.755 2.301 1.929 3.465 3.515 2.318 3.157 4.285 7.82 4.285 13.73h5c0-7.05-2.353-12.737-5.255-16.69-1.446-1.969-3.052-3.54-4.613-4.641-1.48-1.044-3.211-1.869-4.872-1.869v5Zm9.74 18.2c0 9.919-3.413 17.403-8.946 22.427-5.565 5.053-13.514 7.833-22.934 7.833v5c10.38 0 19.62-3.07 26.295-9.132 6.708-6.091 10.585-14.987 10.585-26.128h-5Zm-31.88 30.26c-10.734 0-19.741-4.16-26.103-11.691-6.394-7.568-10.277-18.738-10.277-32.969h-5c0 15.109 4.126 27.519 11.458 36.196 7.362 8.714 17.795 13.464 29.922 13.464v-5Zm-36.38-44.66c0-13.496 5.22-26.952 11.65-34.567l-3.82-3.226c-7.25 8.585-12.83 23.209-12.83 37.793h5Zm11.681-34.605c4.836-5.958 9.759-9.744 14.844-12.057 5.089-2.315 10.478-3.218 16.335-3.218v-5c-6.383 0-12.514.987-18.405 3.667-5.896 2.682-11.412 6.996-16.656 13.458l3.882 3.15Zm31.179-15.275c12.699 0 21.44 7.136 21.44 16.94h5c0-13.596-12.139-21.94-26.44-21.94v5Zm21.44 16.94c0 5.049-1.532 8.135-3.391 9.961-1.893 1.857-4.378 2.659-6.709 2.659v5c3.429 0 7.243-1.178 10.211-4.091 3-2.944 4.889-7.418 4.889-13.529h-5ZM365.05 203c0-12.586 4.083-22.664 11.052-29.592 6.972-6.93 17.054-10.928 29.468-10.928v-5c-13.507 0-24.935 4.372-32.993 12.382-8.061 8.012-12.527 19.444-12.527 33.138h5Zm40.52-40.52c10.928 0 20.301 3.79 26.936 10.467 6.632 6.674 10.704 16.406 10.704 28.613h5c0-13.353-4.479-24.411-12.157-32.137-7.675-7.723-18.372-11.943-30.483-11.943v5Zm37.64 39.08c0 14.458-5.223 24.42-12.451 30.795-7.289 6.428-16.8 9.365-25.549 9.365v5c9.79 0 20.529-3.273 28.856-10.615 8.386-7.395 14.144-18.763 14.144-34.545h-5Zm-38 40.16c-21.037 0-40.16-14.262-40.16-38.72h-5c0 27.742 21.916 43.72 45.16 43.72v-5Zm-.9-80.82c-7.847 0-13.414 4.273-16.884 10.589-3.407 6.2-4.876 14.454-4.876 23.051h5c0-8.143 1.41-15.459 4.258-20.644 2.785-5.069 6.848-7.996 12.502-7.996v-5Zm-21.76 33.64c0 10.584 1.832 21.95 5.899 30.769 4.052 8.788 10.66 15.651 20.361 15.651v-5c-6.86 0-12.132-4.747-15.82-12.744-3.673-7.966-5.44-18.56-5.44-28.676h-5Zm26.26 46.42c8.223 0 13.723-4.153 17.028-10.026 3.22-5.722 4.372-13.047 4.372-19.834h-5c0 6.353-1.099 12.708-3.729 17.381-2.545 4.522-6.495 7.479-12.671 7.479v5Zm21.4-29.86c0-16.403-2.543-28.791-6.998-37.173-4.5-8.468-11.09-13.027-18.902-13.027v5c5.507 0 10.617 3.091 14.487 10.373 3.915 7.368 6.413 18.83 6.413 34.827h5Zm48.755-41.4 2.473-.362-.001-.008-.001-.008-2.471.378Zm3.24 22.14-2.474.362 4.944.024-2.47-.386Zm55.62 56.7-2.171 1.24.043.075.047.072 2.081-1.387Zm-15.66.72-.768 2.379.012.004.756-2.383Zm-18-3.24-.227 2.49.052.004.053.003.122-2.497Zm6.84-3.6.146 2.496.023-.002.022-.001-.191-2.493Zm9.18-9.18 2.446.515.003-.012.002-.013-2.451-.49Zm-34.02-39.06 2.451.49.011-.057.009-.058-2.471-.375Zm3.24 51.3 2.042-1.442-.002-.003-2.04 1.445Zm6.84 5.04-.929 2.321.095.038.098.03.736-2.389Zm-36.9-1.8-.139-2.496-.156.008-.153.028.448 2.46Zm8.82-.72.337 2.477.008-.001.008-.001-.353-2.475Zm-5.76-70.38-2.444.528.003.014.003.013 2.438-.555Zm-15.48-10.8.877 2.341.015-.006.014-.005-.906-2.33Zm11.52-6.48 1.512 1.99.02-.015.019-.015-1.551-1.96Zm14.94-14.06a1.987 1.987 0 0 1-1.305-.467c-.165-.143-.211-.244-.17-.175.08.136.238.48.446 1.13.404 1.265.837 3.166 1.295 5.578.911 4.802 1.847 11.215 2.842 17.732l4.943-.756c-.985-6.443-1.939-12.99-2.873-17.908-.464-2.448-.943-4.597-1.444-6.167-.245-.767-.539-1.537-.909-2.161a4.27 4.27 0 0 0-.845-1.042c-.399-.347-1.072-.764-1.98-.764v5Zm3.106 23.782 3.24 22.14 4.947-.724-3.24-22.14-4.947.724Zm8.184 22.164c.854-5.469 3.532-14.141 8.52-21.377 4.967-7.205 11.989-12.689 21.59-12.689v-5c-11.82 0-20.188 6.846-25.706 14.851-5.497 7.974-8.399 17.392-9.344 23.443l4.94.772Zm30.11-34.066c8.055 0 13.661 3.153 17.351 8.39 3.778 5.362 5.709 13.154 5.709 22.59h5c0-10.004-2.03-18.952-6.622-25.47-4.68-6.643-11.854-10.51-21.438-10.51v5Zm23.06 30.98c0 8.536-1.145 17.377-2.317 25.941-1.161 8.479-2.363 16.778-2.363 23.919h5c0-6.719 1.137-14.62 2.316-23.241 1.168-8.536 2.364-17.695 2.364-26.619h-5Zm-4.68 49.86c0 4.459.782 7.793 2.489 10.78l4.341-2.48c-1.173-2.053-1.83-4.479-1.83-8.3h-5Zm2.579 10.927c1.929 2.892 4.997 4.933 7.049 6.42 1.119.811 1.926 1.437 2.46 2.016.525.567.512.794.512.797h5c0-1.797-.914-3.19-1.841-4.192-.916-.991-2.112-1.883-3.198-2.67-2.358-1.708-4.509-3.177-5.821-5.145l-4.161 2.774Zm10.021 9.233c0 .162-.044-.009.168-.251a.93.93 0 0 1 .34-.248c.093-.037.113-.021.012-.021v5c1.266 0 2.517-.417 3.411-1.439.842-.962 1.069-2.123 1.069-3.041h-5Zm.52-.52c-.347 0-.968-.161-2.195-.866-1.223-.703-2.582-1.655-4.52-2.915-3.771-2.452-8.977-5.549-16.65-7.982l-1.511 4.766c7.087 2.247 11.871 5.09 15.435 7.408 1.73 1.125 3.375 2.265 4.755 3.059 1.378.791 2.962 1.53 4.686 1.53v-5Zm-23.353-11.759c-5.773-1.863-11.03-2.987-18.646-3.358l-.243 4.994c7.144.349 11.967 1.385 17.354 3.122l1.535-4.758Zm-18.541-3.351a6.447 6.447 0 0 1-.946-.144 2.313 2.313 0 0 1-.248-.073c-.056-.021-.078-.034-.075-.032a.913.913 0 0 1 .284.297c.149.231.199.472.199.642h-5c0 1.604.908 2.764 2.057 3.414.985.557 2.177.776 3.276.876l.453-4.98Zm-.786.69a.791.791 0 0 1-.072.28 1.208 1.208 0 0 1-.349.457c-.276.221-.426.143-.099.143v-5c-.934 0-2.074.192-3.025.953-1.045.836-1.455 2.027-1.455 3.167h5Zm-.52.88c1.614 0 4.923.001 8.066-.184l-.293-4.992c-2.977.175-6.148.176-7.773.176v5Zm8.111-.187c2.637-.203 5.198-.891 7.298-2.806 2.07-1.887 3.361-4.667 4.137-8.352l-4.893-1.03c-.664 3.155-1.623 4.785-2.613 5.688-.96.875-2.269 1.357-4.312 1.514l.383 4.986Zm11.44-11.183c1.126-5.628 2.029-17.691 2.029-26.59h-5c0 8.741-.898 20.438-1.932 25.61l4.903.98Zm2.029-26.59c0-5.88.014-15.625-2.249-23.923-1.134-4.161-2.898-8.184-5.715-11.197-2.891-3.092-6.787-5-11.816-5v5c3.61 0 6.194 1.309 8.163 3.415 2.043 2.184 3.519 5.339 4.545 9.098 2.057 7.542 2.072 16.607 2.072 22.607h5Zm-19.78-40.12c-5.874 0-10.693 3.187-14.216 8.026-3.501 4.807-5.857 11.388-6.976 18.759l4.943.75c1.041-6.849 3.185-12.598 6.074-16.566 2.867-3.936 6.328-5.969 10.175-5.969v-5Zm-21.172 26.67c-1.493 7.465-1.668 15.424-1.668 23.17h5c0-7.734.184-15.255 1.571-22.19l-4.903-.98Zm-1.668 23.17c0 6.496.456 12.711 1.316 17.892.839 5.06 2.121 9.515 4.003 12.173l4.081-2.89c-1.178-1.662-2.326-5.127-3.152-10.102-.805-4.854-1.248-10.789-1.248-17.073h-5Zm5.317 30.062c2.596 3.677 6.053 5.159 7.954 5.919l1.857-4.642c-1.699-.68-4.002-1.718-5.726-4.161l-4.085 2.884Zm8.147 5.987c.582.179 1.028.322 1.381.449.363.131.543.216.622.261.081.046-.077-.024-.248-.266a1.528 1.528 0 0 1-.279-.853h5a3.48 3.48 0 0 0-.634-2.028c-.413-.586-.942-.959-1.379-1.206-.801-.453-1.898-.799-2.992-1.135l-1.471 4.778Zm1.476-.409c0-.486.192-.857.371-1.072.16-.192.284-.235.226-.208-.131.061-.63.22-1.697.22v5c1.452 0 2.753-.201 3.792-.68.976-.451 2.308-1.478 2.308-3.26h-5Zm-1.1-1.06c-2.189 0-4.921-.451-8.213-.961-3.185-.493-6.781-1.019-10.327-1.019v5c3.113 0 6.357.464 9.562.961 3.098.48 6.306 1.019 8.978 1.019v-5Zm-18.54-1.98c-3.358 0-7.006.279-10.138.549-3.234.279-5.755.531-7.142.531v5c1.672 0 4.551-.288 7.572-.549 3.124-.27 6.585-.531 9.708-.531v-5Zm-17.28 1.08c-.408 0-.711-.035-.924-.08-.217-.046-.293-.093-.286-.089.019.012.116.08.199.228.084.15.091.266.091.281h-5c0 1.599.774 2.94 2.089 3.749 1.15.708 2.541.911 3.831.911v-5Zm-.92.34a.714.714 0 0 1-.067.26.834.834 0 0 1-.216.302c-.044.038-.024.006.134-.056.158-.061.412-.137.796-.206l-.895-4.92c-1.159.211-2.338.586-3.255 1.358-1.055.888-1.497 2.071-1.497 3.262h5Zm.338.336c3.188-.177 4.934-.182 9.019-.739l-.675-4.954c-3.835.523-5.329.518-8.621.701l.277 4.992Zm9.035-.741c2.329-.333 4.291-1.247 5.554-3.084 1.179-1.714 1.453-3.828 1.453-5.871h-5c0 1.737-.267 2.593-.573 3.039-.222.323-.69.759-2.141.966l.707 4.95Zm7.007-8.955c0-13.292-4.757-38.416-10.683-64.455l-4.875 1.11c5.954 26.161 10.558 50.717 10.558 63.345h5Zm-10.677-64.428c-.718-3.323-1.503-6.161-2.697-8.188-.621-1.054-1.415-2.003-2.476-2.681-1.086-.693-2.295-1.003-3.57-1.003v5c.434 0 .687.095.878.217.217.138.513.416.86 1.004.741 1.258 1.396 3.37 2.118 6.707l4.887-1.056Zm-8.743-11.872c-2.385 0-4.781.992-6.526 1.725-.957.402-1.743.742-2.472.996-.743.258-1.191.339-1.442.339v5c1.098 0 2.18-.302 3.086-.617.918-.32 1.899-.745 2.764-1.108 1.9-.797 3.374-1.335 4.59-1.335v-5Zm-10.44 3.06c-.145 0-.163-.014-.103.002.07.017.268.08.488.262.234.195.375.43.445.622.061.166.05.249.05.174h-5c0 .923.236 2.156 1.304 3.046.958.798 2.104.894 2.816.894v-5Zm.88 1.06a.76.76 0 0 1-.111.364c-.068.114-.12.132-.044.079.08-.057.228-.142.487-.257.261-.115.552-.225.925-.365l-1.755-4.682c-.634.238-1.69.616-2.548 1.223-.991.702-1.954 1.88-1.954 3.638h5Zm1.286-.19c3.409-1.326 7.404-3.231 12.126-6.82l-3.025-3.98c-4.278 3.251-7.843 4.946-10.914 6.14l1.813 4.66Zm12.165-6.85c4.574-3.62 8.101-7.964 10.615-11.301 1.319-1.75 2.224-3.037 3.019-4.057.384-.493.638-.785.795-.937.079-.077.066-.051-.028.007-.061.039-.431.268-1.012.268v-5c-.762 0-1.338.305-1.634.49a4.94 4.94 0 0 0-.809.647c-.418.406-.847.927-1.257 1.452-.791 1.017-1.911 2.587-3.067 4.122-2.436 3.233-5.659 7.169-9.725 10.389l3.103 3.92Zm165.908-21.04-2.35-.854-.004.011-.004.011 2.358.832Zm1.8 15.48 2.466.411.002-.017.003-.017-2.471-.377Zm-1.98 16.2-2.463-.428-.002.008-.001.009 2.466.411Zm-48.6 91.08-1.859 1.672.006.007 1.853-1.679Zm-25.38-5.04 1.767 1.768-1.767-1.768Zm17.1-18.9 2.025 1.465.002-.002-2.027-1.463Zm36.9-93.26c4.633 0 7.628.554 9.872 1.099.573.14 1.103.28 1.621.417.509.135 1.023.272 1.519.39.997.238 2.048.434 3.188.434v-5c-.571 0-1.185-.096-2.028-.297-.423-.101-.872-.221-1.398-.36a80.275 80.275 0 0 0-1.722-.442c-2.571-.625-5.966-1.241-11.052-1.241v5Zm16.2 2.34c2.221 0 3.609-1.409 4.434-2.723.784-1.248 1.366-2.881 1.883-4.345l-4.715-1.664c-.563 1.596-.971 2.663-1.402 3.35-.199.317-.32.412-.337.424-.001.001.02-.014.061-.027a.492.492 0 0 1 .052-.013l.024-.002v5Zm6.309-7.046c.31-.852.587-1.296.752-1.486.073-.083.078-.065 0-.023a.88.88 0 0 1-.401.095v-5c-1.479 0-2.609.77-3.372 1.647-.734.845-1.268 1.931-1.678 3.059l4.699 1.708Zm.351-1.414c.111 0 .057.02-.073-.049a.796.796 0 0 1-.282-.254c-.039-.062-.03-.076-.014.001.016.074.029.183.029.322h5c0-.739-.11-1.929-.796-3.007-.805-1.264-2.168-2.013-3.864-2.013v5Zm-.34.02c0 .975-.253 1.957-.854 4.456-.573 2.386-1.354 5.788-2.178 11.187l4.943.754c.796-5.221 1.545-8.479 2.097-10.773.524-2.182.992-3.899.992-5.624h-5Zm-3.026 15.609a128.618 128.618 0 0 0-1.284 9.97c-.231 2.518-.356 4.27-.693 6.213l4.926.856c.382-2.197.527-4.225.746-6.612.221-2.413.53-5.363 1.237-9.605l-4.932-.822Zm-1.98 16.2c-.144.862-.365 1.328-.49 1.508-.056.081-.049.042.057-.025.121-.076.319-.152.559-.152v5c1.632 0 2.803-.977 3.495-1.977.685-.99 1.094-2.234 1.311-3.532l-4.932-.822Zm.126 1.331c.084 0 .208.014.35.065.143.051.265.125.361.205.181.151.206.267.17.177a2.49 2.49 0 0 1-.125-.556 7.812 7.812 0 0 1-.056-.991h-5c0 .993.088 2.279.538 3.403.234.585.619 1.264 1.272 1.808.698.581 1.56.889 2.49.889v-5Zm.7-1.1v-6.84h-5v6.84h5Zm0-6.84c0-7.289-1.75-12.585-5.151-16.041-3.41-3.466-8.044-4.639-12.829-4.639v5c4.035 0 7.14.987 9.265 3.146 2.134 2.169 3.715 5.963 3.715 12.534h5Zm-17.98-20.68c-8.914 0-17.26 6.321-17.26 17.08h5c0-7.601 5.693-12.08 12.26-12.08v-5Zm-17.26 17.08c0 6.907 3.496 12.986 8.208 18.593 4.696 5.589 10.97 11.119 16.967 16.774 12.245 11.545 23.605 23.874 23.605 40.773h5c0-19.281-13.031-32.962-25.175-44.412-6.198-5.843-12.12-11.056-16.57-16.352-4.435-5.277-7.035-10.223-7.035-15.376h-5Zm48.78 76.14c0 11.485-3.801 20.178-9.638 25.994-5.85 5.83-13.923 8.946-22.782 8.946v5c10.04 0 19.428-3.544 26.312-10.404 6.898-6.874 11.108-16.901 11.108-29.536h-5Zm-32.42 34.94c-12.339 0-21.413-5.746-26.228-11.059l-3.705 3.358c5.626 6.207 15.991 12.701 29.933 12.701v-5Zm-26.222-11.052c-2.403-2.67-4.489-4.919-6.526-6.478-2.117-1.621-4.348-2.63-7.032-2.63v5c1.275 0 2.465.431 3.993 1.6 1.607 1.231 3.391 3.122 5.848 5.852l3.717-3.344Zm-13.558-9.108c-1.72 0-3.354.696-4.689 1.442-1.374.767-2.732 1.76-3.927 2.663-1.256.947-2.297 1.764-3.235 2.379-.457.3-.814.5-1.084.619-.29.128-.334.097-.205.097v5c.849 0 1.62-.256 2.223-.522a12.778 12.778 0 0 0 1.808-1.012c1.121-.735 2.375-1.718 3.505-2.571 1.189-.897 2.306-1.704 3.351-2.287 1.083-.604 1.812-.808 2.253-.808v-5Zm-13.14 7.2c-.014 0 .049-.001.154.043a.896.896 0 0 1 .305.216.891.891 0 0 1 .241.621h-5a4.11 4.11 0 0 0 1.095 2.781c.799.861 1.93 1.339 3.205 1.339v-5Zm.7.88c0 .089-.031.128.002.067.047-.089.182-.296.525-.639l-3.535-3.536c-1.102 1.102-1.992 2.424-1.992 4.108h5Zm.527-.572c1.286-1.286 8.743-7.288 17.358-19.203l-4.051-2.93c-8.305 11.485-15.248 17.003-16.842 18.597l3.535 3.536Zm17.36-19.205c4.09-5.671 6.606-10.844 8.452-14.425.952-1.846 1.649-3.114 2.267-3.925.657-.862.762-.593.394-.593v-5c-2.079 0-3.481 1.394-4.371 2.563-.929 1.219-1.818 2.888-2.734 4.664-1.889 3.664-4.233 8.481-8.063 13.79l4.055 2.926Zm11.113-18.943c.161 0 .135.028.014-.03a.896.896 0 0 1-.34-.296c-.064-.097-.061-.141-.046-.067.016.075.032.207.032.413h5c0-.775-.092-2.02-.825-3.119-.867-1.3-2.271-1.901-3.835-1.901v5Zm-.34.02c0 .344-.18 1.059-.775 2.536-.511 1.266-1.359 3.173-2.121 5.167-1.597 4.181-3.224 9.714-3.224 16.777h5c0-6.257 1.432-11.164 2.895-14.993.768-2.011 1.45-3.502 2.087-5.082.552-1.369 1.138-2.949 1.138-4.405h-5Zm-6.12 24.48c0 4.376 1.595 10.488 5.379 15.558 3.858 5.169 10.012 9.262 18.901 9.262v-5c-7.132 0-11.867-3.197-14.894-7.253-3.102-4.155-4.386-9.203-4.386-12.567h-5Zm24.28 24.82c7.007 0 12.893-2.778 16.987-7.64 4.059-4.82 6.213-11.508 6.213-19.16h-5c0 6.748-1.897 12.21-5.038 15.94-3.106 3.688-7.57 5.86-13.162 5.86v5Zm23.2-26.8c0-7.607-3.027-14.646-7.298-21.182-4.265-6.524-9.918-12.761-15.412-18.737-5.556-6.044-10.932-11.804-14.948-17.576-4.015-5.772-6.442-11.247-6.442-16.665h-5c0 6.912 3.085 13.407 7.338 19.521 4.253 6.113 9.902 12.155 15.371 18.103 5.531 6.017 10.903 11.963 14.907 18.09 3.997 6.115 6.484 12.193 6.484 18.446h5Zm-44.1-74.16c0-8.417 3.386-14.353 8.318-18.242 5.007-3.949 11.761-5.898 18.522-5.898v-5c-7.64 0-15.555 2.191-21.618 6.972-6.139 4.841-10.222 12.225-10.222 22.168h5Z"
    ></path>
    <path
      fill="#FE453A"
      d="M787.485 24.338C829.568.373 881.389-1.56 924.88 20.853c45.783 23.608 66.096 78.27 73.305 126.081.43 2.817-.565 3.47-2.984 1.958-92.106-57.956-184.324-58.012-276.653-.167-.811.509-1.153.286-1.026-.669 5.275-39.695 20.576-80.871 49.268-109.85 3.182-3.214 10.081-7.836 20.695-13.868Zm32.272 4.679a11.98 11.98 0 0 0-11.983-11.983 11.982 11.982 0 1 0 11.983 11.983Zm73.901 7.16a19.023 19.023 0 1 0-38.047 0 19.023 19.023 0 0 0 38.047 0Zm62.086 15.564a13.129 13.129 0 1 0-26.257 0 13.129 13.129 0 0 0 26.257 0ZM774.38 67.21a11.935 11.935 0 1 0-23.87-.001 11.935 11.935 0 0 0 23.87 0Zm54.925 19.12a16.731 16.731 0 0 0-23.136-15.46 16.738 16.738 0 0 0-9.056 9.056 16.731 16.731 0 0 0 15.459 23.137 16.732 16.732 0 0 0 16.733-16.733Zm69.103-2.435a14.252 14.252 0 0 0-14.25-14.25 14.25 14.25 0 1 0 14.25 14.25Zm59.747 13.105a17.879 17.879 0 1 0-35.757 0 17.879 17.879 0 0 0 35.757 0Zm-198.121 15.587a14.276 14.276 0 1 0-27.462 5.462 14.272 14.272 0 0 0 13.188 8.812 14.264 14.264 0 0 0 10.094-4.181 14.285 14.285 0 0 0 4.18-10.093Z"
    ></path>
    <path
      fill="#FE453A"
      d="M962.213 140.561c16.423 8.569 30.291 16.924 45.137 27.88 15.06 11.124 14.37 31.055-4.13 37.953-7.804 2.913-18.712.573-28.308 4.106a2.407 2.407 0 0 1-2.919-1.095 2.422 2.422 0 0 1-.304-1.077c-.382-10.049-2.434-15.611-10.98-21.77-62.062-44.589-141.334-44.899-203.539-1.503-7.972 5.553-11.784 13.359-11.434 23.416.032.891-.389 1.265-1.265 1.122-8.657-1.416-17.178-1.918-25.564-1.504-3.374.175-7.313-2.061-11.816-6.707-5.681-5.904-7.742-12.277-6.182-19.12 2.22-9.572 17.64-21.674 26.066-27.379 70.631-47.907 159.642-53.731 235.238-14.322Z"
    ></path>
    <path
      fill="#2B2B2A"
      d="M782.948 394.18c-.191 1.973-1.329 3.596-3.413 4.869-9.095 5.538-20.314-5.824-23.942-13.534-4.615-9.819-7.702-19.136-9.261-27.952-.128-.716-.549-1.01-1.265-.883l-2.268.43c-.42.081-.856.015-1.237-.189a1.959 1.959 0 0 1-.864-.933c-3.294-7.321-4.925-15.023-4.893-23.106.016-.717-.31-1.226-.979-1.528-2.339-1.114-3.477-3.231-3.413-6.35.453-20.647 7.209-32.439 15.492-48.623.477-.97.182-1.472-.884-1.503-29.598-.884-45.591-30.506-30.004-55.928a1.16 1.16 0 0 0 .108-.991 1.206 1.206 0 0 0-.705-.727c-4.177-1.552-8.402-2.769-11.744-5.538-18.499-15.349-15.73-36.45 1.695-51.965a3.01 3.01 0 0 0 1.026-2.005c5.275-47.668 23.942-106.77 65.261-135.2 46.856-32.248 106.531-34.23 156.443-10.622 46.403 21.913 69.748 77.315 77.839 125.174 1.07 6.382 2.13 12.763 3.2 19.144.07.39.22.76.44 1.086.22.325.51.598.85.8 25.85 15.444 22.03 50.007-7.88 59.126-.24.073-.45.201-.63.373s-.32.383-.4.617c-.08.234-.11.484-.08.731.03.246.12.482.25.689 13.7 20.672 3.44 45.186-18.855 53.35-3.175 1.169-7.758 1.002-11.505 2.124-.923.271-1.098.796-.525 1.576 9.93 13.621 15.141 29.336 15.634 47.143.096 3.787-1.376 6.166-4.415 7.137-.34.105-.638.316-.853.603a1.731 1.731 0 0 0-.341.996c-.016 3.533-.016 6.954 0 10.264.064 7.464-2.928 12.962-8.975 16.494-.7.398-1.138.995-1.313 1.791-2.96 13.08-12.078 41.891-31.007 38.311-.971-.175-1.695-.7-2.172-1.576l-2.793-5.299a.838.838 0 0 0-1.145-.33.84.84 0 0 0-.311.307c-9.333 15.515-26.734 19.621-42.011 26.949-18.38 8.784-37.357 6.803-54.209-4.345-5.132-3.389-10.097-8.784-15.038-13.391a1.073 1.073 0 0 0-1.79.549c-1.225 5.395-4.71 7.647-10.455 6.756-9.58-1.465-17.68-6.644-24.3-15.54-1.336-1.798-2.124-1.575-2.363.669Zm4.535-369.841c-10.614 6.03-17.512 10.654-20.695 13.868-28.692 28.978-43.992 70.154-49.267 109.849-.128.955.214 1.178 1.026.669 92.329-57.845 184.547-57.79 276.653.167 2.419 1.512 3.413.859 2.983-1.957-7.208-47.812-27.522-102.474-73.304-126.082C881.388-1.56 829.566.373 787.483 24.338ZM962.211 140.56c-75.596-39.409-164.607-33.585-235.238 14.322-8.426 5.705-23.846 17.807-26.066 27.379-1.559 6.843.501 13.216 6.182 19.12 4.504 4.647 8.442 6.882 11.816 6.707 8.386-.413 16.908.088 25.565 1.504.875.143 1.297-.231 1.265-1.122-.35-10.057 3.461-17.862 11.434-23.416 62.205-43.396 141.477-43.085 203.539 1.504 8.545 6.158 10.598 11.72 10.98 21.769a2.404 2.404 0 0 0 1.061 1.902 2.42 2.42 0 0 0 2.161.27c9.596-3.532 20.505-1.193 28.31-4.105 18.5-6.899 19.19-26.83 4.13-37.954-14.848-10.956-28.716-19.31-45.139-27.88Zm-181.65 90.205c-3.747 14.155.43 29.527 17.067 31.413 5.633.62 9.166-2.316 10.503-7.973 3.222-13.677 8.474-20.671 21.865-25.493a3.988 3.988 0 0 0 1.862-1.361c4.511-6.062 6.206-13.176 13.367-18.021 3.421-2.34 6.938-3.716 10.55-4.13 14.8-1.671 22.892 7.639 28.477 19.955a4.082 4.082 0 0 0 1.504 1.743c7.447 4.75 15.014 6.731 19.263 16.184 1.838 4.082 2.793 9.906 4.535 14.871a3.415 3.415 0 0 0 1.385 1.742c3.787 2.403 6.842 3.31 9.166 2.721 12.906-3.262 18.873-11.505 17.902-24.729-.191-2.411-.907-3.27-2.053-5.251-.334-.589-.238-1.09.287-1.504 4.09-3.246 6.445-8.545 7.065-15.897.908-10.694-.119-29.838-10.216-34.493-46.976-21.673-96.244-24.633-143.769-3.031-8.02 3.676-10.502 6.302-13.224 14.37-4.36 12.985-3.803 25.087 1.671 36.306a1.73 1.73 0 0 0 1.122.931c.207.048.414.087.621.119.939.112 1.289.621 1.05 1.528Zm3.843 105.219c-5.657 22.795.239 57.287 25.78 65.451a1.63 1.63 0 0 0 1.432-.239 1.614 1.614 0 0 0 .668-1.289c.12-5.585.263-10.502-1.718-16.112-3.406-9.691-4.822-18.435-4.249-26.233.716-9.58 5.18-17.727 13.391-24.443a2.173 2.173 0 0 1 3.055 3.056c-7.399 9.102-9.779 20.114-7.137 33.036 6.254 30.744 35.017 53.349 66.812 45.018a.765.765 0 0 0 .376-1.222.773.773 0 0 0-.424-.258c-18.165-3.294-34.492-14.083-31.389-35.017.112-.716.525-1.122 1.242-1.217l.74-.096c.413-.063.7.096.859.478 8.609 20.178 24.116 29.36 46.522 27.546 1.99-.159 3.247-1.202 3.772-3.127 2.458-8.952-7.471-14.8-4.941-25.064 3.644-14.704 1.989-28.222-4.965-40.555a1.84 1.84 0 0 1 2.626-2.435c8.704 5.825 13.223 13.845 13.558 24.061.262 8.045-2.053 17.688 1.336 24.921a130.834 130.834 0 0 0 6.612 12.34c.525.876 1.122.931 1.791.167 10.9-12.428 16.016-26.925 15.348-43.491-.215-5.132-1.719-11.028-2.411-16.589a1.58 1.58 0 0 1 .982-1.711 1.575 1.575 0 0 1 1.882.589c14.704 20.695 3.581 35.327 5.705 57.335a1.27 1.27 0 0 0 1.39 1.144 1.27 1.27 0 0 0 .615-.236c4.52-3.167 8.021-7.082 10.503-11.744 9.962-18.683 11.06-36.434 3.294-53.254-2.705-5.872-1.503-6.827 3.605-2.865 6.301 4.902 9.675 11.45 10.121 19.645a.287.287 0 1 0 .572 0c.971-11.346-1.289-21.928-6.779-31.747-.827-1.48-.429-1.989 1.194-1.527 3.151.875 5.872 2.538 8.163 4.988a1.103 1.103 0 0 0 1.339.243 1.096 1.096 0 0 0 .547-1.245c-4.042-17.68-12.484-33.474-25.326-47.382-2.673-2.888-4.941-6.994-2.745-10.288 10.789-16.104 15.452-33.068 13.988-50.891-.605-7.32-4.798-12.173-12.58-14.56-.779-.239-1.042.023-.787.787 4.917 15.15 3.755 29.718-3.485 43.706a4.57 4.57 0 0 0-.502 2.292c.828 22.581-9.961 32.749-32.367 30.506-.86-.096-1.345.286-1.456 1.145-.573 4.631-2.952 7.185-7.137 7.663-16.757 1.885-30.602-6.135-44.279-16.208-.7-.525-1.409-.525-2.125 0-13.677 10.025-25.206 16.661-42.106 16.327-5.777-.096-9.596-2.053-9.023-8.402.079-.971-.366-1.401-1.337-1.289-4.75.549-9.763 1.432-14.131.596-21.96-4.177-16.279-22.748-22.247-39.218-4.614-12.762-4.543-25.676.215-38.741.334-.939.04-1.233-.883-.883-15.348 5.633-14.775 17.831-12.961 32.654 1.639 13.24 6.309 25.024 14.011 35.351a4.6 4.6 0 0 1 .892 2.934 4.52 4.52 0 0 1-1.154 2.819c-13.638 15.086-22.884 32.479-27.737 52.18a1.05 1.05 0 0 0 1.862.907c2.259-2.849 5.18-4.639 8.76-5.371 1.162-.239 1.456.159.883 1.194-5.426 9.739-7.98 20.233-7.662 31.484.127 5.061.636 5.1 1.528.119 1.503-8.449 3.294-15.825 12.126-20.599a1.525 1.525 0 0 1 2.216 1.2c.034.331-.04.663-.211.948-3.422 5.538-5.236 11.816-5.443 18.833-.405 13.749 4.536 42.584 19.216 48.838.923.398 1.424.096 1.503-.907a111.87 111.87 0 0 0-.477-23.774c-1.886-15.134-2.745-23.059 6.516-33.633a1.532 1.532 0 0 1 1.84-.335 1.528 1.528 0 0 1 .786 1.696Zm91.707-108.257a14.003 14.003 0 0 0-1.637-5.83c-.971-1.824-2.337-3.455-4.022-4.8a17.609 17.609 0 0 0-5.795-3.039 19.186 19.186 0 0 0-6.685-.815c-4.59.249-8.903 2.112-11.992 5.18-3.088 3.067-4.699 7.088-4.477 11.178a13.987 13.987 0 0 0 1.636 5.831c.971 1.823 2.338 3.454 4.022 4.799a17.61 17.61 0 0 0 5.795 3.039c2.142.662 4.414.939 6.686.815 4.589-.248 8.903-2.111 11.991-5.179 3.089-3.068 4.7-7.089 4.478-11.179Zm-144.841 6.785c4.272-5.848 10.908-2.052 16.279-.835.971.223 1.369-.151 1.193-1.122l-2.005-11.887c-.127-.796-.588-1.321-1.384-1.576-36.258-11.72-32.392 55.856 7.949 44.375 3.771-1.066 4.973-3.159 3.604-6.278-4.869-11.195-10.67-23.369-25.063-21.698-.955.112-1.146-.215-.573-.979Zm256.53.931a.744.744 0 0 1-.395 1.047.75.75 0 0 1-.417.028c-16.016-3.939-22.413 10.431-27.498 22.246-.302.716-.183 1.345.358 1.886 10.217 10.264 28.406 1.098 33.752-8.88 7.93-14.799 4.512-25.986-10.24-33.561-2.1-1.066-5.689-.756-10.765.931a2.313 2.313 0 0 0-1.504 1.623l-2.84 11.601a1.238 1.238 0 0 0 .896 1.482c.207.054.424.053.631-.002 5.824-1.647 14.155-5.275 18.022 1.599Zm-171.171 33.227c14.155-.405 26.638-5.8 36.855-15.491.748-.716.652-1.281-.287-1.695-7.383-3.278-13.056-8.466-17.019-15.563a1.879 1.879 0 0 0-1.14-.895 1.889 1.889 0 0 0-1.438.179c-12.587 7.065-18.356 18.117-17.306 33.155.016.207.128.31.335.31Zm47.405-16.947a.598.598 0 0 0-.167.954c9.914 9.899 21.817 15.237 35.71 16.017 1.257.08 1.846-.517 1.766-1.79-.979-15.73-4.273-23.369-18.284-31.317-.701-.398-1.257-.255-1.671.429-4.201 7.034-9.986 12.269-17.354 15.707Z"
    ></path>
    <path
      fill="#2B2B2A"
      d="M819.756 29.017a11.984 11.984 0 1 1-23.968-.001 11.984 11.984 0 0 1 23.968.001Zm-7.09.024a4.892 4.892 0 1 0-9.786 0 4.892 4.892 0 1 0 9.786 0ZM893.655 36.178a19.023 19.023 0 1 1-38.047.001 19.023 19.023 0 0 1 38.047-.001Zm-7.089.024a11.958 11.958 0 1 0-23.916 0 11.958 11.958 0 0 0 23.916 0ZM955.742 51.741a13.128 13.128 0 1 1-26.257 0 13.128 13.128 0 0 1 26.257 0Zm-7.089-.047a6.016 6.016 0 1 0-12.032 0 6.016 6.016 0 0 0 12.032 0ZM774.381 67.209a11.936 11.936 0 0 1-20.375 8.44 11.936 11.936 0 1 1 20.375-8.44Zm-7.066.048a4.891 4.891 0 0 0-8.353-3.46 4.886 4.886 0 0 0-1.434 3.46 4.893 4.893 0 0 0 9.787 0ZM829.306 86.329a16.733 16.733 0 1 1-33.466 0 16.733 16.733 0 0 1 33.466 0Zm-7.209-.048a9.546 9.546 0 0 0-16.299-6.752A9.546 9.546 0 1 0 819.3 93.032a9.547 9.547 0 0 0 2.797-6.751ZM898.406 83.894a14.248 14.248 0 0 1-14.25 14.25 14.252 14.252 0 0 1-10.077-24.326 14.251 14.251 0 0 1 24.327 10.076Zm-7.065.048a7.135 7.135 0 0 0-7.137-7.137 7.137 7.137 0 1 0 7.137 7.137ZM958.153 96.999a17.88 17.88 0 0 1-30.521 12.642 17.879 17.879 0 1 1 30.521-12.642Zm-7.233.047a10.67 10.67 0 1 0-21.34 0 10.67 10.67 0 0 0 21.34 0ZM760.033 112.586a14.262 14.262 0 0 1-4.181 10.093 14.262 14.262 0 0 1-15.556 3.094 14.264 14.264 0 0 1-7.725-7.725 14.275 14.275 0 1 1 27.462-5.462Zm-7.185.024a7.112 7.112 0 1 0-14.225-.002 7.112 7.112 0 0 0 14.225.002ZM831.476 186.535c-3.341-4.082-12.054-3.915-16.518-2.769-4.702 1.218-8.593 4.87-12.985 7.448a1.718 1.718 0 0 1-2.604-1.264c-.045-.383.04-.77.241-1.1 4.233-7.192 9.93-11.123 17.091-11.791 7.591-.693 15.826.31 19.812 7.447a2.527 2.527 0 0 1-.348 2.978 2.532 2.532 0 0 1-2.946.555c-.557-.271-1.138-.772-1.743-1.504ZM915.952 191.715c-9.835-6.946-20.361-12.842-31.318-3.962a2.271 2.271 0 0 1-2.941-.09 2.27 2.27 0 0 1-.377-2.918c8.856-13.343 31.413-9.453 36.951 5.18a1.524 1.524 0 0 1-.491 1.756 1.53 1.53 0 0 1-1.824.034ZM825.867 216.086c5.484 0 9.93-4.446 9.93-9.93 0-5.485-4.446-9.93-9.93-9.93s-9.93 4.445-9.93 9.93c0 5.484 4.446 9.93 9.93 9.93ZM891.819 216.206c5.523 0 10.001-4.478 10.001-10.002 0-5.524-4.478-10.001-10.001-10.001-5.524 0-10.002 4.477-10.002 10.001 0 5.524 4.478 10.002 10.002 10.002Z"
    ></path>
    <path
      fill="#fff"
      d="M807.776 33.934a4.893 4.893 0 1 0 0-9.787 4.893 4.893 0 0 0 0 9.787ZM874.612 48.16c6.604 0 11.959-5.353 11.959-11.958s-5.355-11.959-11.959-11.959c-6.605 0-11.959 5.354-11.959 11.959 0 6.605 5.354 11.959 11.959 11.959ZM942.641 57.709a6.015 6.015 0 1 0 0-12.03 6.015 6.015 0 0 0 0 12.03ZM762.424 72.15a4.893 4.893 0 1 0 0-9.787 4.893 4.893 0 0 0 0 9.787ZM812.55 95.829a9.548 9.548 0 1 0-9.548-9.548 9.548 9.548 0 0 0 9.548 9.548ZM884.206 91.079a7.137 7.137 0 1 0 0-14.275 7.137 7.137 0 1 0 0 14.275ZM940.254 107.716c5.893 0 10.67-4.777 10.67-10.67 0-5.892-4.777-10.67-10.67-10.67s-10.67 4.778-10.67 10.67c0 5.893 4.777 10.67 10.67 10.67ZM745.738 119.722a7.113 7.113 0 1 0 0-14.226 7.113 7.113 0 0 0 0 14.226ZM784.407 335.984a1.528 1.528 0 0 0-2.625-1.36c-9.262 10.574-8.403 18.499-6.517 33.633a111.87 111.87 0 0 1 .477 23.774c-.079 1.003-.58 1.305-1.503.907-14.68-6.254-19.621-35.089-19.216-48.838.207-7.018 2.021-13.295 5.443-18.833a1.53 1.53 0 0 0-2.005-2.149c-8.832 4.774-10.623 12.15-12.126 20.6-.891 4.981-1.401 4.941-1.528-.119-.318-11.251 2.236-21.746 7.662-31.485.573-1.034.279-1.432-.883-1.193-3.58.732-6.501 2.522-8.76 5.371a1.054 1.054 0 0 1-1.815-.187 1.05 1.05 0 0 1-.047-.72c4.853-19.701 14.099-37.094 27.737-52.18a4.52 4.52 0 0 0 1.154-2.819 4.6 4.6 0 0 0-.892-2.934c-7.702-10.327-12.372-22.111-14.011-35.351-1.814-14.823-2.387-27.021 12.961-32.654.923-.35 1.217-.056.883.883-4.758 13.065-4.829 25.978-.215 38.741 5.968 16.47.287 35.041 22.247 39.218 4.368.836 9.381-.048 14.131-.597.971-.111 1.417.319 1.337 1.289-.573 6.35 3.246 8.307 9.023 8.403 16.9.334 28.429-6.302 42.106-16.327.717-.526 1.425-.526 2.125 0 13.677 10.073 27.522 18.093 44.279 16.207 4.185-.477 6.564-3.031 7.137-7.662.111-.859.596-1.241 1.456-1.146 22.406 2.244 33.195-7.924 32.367-30.505a4.57 4.57 0 0 1 .502-2.292c7.24-13.988 8.402-28.556 3.485-43.706-.255-.764.008-1.026.787-.788 7.782 2.387 11.975 7.241 12.58 14.561 1.464 17.823-3.199 34.787-13.988 50.891-2.196 3.294.072 7.399 2.745 10.288 12.842 13.908 21.284 29.702 25.326 47.382a1.096 1.096 0 0 1-1.886 1.002c-2.291-2.45-5.012-4.113-8.163-4.989-1.623-.461-2.021.048-1.194 1.528 5.49 9.819 7.75 20.401 6.779 31.747a.29.29 0 0 1-.083.203.29.29 0 0 1-.406 0 .29.29 0 0 1-.083-.203c-.446-8.195-3.82-14.744-10.121-19.645-5.108-3.962-6.31-3.008-3.605 2.864 7.766 16.821 6.668 34.572-3.294 53.254-2.482 4.663-5.983 8.578-10.502 11.744a1.265 1.265 0 0 1-2.006-.907c-2.124-22.008 8.999-36.64-5.704-57.335a1.577 1.577 0 0 0-2.675.094 1.58 1.58 0 0 0-.19 1.028c.692 5.561 2.196 11.457 2.411 16.589.668 16.566-4.448 31.063-15.348 43.491-.669.764-1.265.708-1.791-.167a130.849 130.849 0 0 1-6.612-12.341c-3.389-7.232-1.074-16.876-1.336-24.92-.334-10.216-4.854-18.237-13.558-24.061a1.836 1.836 0 0 0-2.28.175 1.836 1.836 0 0 0-.346 2.26c6.954 12.333 8.609 25.851 4.965 40.555-2.53 10.264 7.399 16.112 4.941 25.063-.525 1.926-1.782 2.968-3.772 3.127-22.406 1.815-37.913-7.367-46.522-27.546-.159-.381-.446-.541-.859-.477l-.74.096c-.716.095-1.13.501-1.242 1.217-3.103 20.934 13.224 31.723 31.389 35.017a.768.768 0 0 1 .6.722.765.765 0 0 1-.552.758c-31.795 8.331-60.558-14.274-66.812-45.019-2.641-12.921-.262-23.933 7.137-33.036a2.172 2.172 0 0 0-3.055-3.055c-8.211 6.715-12.675 14.863-13.391 24.443-.573 7.797.843 16.542 4.249 26.233 1.981 5.609 1.838 10.527 1.718 16.112a1.618 1.618 0 0 1-.668 1.289 1.63 1.63 0 0 1-1.432.239c-25.541-8.164-31.437-42.656-25.78-65.452Z"
    ></path>
    <path
      fill="#fff"
      d="M853.487 253.179c-10.216 9.691-22.7 15.086-36.855 15.492-.207 0-.318-.104-.334-.311-1.051-15.038 4.718-26.09 17.305-33.155a1.889 1.889 0 0 1 2.578.716c3.963 7.097 9.636 12.285 17.02 15.563.938.414 1.034.979.286 1.695ZM864.038 251.723c7.368-3.437 13.152-8.673 17.353-15.706.414-.685.971-.828 1.671-.43 14.012 7.949 17.306 15.587 18.285 31.317.079 1.273-.51 1.87-1.767 1.791-13.892-.78-25.795-6.119-35.709-16.017a.589.589 0 0 1-.162-.52.6.6 0 0 1 .329-.435Z"
    ></path>
    <path
      fill="#FADDB3"
      d="M779.513 229.238a9.049 9.049 0 0 1-.621-.119 1.733 1.733 0 0 1-1.122-.931c-5.474-11.219-6.031-23.321-1.671-36.307 2.722-8.068 5.204-10.693 13.224-14.369 47.525-21.603 96.793-18.643 143.769 3.031 10.097 4.655 11.124 23.798 10.216 34.492-.62 7.352-2.975 12.651-7.065 15.898-.525.413-.621.915-.286 1.503 1.145 1.982 1.861 2.841 2.052 5.252.971 13.224-4.996 21.467-17.902 24.729-2.323.589-5.379-.318-9.166-2.721a3.417 3.417 0 0 1-1.385-1.743c-1.742-4.965-2.697-10.789-4.535-14.871-4.249-9.452-11.816-11.433-19.263-16.183a4.082 4.082 0 0 1-1.504-1.743c-5.585-12.317-13.677-21.626-28.477-19.955-3.612.414-7.129 1.79-10.55 4.129-7.161 4.846-8.856 11.959-13.367 18.022a3.995 3.995 0 0 1-1.862 1.361c-13.391 4.821-18.643 11.815-21.865 25.493-1.337 5.657-4.87 8.593-10.503 7.972-16.637-1.885-20.814-17.258-17.067-31.412.239-.908-.111-1.417-1.05-1.528Zm51.965-42.703c.604.732 1.185 1.233 1.742 1.503a2.525 2.525 0 0 0 2.946-.555 2.53 2.53 0 0 0 .348-2.977c-3.986-7.138-12.221-8.14-19.812-7.448-7.161.669-12.858 4.599-17.091 11.792a1.723 1.723 0 0 0 1.264 2.604 1.72 1.72 0 0 0 1.1-.241c4.392-2.578 8.282-6.23 12.985-7.447 4.463-1.146 13.176-1.313 16.518 2.769Zm53.158 1.217c10.956-8.88 21.483-2.984 31.318 3.962a1.521 1.521 0 0 0 1.823-.033 1.527 1.527 0 0 0 .492-1.757c-5.538-14.632-28.095-18.523-36.951-5.18a2.272 2.272 0 0 0 .377 2.918 2.263 2.263 0 0 0 2.941.09Zm-48.838 18.404a9.93 9.93 0 1 0-19.86-.001 9.93 9.93 0 0 0 19.86.001Zm66.025.047a10.002 10.002 0 1 0-20.004.002 10.002 10.002 0 0 0 20.004-.002Z"
    ></path>
    <path
      fill="#FADDB3"
      d="M859.644 244.086c9.556-.517 16.93-7.841 16.469-16.358-.462-8.517-8.583-15.002-18.14-14.484-9.557.517-16.93 7.841-16.469 16.358.461 8.517 8.583 15.002 18.14 14.484ZM731.845 235.492c14.394-1.671 20.194 10.503 25.063 21.698 1.369 3.119.168 5.212-3.604 6.278-40.34 11.481-44.207-56.095-7.949-44.375.796.255 1.258.78 1.385 1.576l2.005 11.887c.175.971-.223 1.345-1.194 1.122-5.37-1.217-12.006-5.013-16.279.835-.573.764-.382 1.091.573.979ZM987.802 235.444c-3.867-6.874-12.198-3.246-18.022-1.599a1.242 1.242 0 0 1-1.528-1.48l2.841-11.601c.095-.374.283-.719.545-1.003.263-.283.592-.496.959-.62 5.076-1.687 8.664-1.997 10.765-.931 14.752 7.575 18.168 18.762 10.24 33.561-5.347 9.978-23.536 19.144-33.752 8.88-.541-.541-.66-1.17-.358-1.886 5.084-11.815 11.481-26.185 27.498-22.247a.737.737 0 0 0 .899-.666.752.752 0 0 0-.087-.408Z"
    ></path>
  </g>
  <defs>
    <clipPath id="a"><path fill="#fff" d="M0 0h1028v425H0z"></path></clipPath>
  </defs>
</svg>
